TouchandTell_Regular.ufo
<glyph name="A" format="2">
  <advance width="2048"/>
  <unicode hex="0041"/>
  <outline>
    <contour>
      <point x="1734" y="543" type="curve" smooth="yes"/>
      <point x="1734" y="199"/>
      <point x="1360" y="-77"/>
      <point x="1078" y="-77" type="curve" smooth="yes"/>
      <point x="1012" y="-77"/>
      <point x="964" y="-61"/>
      <point x="930" y="-33" type="curve"/>
      <point x="874" y="-51"/>
      <point x="816" y="-61"/>
      <point x="756" y="-61" type="curve" smooth="yes"/>
      <point x="442" y="-61"/>
      <point x="50" y="194"/>
      <point x="50" y="535" type="curve" smooth="yes"/>
      <point x="50" y="875"/>
      <point x="305" y="1151"/>
      <point x="620" y="1151" type="curve" smooth="yes"/>
      <point x="714" y="1151"/>
      <point x="802" y="1126"/>
      <point x="880" y="1083" type="curve"/>
      <point x="1032" y="1377" type="line"/>
      <point x="1100" y="1339" type="line"/>
      <point x="975" y="1088" type="line"/>
      <point x="1048" y="1137"/>
      <point x="1132" y="1165"/>
      <point x="1222" y="1165" type="curve" smooth="yes"/>
      <point x="1504" y="1165"/>
      <point x="1734" y="885"/>
    </contour>
    <contour>
      <point x="361" y="1003" type="line"/>
      <point x="355" y="1024" type="line"/>
      <point x="348" y="1003" type="line"/>
    </contour>
    <contour>
      <point x="379" y="957" type="line"/>
      <point x="367" y="986" type="line"/>
      <point x="343" y="986" type="line"/>
      <point x="336" y="957" type="line"/>
      <point x="317" y="957" type="line"/>
      <point x="344" y="1054" type="line"/>
      <point x="363" y="1054" type="line"/>
      <point x="398" y="957" type="line"/>
    </contour>
    <contour>
      <point x="447" y="997" type="line"/>
      <point x="446" y="998"/>
      <point x="445" y="998"/>
      <point x="444" y="998" type="curve"/>
      <point x="441" y="998"/>
      <point x="437" y="996"/>
      <point x="435" y="994" type="curve" smooth="yes"/>
      <point x="432" y="991"/>
      <point x="431" y="988"/>
      <point x="431" y="984" type="curve"/>
      <point x="431" y="981"/>
      <point x="432" y="977"/>
      <point x="435" y="975" type="curve" smooth="yes"/>
      <point x="437" y="972"/>
      <point x="441" y="971"/>
      <point x="444" y="971" type="curve"/>
      <point x="445" y="971"/>
      <point x="446" y="971"/>
      <point x="447" y="971" type="curve"/>
    </contour>
    <contour>
      <point x="447" y="951" type="line"/>
      <point x="447" y="952" type="line"/>
      <point x="447" y="952"/>
      <point x="446" y="952"/>
      <point x="444" y="952" type="curve"/>
      <point x="435" y="952"/>
      <point x="428" y="955"/>
      <point x="421" y="962" type="curve" smooth="yes"/>
      <point x="415" y="968"/>
      <point x="412" y="975"/>
      <point x="412" y="984" type="curve"/>
      <point x="412" y="993"/>
      <point x="415" y="1001"/>
      <point x="421" y="1007" type="curve" smooth="yes"/>
      <point x="428" y="1013"/>
      <point x="435" y="1016"/>
      <point x="444" y="1016" type="curve"/>
      <point x="446" y="1016"/>
      <point x="447" y="1015"/>
      <point x="447" y="1015" type="curve"/>
      <point x="466" y="1015" type="line"/>
      <point x="466" y="951" type="line"/>
    </contour>
  </outline>
</glyph>
<glyph name="C" format="2">
  <advance width="2048"/>
  <unicode hex="0043"/>
  <outline>
    <contour>
      <point x="993" y="493" type="curve" smooth="yes"/>
      <point x="1031" y="517"/>
      <point x="1083" y="521"/>
      <point x="1131" y="497" type="curve" smooth="yes"/>
      <point x="1151" y="485"/>
      <point x="1153" y="483"/>
      <point x="1149" y="461" type="curve" smooth="yes"/>
      <point x="1139" y="423"/>
      <point x="1113" y="391"/>
      <point x="1081" y="373" type="curve" smooth="yes"/>
      <point x="1069" y="365"/>
      <point x="1063" y="365"/>
      <point x="1053" y="371" type="curve" smooth="yes"/>
      <point x="1019" y="389"/>
      <point x="993" y="425"/>
      <point x="985" y="461" type="curve" smooth="yes"/>
      <point x="979" y="481"/>
      <point x="981" y="485"/>
    </contour>
    <contour>
      <point x="1107" y="473" type="curve" smooth="yes"/>
      <point x="1091" y="479"/>
      <point x="1067" y="485"/>
      <point x="1045" y="479" type="curve" smooth="yes"/>
      <point x="1033" y="477"/>
      <point x="1015" y="471"/>
      <point x="1015" y="469" type="curve" smooth="yes"/>
      <point x="1015" y="451"/>
      <point x="1053" y="391"/>
      <point x="1071" y="403" type="curve" smooth="yes"/>
      <point x="1081" y="411"/>
      <point x="1135" y="461"/>
    </contour>
    <contour>
      <point x="1255" y="727" type="curve" smooth="yes"/>
      <point x="1295" y="755"/>
      <point x="1351" y="777"/>
      <point x="1419" y="761" type="curve" smooth="yes"/>
      <point x="1437" y="757"/>
      <point x="1463" y="745"/>
      <point x="1477" y="737" type="curve" smooth="yes"/>
      <point x="1507" y="719"/>
      <point x="1541" y="685"/>
      <point x="1541" y="673" type="curve" smooth="yes"/>
      <point x="1541" y="667"/>
      <point x="1537" y="659"/>
      <point x="1531" y="657" type="curve" smooth="yes"/>
      <point x="1523" y="655"/>
      <point x="1517" y="657"/>
      <point x="1503" y="673" type="curve" smooth="yes"/>
      <point x="1455" y="731"/>
      <point x="1355" y="759"/>
      <point x="1275" y="703" type="curve" smooth="yes"/>
      <point x="1261" y="693"/>
      <point x="1237" y="669"/>
      <point x="1229" y="657" type="curve" smooth="yes"/>
      <point x="1221" y="643"/>
      <point x="1197" y="637"/>
      <point x="1197" y="659" type="curve" smooth="yes"/>
      <point x="1197" y="671"/>
      <point x="1227" y="707"/>
    </contour>
    <contour>
      <point x="655" y="737" type="curve" smooth="yes"/>
      <point x="719" y="777"/>
      <point x="817" y="771"/>
      <point x="877" y="727" type="curve" smooth="yes"/>
      <point x="905" y="707"/>
      <point x="935" y="671"/>
      <point x="935" y="659" type="curve" smooth="yes"/>
      <point x="935" y="633"/>
      <point x="911" y="645"/>
      <point x="901" y="659" type="curve" smooth="yes"/>
      <point x="871" y="705"/>
      <point x="801" y="743"/>
      <point x="733" y="733" type="curve" smooth="yes"/>
      <point x="691" y="725"/>
      <point x="657" y="705"/>
      <point x="629" y="673" type="curve" smooth="yes"/>
      <point x="615" y="657"/>
      <point x="611" y="655"/>
      <point x="601" y="657" type="curve" smooth="yes"/>
      <point x="597" y="659"/>
      <point x="591" y="667"/>
      <point x="591" y="673" type="curve" smooth="yes"/>
      <point x="591" y="685"/>
      <point x="625" y="719"/>
    </contour>
    <contour>
      <point x="379" y="929" type="curve"/>
      <point x="349" y="861"/>
      <point x="325" y="777"/>
      <point x="325" y="681" type="curve" smooth="yes"/>
      <point x="325" y="591"/>
      <point x="466" y="119"/>
      <point x="889" y="29" type="curve" smooth="yes"/>
      <point x="933" y="19"/>
      <point x="1005" y="7"/>
      <point x="1067" y="7" type="curve" smooth="yes"/>
      <point x="1662" y="7"/>
      <point x="1852" y="649"/>
      <point x="1785" y="855" type="curve" smooth="yes"/>
      <point x="1781" y="867"/>
      <point x="1777" y="881"/>
      <point x="1777" y="881" type="curve" smooth="yes"/>
      <point x="1773" y="881"/>
      <point x="1759" y="923"/>
      <point x="1757" y="929" type="curve"/>
      <point x="1765" y="957" type="line" smooth="yes"/>
      <point x="1811" y="1115"/>
      <point x="1771" y="1277"/>
      <point x="1697" y="1391" type="curve" smooth="yes"/>
      <point x="1679" y="1419"/>
      <point x="1687" y="1411"/>
      <point x="1659" y="1409" type="curve" smooth="yes"/>
      <point x="1501" y="1391"/>
      <point x="1385" y="1297"/>
      <point x="1321" y="1171" type="curve" smooth="yes"/>
      <point x="1311" y="1151"/>
      <point x="1309" y="1161"/>
      <point x="1283" y="1171" type="curve" smooth="yes"/>
      <point x="1143" y="1227"/>
      <point x="993" y="1227"/>
      <point x="851" y="1171" type="curve" smooth="yes"/>
      <point x="821" y="1159"/>
      <point x="825" y="1151"/>
      <point x="811" y="1175" type="curve" smooth="yes"/>
      <point x="749" y="1293"/>
      <point x="627" y="1391"/>
      <point x="477" y="1409" type="curve" smooth="yes"/>
      <point x="449" y="1411"/>
      <point x="457" y="1419"/>
      <point x="439" y="1391" type="curve" smooth="yes"/>
      <point x="345" y="1251"/>
      <point x="336" y="1104"/>
      <point x="373" y="945" type="curve"/>
      <point x="373" y="945"/>
      <point x="377" y="931"/>
    </contour>
    <contour>
      <point x="516" y="1354" type="curve"/>
      <point x="521" y="1354"/>
      <point x="526" y="1353"/>
      <point x="530" y="1352" type="curve"/>
      <point x="530" y="1385" type="line"/>
      <point x="525" y="1386"/>
      <point x="521" y="1386"/>
      <point x="516" y="1386" type="curve"/>
      <point x="495" y="1386"/>
      <point x="477" y="1379"/>
      <point x="462" y="1363" type="curve" smooth="yes"/>
      <point x="447" y="1348"/>
      <point x="439" y="1329"/>
      <point x="439" y="1308" type="curve" smooth="yes"/>
      <point x="439" y="1286"/>
      <point x="447" y="1267"/>
      <point x="462" y="1252" type="curve" smooth="yes"/>
      <point x="477" y="1237"/>
      <point x="495" y="1229"/>
      <point x="516" y="1229" type="curve"/>
      <point x="521" y="1229"/>
      <point x="525" y="1229"/>
      <point x="530" y="1230" type="curve"/>
      <point x="530" y="1263" type="line"/>
      <point x="526" y="1261"/>
      <point x="521" y="1260"/>
      <point x="516" y="1260" type="curve"/>
      <point x="503" y="1260"/>
      <point x="492" y="1265"/>
      <point x="483" y="1274" type="curve" smooth="yes"/>
      <point x="474" y="1283"/>
      <point x="470" y="1294"/>
      <point x="470" y="1307" type="curve"/>
      <point x="470" y="1320"/>
      <point x="474" y="1331"/>
      <point x="483" y="1340" type="curve" smooth="yes"/>
      <point x="492" y="1350"/>
      <point x="503" y="1354"/>
    </contour>
    <contour>
      <point x="596" y="1232" type="curve"/>
      <point x="596" y="1263" type="line"/>
      <point x="594" y="1263"/>
      <point x="592" y="1262"/>
      <point x="591" y="1262" type="curve"/>
      <point x="585" y="1262"/>
      <point x="580" y="1265"/>
      <point x="575" y="1269" type="curve" smooth="yes"/>
      <point x="571" y="1273"/>
      <point x="569" y="1278"/>
      <point x="569" y="1284" type="curve"/>
      <point x="569" y="1290"/>
      <point x="571" y="1295"/>
      <point x="575" y="1299" type="curve" smooth="yes"/>
      <point x="580" y="1303"/>
      <point x="585" y="1305"/>
      <point x="591" y="1305" type="curve"/>
      <point x="592" y="1305"/>
      <point x="594" y="1305"/>
      <point x="596" y="1304" type="curve"/>
      <point x="596" y="1335" type="line"/>
      <point x="594" y="1335"/>
      <point x="592" y="1335"/>
      <point x="591" y="1335" type="curve"/>
      <point x="576" y="1335"/>
      <point x="564" y="1330"/>
      <point x="554" y="1320" type="curve" smooth="yes"/>
      <point x="544" y="1310"/>
      <point x="539" y="1298"/>
      <point x="539" y="1284" type="curve" smooth="yes"/>
      <point x="539" y="1269"/>
      <point x="544" y="1257"/>
      <point x="554" y="1247" type="curve" smooth="yes"/>
      <point x="564" y="1237"/>
      <point x="576" y="1232"/>
      <point x="591" y="1232" type="curve"/>
      <point x="592" y="1232"/>
      <point x="594" y="1232"/>
    </contour>
    <contour>
      <point x="485" y="441" type="line"/>
      <point x="841" y="441" type="line"/>
      <point x="841" y="425" type="line"/>
      <point x="487" y="419" type="line"/>
    </contour>
    <contour>
      <point x="531" y="263" type="line"/>
      <point x="845" y="357" type="line"/>
      <point x="845" y="341" type="line"/>
      <point x="537" y="245" type="line"/>
    </contour>
    <contour>
      <point x="371" y="589" type="line"/>
      <point x="845" y="525" type="line"/>
      <point x="845" y="509" type="line"/>
      <point x="371" y="573" type="line"/>
    </contour>
    <contour>
      <point x="1617" y="441" type="line"/>
      <point x="1615" y="419" type="line"/>
      <point x="1261" y="425" type="line"/>
      <point x="1261" y="441" type="line"/>
    </contour>
    <contour>
      <point x="1571" y="263" type="line"/>
      <point x="1565" y="245" type="line"/>
      <point x="1257" y="341" type="line"/>
      <point x="1257" y="357" type="line"/>
    </contour>
    <contour>
      <point x="1731" y="589" type="line"/>
      <point x="1731" y="573" type="line"/>
      <point x="1257" y="509" type="line"/>
      <point x="1257" y="525" type="line"/>
    </contour>
  </outline>
</glyph>
<glyph name="G" format="2">
  <advance width="2048"/>
  <unicode hex="0047"/>
  <outline>
    <contour>
      <point x="1011" y="93" type="curve" smooth="yes"/>
      <point x="994" y="97"/>
      <point x="994" y="97"/>
      <point x="981" y="93" type="curve" smooth="yes"/>
      <point x="950" y="90"/>
      <point x="920" y="69"/>
      <point x="907" y="41" type="curve" smooth="yes"/>
      <point x="900" y="23"/>
      <point x="897" y="13"/>
      <point x="897" y="-5" type="curve" smooth="yes"/>
      <point x="897" y="-33"/>
      <point x="907" y="-56"/>
      <point x="931" y="-77" type="curve" smooth="yes"/>
      <point x="950" y="-98"/>
      <point x="981" y="-110"/>
      <point x="1013" y="-103" type="curve" smooth="yes"/>
      <point x="1052" y="-91"/>
      <point x="1077" y="-68"/>
      <point x="1087" y="-28" type="curve" smooth="yes"/>
      <point x="1094" y="6"/>
      <point x="1084" y="41"/>
      <point x="1060" y="65" type="curve" smooth="yes"/>
      <point x="1044" y="83"/>
      <point x="1031" y="90"/>
    </contour>
    <contour>
      <point x="944" y="359" type="curve" smooth="yes"/>
      <point x="938" y="359"/>
      <point x="933" y="363"/>
      <point x="920" y="363" type="curve" smooth="yes"/>
      <point x="907" y="363"/>
      <point x="907" y="363"/>
      <point x="894" y="356" type="curve" smooth="yes"/>
      <point x="880" y="349"/>
      <point x="874" y="342"/>
      <point x="867" y="328" type="curve" smooth="yes"/>
      <point x="857" y="303"/>
      <point x="864" y="275"/>
      <point x="880" y="258" type="curve" smooth="yes"/>
      <point x="904" y="237"/>
      <point x="941" y="237"/>
      <point x="960" y="261" type="curve" smooth="yes"/>
      <point x="973" y="275"/>
      <point x="978" y="282"/>
      <point x="978" y="303" type="curve" smooth="yes"/>
      <point x="978" y="317"/>
      <point x="978" y="321"/>
      <point x="971" y="331" type="curve" smooth="yes"/>
      <point x="965" y="342"/>
      <point x="957" y="352"/>
    </contour>
    <contour>
      <point x="620" y="733" type="curve" smooth="yes"/>
      <point x="613" y="733"/>
      <point x="613" y="729"/>
      <point x="620" y="708" type="curve" smooth="yes"/>
      <point x="634" y="673"/>
      <point x="654" y="649"/>
      <point x="680" y="638" type="curve" smooth="yes"/>
      <point x="693" y="635"/>
      <point x="724" y="631"/>
      <point x="737" y="638" type="curve" smooth="yes"/>
      <point x="753" y="642"/>
      <point x="770" y="656"/>
      <point x="780" y="673" type="curve" smooth="yes"/>
      <point x="784" y="687"/>
      <point x="791" y="708"/>
      <point x="791" y="719" type="curve" smooth="yes"/>
      <point x="791" y="722"/>
      <point x="791" y="722"/>
      <point x="784" y="726" type="curve" smooth="yes"/>
      <point x="777" y="726"/>
      <point x="774" y="726"/>
      <point x="774" y="726" type="curve" smooth="yes"/>
      <point x="774" y="726"/>
      <point x="774" y="719"/>
      <point x="770" y="715" type="curve" smooth="yes"/>
      <point x="770" y="687"/>
      <point x="753" y="663"/>
      <point x="733" y="656" type="curve" smooth="yes"/>
      <point x="730" y="656"/>
      <point x="720" y="652"/>
      <point x="711" y="652" type="curve" smooth="yes"/>
      <point x="693" y="652"/>
      <point x="693" y="652"/>
      <point x="680" y="659" type="curve" smooth="yes"/>
      <point x="664" y="670"/>
      <point x="647" y="691"/>
      <point x="638" y="722" type="curve" smooth="yes"/>
      <point x="631" y="736"/>
      <point x="631" y="736"/>
    </contour>
    <contour>
      <point x="971" y="1008" type="curve" smooth="yes"/>
      <point x="967" y="1008"/>
      <point x="965" y="1012"/>
      <point x="960" y="1012" type="curve" smooth="yes"/>
      <point x="933" y="1012"/>
      <point x="927" y="973"/>
      <point x="950" y="964" type="curve" smooth="yes"/>
      <point x="953" y="959"/>
      <point x="960" y="959"/>
      <point x="965" y="959" type="curve" smooth="yes"/>
      <point x="987" y="966"/>
      <point x="991" y="994"/>
    </contour>
    <contour>
      <point x="1198" y="1159" type="curve" smooth="yes"/>
      <point x="1181" y="1169"/>
      <point x="1158" y="1166"/>
      <point x="1133" y="1155" type="curve" smooth="yes"/>
      <point x="1124" y="1148"/>
      <point x="1107" y="1138"/>
      <point x="1107" y="1134" type="curve" smooth="yes"/>
      <point x="1107" y="1131"/>
      <point x="1145" y="1113"/>
      <point x="1158" y="1110" type="curve" smooth="yes"/>
      <point x="1178" y="1106"/>
      <point x="1191" y="1106"/>
      <point x="1204" y="1113" type="curve" smooth="yes"/>
      <point x="1218" y="1120"/>
      <point x="1225" y="1127"/>
      <point x="1221" y="1134" type="curve" smooth="yes"/>
      <point x="1221" y="1145"/>
      <point x="1211" y="1155"/>
    </contour>
    <contour>
      <point x="650" y="1201" type="curve" smooth="yes"/>
      <point x="624" y="1187"/>
      <point x="618" y="1155"/>
      <point x="638" y="1131" type="curve" smooth="yes"/>
      <point x="643" y="1120"/>
      <point x="654" y="1117"/>
      <point x="666" y="1117" type="curve" smooth="yes"/>
      <point x="680" y="1117"/>
      <point x="691" y="1120"/>
      <point x="697" y="1131" type="curve" smooth="yes"/>
      <point x="713" y="1148"/>
      <point x="713" y="1176"/>
      <point x="693" y="1194" type="curve" smooth="yes"/>
      <point x="684" y="1204"/>
      <point x="664" y="1208"/>
    </contour>
    <contour>
      <point x="680" y="1180" type="curve" smooth="yes"/>
      <point x="687" y="1176"/>
      <point x="691" y="1169"/>
      <point x="691" y="1159" type="curve" smooth="yes"/>
      <point x="691" y="1145"/>
      <point x="680" y="1134"/>
      <point x="666" y="1134" type="curve" smooth="yes"/>
      <point x="654" y="1134"/>
      <point x="643" y="1145"/>
      <point x="643" y="1159" type="curve" smooth="yes"/>
      <point x="643" y="1180"/>
      <point x="664" y="1190"/>
    </contour>
    <contour>
      <point x="800" y="1446" type="curve" smooth="yes"/>
      <point x="786" y="1453"/>
      <point x="777" y="1453"/>
      <point x="774" y="1446" type="curve" smooth="yes"/>
      <point x="767" y="1439"/>
      <point x="770" y="1413"/>
      <point x="780" y="1397" type="curve" smooth="yes"/>
      <point x="786" y="1379"/>
      <point x="800" y="1372"/>
      <point x="818" y="1369" type="curve" smooth="yes"/>
      <point x="823" y="1369"/>
      <point x="823" y="1369"/>
      <point x="827" y="1372" type="curve" smooth="yes"/>
      <point x="827" y="1379"/>
      <point x="827" y="1404"/>
      <point x="823" y="1413" type="curve" smooth="yes"/>
      <point x="818" y="1427"/>
      <point x="811" y="1439"/>
    </contour>
    <contour>
      <point x="764" y="1550" type="curve" smooth="yes"/>
      <point x="777" y="1553"/>
      <point x="804" y="1553"/>
      <point x="818" y="1550" type="curve" smooth="yes"/>
      <point x="864" y="1539"/>
      <point x="891" y="1508"/>
      <point x="904" y="1462" type="curve" smooth="yes"/>
      <point x="907" y="1446"/>
      <point x="907" y="1441"/>
      <point x="907" y="1411" type="curve" smooth="yes"/>
      <point x="907" y="1379"/>
      <point x="907" y="1372"/>
      <point x="904" y="1348" type="curve" smooth="yes"/>
      <point x="900" y="1344"/>
      <point x="904" y="1344"/>
      <point x="913" y="1341" type="curve" smooth="yes"/>
      <point x="933" y="1337"/>
      <point x="931" y="1337"/>
      <point x="941" y="1365" type="curve" smooth="yes"/>
      <point x="944" y="1379"/>
      <point x="948" y="1390"/>
      <point x="948" y="1390" type="curve" smooth="yes"/>
      <point x="948" y="1393"/>
      <point x="944" y="1397"/>
      <point x="941" y="1404" type="curve" smooth="yes"/>
      <point x="918" y="1441"/>
      <point x="938" y="1495"/>
      <point x="978" y="1504" type="curve" smooth="yes"/>
      <point x="1007" y="1515"/>
      <point x="1040" y="1497"/>
      <point x="1054" y="1469" type="curve" smooth="yes"/>
      <point x="1058" y="1460"/>
      <point x="1058" y="1455"/>
      <point x="1058" y="1441" type="curve" smooth="yes"/>
      <point x="1058" y="1425"/>
      <point x="1058" y="1420"/>
      <point x="1054" y="1411" type="curve" smooth="yes"/>
      <point x="1047" y="1400"/>
      <point x="1038" y="1386"/>
      <point x="1024" y="1379" type="curve" smooth="yes"/>
      <point x="1021" y="1379"/>
      <point x="1018" y="1376"/>
      <point x="1018" y="1376" type="curve" smooth="yes"/>
      <point x="1018" y="1376"/>
      <point x="1011" y="1362"/>
      <point x="1004" y="1344" type="curve" smooth="yes"/>
      <point x="994" y="1309"/>
      <point x="991" y="1313"/>
      <point x="1011" y="1292" type="curve" smooth="yes"/>
      <point x="1024" y="1278" type="line"/>
      <point x="1047" y="1302" type="line"/>
      <point x="1071" y="1323" type="line"/>
      <point x="1071" y="1344" type="line" smooth="yes"/>
      <point x="1071" y="1362"/>
      <point x="1071" y="1362"/>
      <point x="1074" y="1376" type="curve" smooth="yes"/>
      <point x="1098" y="1425"/>
      <point x="1168" y="1425"/>
      <point x="1191" y="1376" type="curve" smooth="yes"/>
      <point x="1198" y="1365"/>
      <point x="1198" y="1362"/>
      <point x="1198" y="1348" type="curve" smooth="yes"/>
      <point x="1198" y="1330"/>
      <point x="1198" y="1327"/>
      <point x="1191" y="1316" type="curve" smooth="yes"/>
      <point x="1185" y="1302"/>
      <point x="1174" y="1292"/>
      <point x="1161" y="1285" type="curve" smooth="yes"/>
      <point x="1151" y="1281"/>
      <point x="1147" y="1281"/>
      <point x="1133" y="1281" type="curve" smooth="yes"/>
      <point x="1121" y="1278" type="line"/>
      <point x="1094" y="1253" type="line" smooth="yes"/>
      <point x="1071" y="1225"/>
      <point x="1068" y="1225"/>
      <point x="1068" y="1218" type="curve" smooth="yes"/>
      <point x="1068" y="1218"/>
      <point x="1071" y="1215"/>
      <point x="1071" y="1215" type="curve" smooth="yes"/>
      <point x="1071" y="1215"/>
      <point x="1074" y="1218"/>
      <point x="1077" y="1222" type="curve" smooth="yes"/>
      <point x="1098" y="1236"/>
      <point x="1131" y="1246"/>
      <point x="1161" y="1250" type="curve" smooth="yes"/>
      <point x="1191" y="1253"/>
      <point x="1238" y="1246"/>
      <point x="1258" y="1236" type="curve" smooth="yes"/>
      <point x="1295" y="1215"/>
      <point x="1313" y="1176"/>
      <point x="1308" y="1134" type="curve" smooth="yes"/>
      <point x="1304" y="1127"/>
      <point x="1301" y="1117"/>
      <point x="1297" y="1106" type="curve" smooth="yes"/>
      <point x="1280" y="1071"/>
      <point x="1254" y="1050"/>
      <point x="1221" y="1043" type="curve" smooth="yes"/>
      <point x="1187" y="1036"/>
      <point x="1147" y="1043"/>
      <point x="1107" y="1064" type="curve" smooth="yes"/>
      <point x="1092" y="1071" type="line"/>
      <point x="1092" y="1064" type="line" smooth="yes"/>
      <point x="1077" y="959"/>
      <point x="1038" y="852"/>
      <point x="987" y="778" type="curve" smooth="yes"/>
      <point x="981" y="771"/>
      <point x="981" y="768"/>
      <point x="981" y="761" type="curve" smooth="yes"/>
      <point x="981" y="740"/>
      <point x="998" y="593"/>
      <point x="1011" y="526" type="curve" smooth="yes"/>
      <point x="1027" y="405"/>
      <point x="1047" y="345"/>
      <point x="1080" y="272" type="curve" smooth="yes"/>
      <point x="1118" y="191"/>
      <point x="1161" y="139"/>
      <point x="1207" y="118" type="curve" smooth="yes"/>
      <point x="1234" y="104"/>
      <point x="1260" y="76"/>
      <point x="1278" y="44" type="curve" smooth="yes"/>
      <point x="1285" y="37" type="line"/>
      <point x="1295" y="37" type="line" smooth="yes"/>
      <point x="1320" y="37"/>
      <point x="1351" y="41"/>
      <point x="1371" y="51" type="curve" smooth="yes"/>
      <point x="1385" y="58"/>
      <point x="1399" y="69"/>
      <point x="1401" y="72" type="curve" smooth="yes"/>
      <point x="1401" y="76"/>
      <point x="1399" y="83"/>
      <point x="1387" y="100" type="curve" smooth="yes"/>
      <point x="1374" y="125"/>
      <point x="1374" y="128"/>
      <point x="1374" y="139" type="curve" smooth="yes"/>
      <point x="1371" y="156"/>
      <point x="1381" y="167"/>
      <point x="1394" y="167" type="curve" smooth="yes"/>
      <point x="1407" y="167"/>
      <point x="1418" y="160"/>
      <point x="1424" y="146" type="curve" smooth="yes"/>
      <point x="1424" y="142" type="line"/>
      <point x="1431" y="153" type="line" smooth="yes"/>
      <point x="1434" y="160"/>
      <point x="1438" y="167"/>
      <point x="1441" y="167" type="curve" smooth="yes"/>
      <point x="1447" y="174"/>
      <point x="1459" y="174"/>
      <point x="1465" y="174" type="curve" smooth="yes"/>
      <point x="1475" y="167"/>
      <point x="1478" y="146"/>
      <point x="1472" y="128" type="curve" smooth="yes"/>
      <point x="1468" y="125"/>
      <point x="1468" y="118"/>
      <point x="1468" y="118" type="curve" smooth="yes"/>
      <point x="1468" y="118"/>
      <point x="1472" y="118"/>
      <point x="1475" y="118" type="curve" smooth="yes"/>
      <point x="1485" y="121"/>
      <point x="1492" y="118"/>
      <point x="1498" y="111" type="curve" smooth="yes"/>
      <point x="1501" y="107"/>
      <point x="1505" y="104"/>
      <point x="1505" y="97" type="curve" smooth="yes"/>
      <point x="1505" y="90"/>
      <point x="1501" y="90"/>
      <point x="1494" y="83" type="curve" smooth="yes"/>
      <point x="1487" y="72"/>
      <point x="1487" y="72"/>
      <point x="1468" y="69" type="curve" smooth="yes"/>
      <point x="1447" y="62" type="line"/>
      <point x="1445" y="55" type="line" smooth="yes"/>
      <point x="1441" y="41"/>
      <point x="1431" y="23"/>
      <point x="1418" y="9" type="curve" smooth="yes"/>
      <point x="1407" y="-1"/>
      <point x="1405" y="-5"/>
      <point x="1387" y="-12" type="curve" smooth="yes"/>
      <point x="1368" y="-26"/>
      <point x="1345" y="-28"/>
      <point x="1320" y="-33" type="curve" smooth="yes"/>
      <point x="1304" y="-33" type="line"/>
      <point x="1308" y="-42" type="line" smooth="yes"/>
      <point x="1312" y="-70"/>
      <point x="1312" y="-96"/>
      <point x="1312" y="-161" type="curve" smooth="yes"/>
      <point x="1308" y="-231"/>
      <point x="1308" y="-242"/>
      <point x="1304" y="-284" type="curve" smooth="yes"/>
      <point x="1297" y="-382"/>
      <point x="1280" y="-452"/>
      <point x="1258" y="-494" type="curve" smooth="yes"/>
      <point x="1251" y="-501" type="line"/>
      <point x="1187" y="-501" type="line" smooth="yes"/>
      <point x="1133" y="-501"/>
      <point x="1128" y="-501"/>
      <point x="1128" y="-497" type="curve" smooth="yes"/>
      <point x="1128" y="-497"/>
      <point x="1128" y="-445"/>
      <point x="1131" y="-382" type="curve" smooth="yes"/>
      <point x="1138" y="-256"/>
      <point x="1138" y="-252"/>
      <point x="1131" y="-235" type="curve" smooth="yes"/>
      <point x="1121" y="-214"/>
      <point x="1114" y="-210"/>
      <point x="1100" y="-224" type="curve" smooth="yes"/>
      <point x="1092" y="-235"/>
      <point x="1084" y="-249"/>
      <point x="1077" y="-284" type="curve" smooth="yes"/>
      <point x="1060" y="-340"/>
      <point x="1054" y="-403"/>
      <point x="1044" y="-490" type="curve" smooth="yes"/>
      <point x="1040" y="-501" type="line"/>
      <point x="978" y="-501" type="line"/>
      <point x="913" y="-501" type="line"/>
      <point x="913" y="-378" type="line"/>
      <point x="913" y="-252" type="line"/>
      <point x="907" y="-245" type="line" smooth="yes"/>
      <point x="904" y="-231"/>
      <point x="894" y="-224"/>
      <point x="891" y="-224" type="curve" smooth="yes"/>
      <point x="880" y="-224"/>
      <point x="867" y="-242"/>
      <point x="867" y="-256" type="curve" smooth="yes"/>
      <point x="867" y="-259"/>
      <point x="867" y="-315"/>
      <point x="874" y="-382" type="curve" smooth="yes"/>
      <point x="878" y="-445"/>
      <point x="880" y="-497"/>
      <point x="880" y="-501" type="curve" smooth="yes"/>
      <point x="880" y="-501"/>
      <point x="854" y="-501"/>
      <point x="823" y="-501" type="curve" smooth="yes"/>
      <point x="767" y="-501" type="line"/>
      <point x="761" y="-490" type="line" smooth="yes"/>
      <point x="758" y="-476"/>
      <point x="745" y="-445"/>
      <point x="737" y="-420" type="curve" smooth="yes"/>
      <point x="711" y="-329"/>
      <point x="691" y="-221"/>
      <point x="680" y="-112" type="curve" smooth="yes"/>
      <point x="677" y="-77"/>
      <point x="677" y="-70"/>
      <point x="680" y="-28" type="curve" smooth="yes"/>
      <point x="684" y="-8"/>
      <point x="691" y="55"/>
      <point x="697" y="111" type="curve" smooth="yes"/>
      <point x="713" y="254"/>
      <point x="713" y="254"/>
      <point x="717" y="286" type="curve" smooth="yes"/>
      <point x="724" y="314"/>
      <point x="730" y="373"/>
      <point x="730" y="405" type="curve" smooth="yes"/>
      <point x="737" y="461"/>
      <point x="737" y="509"/>
      <point x="733" y="561" type="curve" smooth="yes"/>
      <point x="733" y="579" type="line"/>
      <point x="704" y="579" type="line" smooth="yes"/>
      <point x="671" y="579"/>
      <point x="643" y="582"/>
      <point x="613" y="589" type="curve" smooth="yes"/>
      <point x="571" y="603"/>
      <point x="537" y="617"/>
      <point x="513" y="638" type="curve" smooth="yes"/>
      <point x="460" y="684"/>
      <point x="423" y="743"/>
      <point x="414" y="813" type="curve" smooth="yes"/>
      <point x="398" y="901"/>
      <point x="414" y="994"/>
      <point x="464" y="1075" type="curve" smooth="yes"/>
      <point x="511" y="1152"/>
      <point x="624" y="1246"/>
      <point x="745" y="1313" type="curve" smooth="yes"/>
      <point x="767" y="1323" type="line"/>
      <point x="761" y="1330" type="line" smooth="yes"/>
      <point x="747" y="1337"/>
      <point x="727" y="1358"/>
      <point x="717" y="1376" type="curve" smooth="yes"/>
      <point x="691" y="1413"/>
      <point x="684" y="1441"/>
      <point x="691" y="1474" type="curve" smooth="yes"/>
      <point x="700" y="1511"/>
      <point x="727" y="1539"/>
    </contour>
    <contour>
      <point x="987" y="540" type="curve" smooth="yes"/>
      <point x="985" y="565"/>
      <point x="981" y="582"/>
      <point x="981" y="586" type="curve" smooth="yes"/>
      <point x="981" y="586"/>
      <point x="978" y="586"/>
      <point x="971" y="579" type="curve" smooth="yes"/>
      <point x="933" y="551"/>
      <point x="920" y="505"/>
      <point x="933" y="470" type="curve" smooth="yes"/>
      <point x="941" y="456"/>
      <point x="957" y="440"/>
      <point x="971" y="435" type="curve" smooth="yes"/>
      <point x="981" y="428"/>
      <point x="998" y="426"/>
      <point x="1004" y="426" type="curve" smooth="yes"/>
      <point x="1011" y="426"/>
      <point x="1011" y="426"/>
      <point x="1007" y="428" type="curve" smooth="yes"/>
      <point x="1001" y="456"/>
      <point x="994" y="509"/>
    </contour>
    <contour>
      <point x="764" y="405" type="curve" smooth="yes"/>
      <point x="758" y="405"/>
      <point x="751" y="407"/>
      <point x="751" y="407" type="curve" smooth="yes"/>
      <point x="751" y="407"/>
      <point x="751" y="400"/>
      <point x="751" y="394" type="curve" smooth="yes"/>
      <point x="751" y="387"/>
      <point x="747" y="370"/>
      <point x="745" y="352" type="curve" smooth="yes"/>
      <point x="745" y="338"/>
      <point x="745" y="321"/>
      <point x="745" y="321" type="curve" smooth="yes"/>
      <point x="745" y="317"/>
      <point x="751" y="314"/>
      <point x="767" y="314" type="curve" smooth="yes"/>
      <point x="780" y="314"/>
      <point x="791" y="317"/>
      <point x="798" y="324" type="curve" smooth="yes"/>
      <point x="807" y="331"/>
      <point x="811" y="342"/>
      <point x="811" y="352" type="curve" smooth="yes"/>
      <point x="811" y="377"/>
      <point x="793" y="394"/>
    </contour>
    <contour>
      <point x="737" y="-123" type="curve" smooth="yes"/>
      <point x="730" y="-123"/>
      <point x="720" y="-119"/>
      <point x="713" y="-119" type="curve" smooth="yes"/>
      <point x="700" y="-119"/>
      <point x="700" y="-123"/>
      <point x="700" y="-126" type="curve" smooth="yes"/>
      <point x="700" y="-140"/>
      <point x="711" y="-217"/>
      <point x="717" y="-266" type="curve" smooth="yes"/>
      <point x="720" y="-287"/>
      <point x="724" y="-287"/>
      <point x="727" y="-287" type="curve" smooth="yes"/>
      <point x="730" y="-287"/>
      <point x="753" y="-280"/>
      <point x="761" y="-277" type="curve" smooth="yes"/>
      <point x="770" y="-270"/>
      <point x="784" y="-252"/>
      <point x="791" y="-242" type="curve" smooth="yes"/>
      <point x="793" y="-228"/>
      <point x="793" y="-203"/>
      <point x="791" y="-186" type="curve" smooth="yes"/>
      <point x="784" y="-154"/>
      <point x="767" y="-133"/>
    </contour>
    <contour>
      <point x="941" y="1026" type="curve" smooth="yes"/>
      <point x="913" y="1012"/>
      <point x="907" y="980"/>
      <point x="927" y="957" type="curve" smooth="yes"/>
      <point x="933" y="945"/>
      <point x="944" y="943"/>
      <point x="957" y="943" type="curve" smooth="yes"/>
      <point x="971" y="943"/>
      <point x="981" y="945"/>
      <point x="987" y="957" type="curve" smooth="yes"/>
      <point x="1004" y="973"/>
      <point x="1004" y="1001"/>
      <point x="985" y="1019" type="curve" smooth="yes"/>
      <point x="973" y="1029"/>
      <point x="953" y="1033"/>
    </contour>
    <contour>
      <point x="522" y="995" type="curve"/>
      <point x="514" y="995"/>
      <point x="507" y="992"/>
      <point x="502" y="987" type="curve" smooth="yes"/>
      <point x="496" y="981"/>
      <point x="493" y="974"/>
      <point x="493" y="966" type="curve"/>
      <point x="493" y="958"/>
      <point x="496" y="951"/>
      <point x="502" y="945" type="curve" smooth="yes"/>
      <point x="507" y="940"/>
      <point x="514" y="937"/>
      <point x="522" y="937" type="curve"/>
      <point x="523" y="937"/>
      <point x="523" y="937"/>
      <point x="524" y="937" type="curve"/>
      <point x="524" y="958" type="line"/>
      <point x="543" y="958" type="line"/>
      <point x="543" y="917" type="line"/>
      <point x="524" y="917" type="line"/>
      <point x="523" y="917"/>
      <point x="523" y="917"/>
      <point x="522" y="917" type="curve"/>
      <point x="509" y="917"/>
      <point x="497" y="922"/>
      <point x="488" y="932" type="curve" smooth="yes"/>
      <point x="479" y="941"/>
      <point x="474" y="953"/>
      <point x="474" y="966" type="curve" smooth="yes"/>
      <point x="474" y="980"/>
      <point x="479" y="991"/>
      <point x="488" y="1001" type="curve" smooth="yes"/>
      <point x="497" y="1011"/>
      <point x="509" y="1015"/>
      <point x="522" y="1015" type="curve"/>
      <point x="525" y="1015"/>
      <point x="528" y="1015"/>
      <point x="531" y="1015" type="curve"/>
      <point x="531" y="994" type="line"/>
      <point x="528" y="995"/>
      <point x="525" y="995"/>
    </contour>
    <contour>
      <point x="584" y="902" type="line"/>
      <point x="584" y="902" type="line"/>
      <point x="584" y="902"/>
      <point x="584" y="902"/>
      <point x="584" y="902" type="curve"/>
      <point x="583" y="902" type="line"/>
      <point x="580" y="902"/>
      <point x="578" y="902"/>
      <point x="578" y="902" type="curve"/>
      <point x="570" y="902"/>
      <point x="563" y="906"/>
      <point x="559" y="912" type="curve" smooth="yes"/>
      <point x="554" y="917"/>
      <point x="552" y="925"/>
      <point x="552" y="934" type="curve"/>
      <point x="552" y="942"/>
      <point x="555" y="950"/>
      <point x="561" y="956" type="curve" smooth="yes"/>
      <point x="566" y="962"/>
      <point x="573" y="965"/>
      <point x="582" y="966" type="curve"/>
      <point x="582" y="966"/>
      <point x="583" y="966"/>
      <point x="584" y="966" type="curve"/>
      <point x="584" y="966"/>
      <point x="584" y="966"/>
      <point x="584" y="966" type="curve"/>
      <point x="584" y="966" type="line"/>
      <point x="584" y="966"/>
      <point x="584" y="966"/>
      <point x="585" y="966" type="curve"/>
      <point x="594" y="966"/>
      <point x="601" y="963"/>
      <point x="607" y="957" type="curve" smooth="yes"/>
      <point x="614" y="950"/>
      <point x="617" y="943"/>
      <point x="617" y="934" type="curve"/>
      <point x="617" y="934" type="line"/>
      <point x="617" y="933"/>
      <point x="617" y="933"/>
      <point x="617" y="933" type="curve"/>
      <point x="617" y="899" type="line"/>
      <point x="615" y="892"/>
      <point x="611" y="886"/>
      <point x="605" y="882" type="curve" smooth="yes"/>
      <point x="600" y="878"/>
      <point x="594" y="876"/>
      <point x="586" y="876" type="curve"/>
      <point x="572" y="876"/>
      <point x="563" y="876"/>
      <point x="561" y="877" type="curve"/>
      <point x="561" y="898" type="line"/>
      <point x="562" y="897"/>
      <point x="565" y="896"/>
      <point x="572" y="895" type="curve" smooth="yes"/>
      <point x="579" y="895"/>
      <point x="583" y="894"/>
      <point x="586" y="894" type="curve"/>
      <point x="588" y="894"/>
      <point x="591" y="895"/>
      <point x="593" y="896" type="curve" smooth="yes"/>
      <point x="595" y="897"/>
      <point x="597" y="898"/>
      <point x="598" y="899" type="curve"/>
      <point x="598" y="904" type="line"/>
      <point x="594" y="903"/>
      <point x="589" y="902"/>
      <point x="585" y="902" type="curve"/>
      <point x="585" y="902"/>
      <point x="585" y="902"/>
      <point x="584" y="902" type="curve" smooth="yes"/>
    </contour>
    <contour>
      <point x="584" y="947" type="curve"/>
      <point x="583" y="947"/>
      <point x="582" y="947"/>
      <point x="581" y="947" type="curve"/>
      <point x="581" y="947" type="line"/>
      <point x="578" y="946"/>
      <point x="576" y="945"/>
      <point x="574" y="942" type="curve" smooth="yes"/>
      <point x="572" y="940"/>
      <point x="571" y="937"/>
      <point x="571" y="934" type="curve"/>
      <point x="571" y="931"/>
      <point x="572" y="928"/>
      <point x="574" y="925" type="curve" smooth="yes"/>
      <point x="576" y="923"/>
      <point x="578" y="921"/>
      <point x="581" y="921" type="curve"/>
      <point x="581" y="921" type="line"/>
      <point x="582" y="921"/>
      <point x="583" y="920"/>
      <point x="584" y="920" type="curve"/>
      <point x="585" y="920"/>
      <point x="586" y="921"/>
      <point x="587" y="921" type="curve"/>
      <point x="587" y="921" type="line"/>
      <point x="590" y="921"/>
      <point x="593" y="923"/>
      <point x="595" y="925" type="curve" smooth="yes"/>
      <point x="597" y="928"/>
      <point x="598" y="931"/>
      <point x="598" y="934" type="curve"/>
      <point x="598" y="937"/>
      <point x="597" y="940"/>
      <point x="595" y="942" type="curve" smooth="yes"/>
      <point x="593" y="945"/>
      <point x="590" y="946"/>
      <point x="587" y="947" type="curve"/>
      <point x="587" y="947" type="line"/>
      <point x="586" y="947"/>
      <point x="585" y="947"/>
    </contour>
  </outline>
</glyph>
<glyph name="H" format="2">
  <advance width="2048"/>
  <unicode hex="0048"/>
  <outline>
    <contour>
      <point x="1586" y="327" type="curve" smooth="yes"/>
      <point x="1586" y="384"/>
      <point x="1490" y="435"/>
      <point x="1336" y="470" type="curve"/>
      <point x="1336" y="1206" type="line"/>
      <point x="1295" y="1220"/>
      <point x="1089" y="1299"/>
      <point x="828" y="1299" type="curve" smooth="yes"/>
      <point x="588" y="1299"/>
      <point x="347" y="1212"/>
      <point x="337" y="1206" type="curve"/>
      <point x="337" y="478" type="line"/>
      <point x="161" y="443"/>
      <point x="48" y="388"/>
      <point x="48" y="327" type="curve" smooth="yes"/>
      <point x="48" y="220"/>
      <point x="392" y="133"/>
      <point x="817" y="133" type="curve" smooth="yes"/>
      <point x="1241" y="133"/>
      <point x="1586" y="220"/>
    </contour>
    <contour>
      <point x="839" y="798" type="line"/>
      <point x="839" y="682" type="line"/>
      <point x="736" y="682" type="line"/>
      <point x="736" y="798" type="line"/>
      <point x="675" y="798" type="line"/>
      <point x="675" y="485" type="line"/>
      <point x="736" y="485" type="line"/>
      <point x="736" y="621" type="line"/>
      <point x="839" y="621" type="line"/>
      <point x="839" y="485" type="line"/>
      <point x="901" y="485" type="line"/>
      <point x="901" y="798" type="line"/>
    </contour>
    <contour>
      <point x="922" y="794" type="line"/>
      <point x="922" y="489" type="line"/>
      <point x="992" y="489" type="line"/>
      <point x="992" y="621" type="line"/>
      <point x="1000" y="633"/>
      <point x="1009" y="638"/>
      <point x="1025" y="638" type="curve"/>
      <point x="1037" y="638"/>
      <point x="1050" y="633"/>
      <point x="1058" y="621" type="curve"/>
      <point x="1058" y="489" type="line"/>
      <point x="1124" y="489" type="line"/>
      <point x="1124" y="621" type="line"/>
      <point x="1116" y="646"/>
      <point x="1103" y="662"/>
      <point x="1087" y="678" type="curve"/>
      <point x="1066" y="690"/>
      <point x="1046" y="698"/>
      <point x="1025" y="698" type="curve"/>
      <point x="1013" y="698"/>
      <point x="1000" y="694"/>
      <point x="992" y="694" type="curve"/>
      <point x="992" y="794" type="line"/>
    </contour>
  </outline>
</glyph>
<glyph name="I" format="2">
  <advance width="2048"/>
  <unicode hex="0049"/>
  <outline>
    <contour>
      <point x="622" y="804" type="line"/>
      <point x="622" y="646" type="line"/>
      <point x="652" y="646" type="line"/>
      <point x="652" y="804" type="line"/>
    </contour>
    <contour>
      <point x="729" y="806" type="line"/>
      <point x="729" y="777" type="line"/>
      <point x="759" y="777" type="line"/>
      <point x="759" y="806" type="line"/>
    </contour>
    <contour>
      <point x="729" y="750" type="line"/>
      <point x="729" y="646" type="line"/>
      <point x="760" y="646" type="line"/>
      <point x="760" y="750" type="line"/>
    </contour>
    <contour>
      <point x="589" y="812" type="line"/>
      <point x="589" y="774" type="line"/>
      <point x="691" y="774" type="line"/>
      <point x="691" y="812" type="line"/>
    </contour>
    <contour>
      <point x="587" y="683" type="line"/>
      <point x="587" y="645" type="line"/>
      <point x="689" y="645" type="line"/>
      <point x="689" y="683" type="line"/>
    </contour>
    <contour>
      <point x="151" y="275" type="curve"/>
      <point x="205" y="225"/>
      <point x="177" y="197"/>
      <point x="233" y="185" type="curve" smooth="yes"/>
      <point x="315" y="169"/>
      <point x="331" y="343"/>
      <point x="313" y="407" type="curve" smooth="yes"/>
      <point x="293" y="479"/>
      <point x="299" y="577"/>
      <point x="369" y="569" type="curve" smooth="yes"/>
      <point x="439" y="561"/>
      <point x="423" y="333"/>
      <point x="427" y="239" type="curve" smooth="yes"/>
      <point x="431" y="145"/>
      <point x="447" y="151"/>
      <point x="443" y="115" type="curve" smooth="yes"/>
      <point x="439" y="81"/>
      <point x="563" y="135"/>
      <point x="653" y="143" type="curve" smooth="yes"/>
      <point x="743" y="149"/>
      <point x="819" y="47"/>
      <point x="927" y="85" type="curve" smooth="yes"/>
      <point x="1035" y="125"/>
      <point x="1281" y="81"/>
      <point x="1429" y="85" type="curve" smooth="yes"/>
      <point x="1575" y="89"/>
      <point x="1745" y="115"/>
      <point x="1901" y="141" type="curve" smooth="yes"/>
      <point x="2057" y="169"/>
      <point x="1989" y="309"/>
      <point x="1963" y="445" type="curve" smooth="yes"/>
      <point x="1935" y="599"/>
      <point x="1933" y="651"/>
      <point x="1831" y="887" type="curve" smooth="yes"/>
      <point x="1731" y="1123"/>
      <point x="1751" y="1079"/>
      <point x="1595" y="1199" type="curve" smooth="yes"/>
      <point x="1439" y="1319"/>
      <point x="1187" y="1303"/>
      <point x="1091" y="1315" type="curve" smooth="yes"/>
      <point x="993" y="1325"/>
      <point x="741" y="1225"/>
      <point x="687" y="1167" type="curve" smooth="yes"/>
      <point x="631" y="1109"/>
      <point x="459" y="845"/>
      <point x="447" y="845" type="curve" smooth="yes"/>
      <point x="435" y="845"/>
      <point x="221" y="811"/>
      <point x="201" y="771" type="curve" smooth="yes"/>
      <point x="181" y="733"/>
      <point x="101" y="353"/>
    </contour>
    <contour>
      <point x="651" y="1087" type="line"/>
      <point x="1731" y="1087" type="line"/>
      <point x="1731" y="1049" type="line"/>
      <point x="651" y="1049" type="line"/>
    </contour>
    <contour>
      <point x="529" y="879" type="line"/>
      <point x="1793" y="879" type="line"/>
      <point x="1793" y="841" type="line"/>
      <point x="529" y="841" type="line"/>
    </contour>
    <contour>
      <point x="613" y="627" type="line"/>
      <point x="1905" y="627" type="line"/>
      <point x="1905" y="589" type="line"/>
      <point x="613" y="589" type="line"/>
    </contour>
    <contour>
      <point x="695" y="361" type="line"/>
      <point x="1929" y="361" type="line"/>
      <point x="1929" y="323" type="line"/>
      <point x="695" y="323" type="line"/>
    </contour>
    <contour>
      <point x="437" y="477" type="line"/>
      <point x="593" y="477" type="line"/>
      <point x="593" y="439" type="line"/>
      <point x="437" y="439" type="line"/>
    </contour>
    <contour>
      <point x="205" y="711" type="line"/>
      <point x="559" y="705" type="line"/>
      <point x="559" y="667" type="line"/>
      <point x="221" y="667" type="line"/>
    </contour>
    <contour>
      <point x="443" y="241" type="line"/>
      <point x="631" y="241" type="line"/>
      <point x="631" y="201" type="line"/>
      <point x="443" y="201" type="line"/>
    </contour>
    <contour>
      <point x="167" y="575" type="line"/>
      <point x="287" y="575" type="line"/>
      <point x="287" y="535" type="line"/>
      <point x="167" y="535" type="line"/>
    </contour>
    <contour>
      <point x="151" y="381" type="line"/>
      <point x="297" y="381" type="line"/>
      <point x="297" y="341" type="line"/>
      <point x="151" y="341" type="line"/>
    </contour>
    <contour>
      <point x="907" y="1271" type="line"/>
      <point x="945" y="1271" type="line"/>
      <point x="945" y="1083" type="line"/>
      <point x="907" y="1083" type="line"/>
    </contour>
    <contour>
      <point x="1179" y="1287" type="line"/>
      <point x="1217" y="1287" type="line"/>
      <point x="1217" y="1097" type="line"/>
      <point x="1179" y="1097" type="line"/>
    </contour>
    <contour>
      <point x="1469" y="1235" type="line"/>
      <point x="1517" y="1227" type="line"/>
      <point x="1517" y="1087" type="line"/>
      <point x="1479" y="1087" type="line"/>
    </contour>
    <contour>
      <point x="733" y="1039" type="line"/>
      <point x="773" y="1041" type="line"/>
      <point x="773" y="883" type="line"/>
      <point x="733" y="881" type="line"/>
    </contour>
    <contour>
      <point x="999" y="1031" type="line"/>
      <point x="1037" y="1031" type="line"/>
      <point x="1037" y="885" type="line"/>
      <point x="999" y="885" type="line"/>
    </contour>
    <contour>
      <point x="1289" y="1031" type="line"/>
      <point x="1337" y="1023" type="line"/>
      <point x="1337" y="875" type="line"/>
      <point x="1299" y="875" type="line"/>
    </contour>
    <contour>
      <point x="921" y="843" type="line"/>
      <point x="959" y="843" type="line"/>
      <point x="959" y="631" type="line"/>
      <point x="921" y="631" type="line"/>
    </contour>
    <contour>
      <point x="1197" y="823" type="line"/>
      <point x="1235" y="823" type="line"/>
      <point x="1235" y="633" type="line"/>
      <point x="1197" y="633" type="line"/>
    </contour>
    <contour>
      <point x="1483" y="831" type="line"/>
      <point x="1531" y="823" type="line"/>
      <point x="1531" y="661" type="line"/>
      <point x="1493" y="661" type="line"/>
    </contour>
    <contour>
      <point x="751" y="581" type="line"/>
      <point x="789" y="581" type="line"/>
      <point x="789" y="391" type="line"/>
      <point x="751" y="391" type="line"/>
    </contour>
    <contour>
      <point x="1021" y="563" type="line"/>
      <point x="1059" y="563" type="line"/>
      <point x="1059" y="407" type="line"/>
      <point x="1021" y="407" type="line"/>
    </contour>
    <contour>
      <point x="1311" y="557" type="line"/>
      <point x="1359" y="549" type="line"/>
      <point x="1359" y="397" type="line"/>
      <point x="1321" y="397" type="line"/>
    </contour>
    <contour>
      <point x="1615" y="575" type="line"/>
      <point x="1653" y="575" type="line"/>
      <point x="1653" y="387" type="line"/>
      <point x="1615" y="387" type="line"/>
    </contour>
    <contour>
      <point x="1887" y="591" type="line"/>
      <point x="1925" y="591" type="line"/>
      <point x="1925" y="401" type="line"/>
      <point x="1887" y="401" type="line"/>
    </contour>
    <contour>
      <point x="1633" y="1027" type="line"/>
      <point x="1681" y="1019" type="line"/>
      <point x="1681" y="887" type="line"/>
      <point x="1643" y="887" type="line"/>
    </contour>
    <contour>
      <point x="951" y="319" type="line"/>
      <point x="989" y="319" type="line"/>
      <point x="989" y="129" type="line"/>
      <point x="951" y="129" type="line"/>
    </contour>
    <contour>
      <point x="1225" y="303" type="line"/>
      <point x="1263" y="303" type="line"/>
      <point x="1263" y="113" type="line"/>
      <point x="1225" y="113" type="line"/>
    </contour>
    <contour>
      <point x="1509" y="317" type="line"/>
      <point x="1569" y="309" type="line"/>
      <point x="1569" y="119" type="line"/>
      <point x="1519" y="117" type="line"/>
    </contour>
    <contour>
      <point x="1789" y="323" type="line"/>
      <point x="1837" y="313" type="line"/>
      <point x="1837" y="125" type="line"/>
      <point x="1799" y="125" type="line"/>
    </contour>
    <contour>
      <point x="1755" y="835" type="line"/>
      <point x="1803" y="825" type="line"/>
      <point x="1803" y="637" type="line"/>
      <point x="1765" y="637" type="line"/>
    </contour>
  </outline>
</glyph>
<glyph name="J" format="2">
  <advance width="2048"/>
  <unicode hex="004A"/>
  <outline>
    <contour>
      <point x="1884" y="590" type="curve"/>
      <point x="1884" y="437"/>
      <point x="1787" y="313"/>
      <point x="1669" y="313" type="curve" smooth="yes"/>
      <point x="1550" y="313"/>
      <point x="1454" y="437"/>
      <point x="1454" y="590" type="curve" smooth="yes"/>
      <point x="1454" y="743"/>
      <point x="1550" y="867"/>
      <point x="1669" y="867" type="curve" smooth="yes"/>
      <point x="1787" y="867"/>
      <point x="1884" y="743"/>
    </contour>
    <contour>
      <point x="1442" y="1319" type="curve" smooth="yes"/>
      <point x="1442" y="1352"/>
      <point x="1239" y="1379"/>
      <point x="988" y="1379" type="curve" smooth="yes"/>
      <point x="738" y="1379"/>
      <point x="535" y="1352"/>
      <point x="535" y="1319" type="curve" smooth="yes"/>
      <point x="535" y="1308"/>
      <point x="561" y="1297"/>
      <point x="607" y="1287" type="curve" smooth="yes"/>
      <point x="611.1917724609375" y="1286.16162109375"/>
      <point x="1259" y="1263"/>
      <point x="1263" y="1262" type="curve"/>
      <point x="449" y="1278" type="line"/>
      <point x="609" y="1016" type="line"/>
      <point x="623.0148315429688" y="925.9470825195312"/>
      <point x="637.0297241210938" y="859.5458984375"/>
      <point x="648.419677734375" y="805.5811767578125" type="curve" smooth="yes"/>
      <point x="675.2269897460938" y="678.570556640625"/>
      <point x="687.4942016601562" y="620.4496459960938"/>
      <point x="651" y="485" type="curve" smooth="yes"/>
      <point x="641.039794921875" y="448.0322570800781"/>
      <point x="629.7954711914062" y="407.9093017578125"/>
      <point x="618.1454467773438" y="366.3387756347656" type="curve" smooth="yes"/>
      <point x="568.9735717773438" y="190.87928771972656"/>
      <point x="512.5746459960938" y="-10.368209838867188"/>
      <point x="515" y="-109" type="curve" smooth="yes"/>
      <point x="519" y="-235"/>
      <point x="665" y="-249"/>
      <point x="966" y="-234" type="curve" smooth="yes"/>
      <point x="1119.37353515625" y="-226.33132934570312"/>
      <point x="1240.6424560546875" y="-237.56541442871094"/>
      <point x="1322.9036865234375" y="-245.18592834472656" type="curve" smooth="yes"/>
      <point x="1390.8193359375" y="-251.4774932861328"/>
      <point x="1432.1463623046875" y="-255.30593872070312"/>
      <point x="1443" y="-244" type="curve" smooth="yes"/>
      <point x="1569.625732421875" y="-112.37592315673828"/>
      <point x="1520.6705322265625" y="16.4721736907959"/>
      <point x="1482.8746337890625" y="115.94974517822266" type="curve" smooth="yes"/>
      <point x="1480.4708251953125" y="122.27645111083984"/>
      <point x="1478.1121826171875" y="128.48435974121094"/>
      <point x="1475.8466796875" y="134.56661987304688" type="curve"/>
      <point x="1526.8604736328125" y="108.46282196044922"/>
      <point x="1583.364013671875" y="94"/>
      <point x="1643" y="94" type="curve" smooth="yes"/>
      <point x="1869" y="94"/>
      <point x="2056" y="311"/>
      <point x="2056" y="581" type="curve" smooth="yes"/>
      <point x="2056" y="849"/>
      <point x="1869" y="1068"/>
      <point x="1643" y="1068" type="curve" smooth="yes"/>
      <point x="1563.8341064453125" y="1068"/>
      <point x="1490.1883544921875" y="1042.2784423828125"/>
      <point x="1427.5771484375" y="997.6781616210938" type="curve"/>
      <point x="1429.8026123046875" y="1063.9193115234375"/>
      <point x="1433.62109375" y="1134.09375"/>
      <point x="1436.4385986328125" y="1185.8736572265625" type="curve" smooth="yes"/>
      <point x="1438.482666015625" y="1223.4393310546875"/>
      <point x="1440" y="1251.3233642578125"/>
      <point x="1440" y="1261" type="curve"/>
      <point x="684" y="1271"/>
      <point x="1442" y="1242.5820108575062"/>
    </contour>
    <contour>
      <point x="732" y="781" type="line"/>
      <point x="736" y="781"/>
      <point x="740" y="780"/>
      <point x="743" y="780" type="curve"/>
      <point x="752" y="780"/>
      <point x="760" y="782"/>
      <point x="767" y="786" type="curve" smooth="yes"/>
      <point x="774" y="790"/>
      <point x="779" y="796"/>
      <point x="781" y="802" type="curve"/>
      <point x="782" y="869" type="line"/>
      <point x="756" y="869" type="line"/>
      <point x="756" y="802" type="line"/>
      <point x="753" y="799"/>
      <point x="748" y="798"/>
      <point x="743" y="798" type="curve"/>
      <point x="739" y="798"/>
      <point x="736" y="799"/>
      <point x="732" y="801" type="curve"/>
    </contour>
    <contour>
      <point x="809" y="878" type="line"/>
      <point x="809" y="861" type="line"/>
      <point x="833" y="861" type="line"/>
      <point x="833" y="878" type="line"/>
    </contour>
    <contour>
      <point x="784" y="766" type="line"/>
      <point x="787" y="765"/>
      <point x="791" y="765"/>
      <point x="795" y="765" type="curve"/>
      <point x="804" y="765"/>
      <point x="812" y="767"/>
      <point x="819" y="771" type="curve" smooth="yes"/>
      <point x="825" y="775"/>
      <point x="830" y="780"/>
      <point x="833" y="787" type="curve"/>
      <point x="833" y="848" type="line"/>
      <point x="807" y="848" type="line"/>
      <point x="807" y="787" type="line"/>
      <point x="804" y="784"/>
      <point x="800" y="782"/>
      <point x="795" y="782" type="curve"/>
      <point x="791" y="782"/>
      <point x="787" y="783"/>
      <point x="784" y="785" type="curve"/>
    </contour>
  </outline>
</glyph>
<glyph name="K" format="2">
  <advance width="2048"/>
  <unicode hex="004B"/>
  <outline>
    <contour>
      <point x="936" y="949" type="line"/>
      <point x="936" y="774" type="line"/>
      <point x="968" y="774" type="line"/>
      <point x="968" y="824" type="line"/>
      <point x="980" y="842" type="line"/>
      <point x="1033" y="774" type="line"/>
      <point x="1073" y="773" type="line"/>
      <point x="1004" y="862" type="line"/>
      <point x="1058" y="948" type="line"/>
      <point x="1019" y="949" type="line"/>
      <point x="968" y="872" type="line"/>
      <point x="968" y="949" type="line"/>
    </contour>
    <contour>
      <point x="1085" y="950" type="line"/>
      <point x="1085" y="779" type="line"/>
      <point x="1115" y="779" type="line"/>
      <point x="1115" y="814" type="line"/>
      <point x="1127" y="830" type="line"/>
      <point x="1170" y="779" type="line"/>
      <point x="1209" y="779" type="line"/>
      <point x="1152" y="843" type="line"/>
      <point x="1207" y="895" type="line"/>
      <point x="1167" y="896" type="line"/>
      <point x="1115" y="851" type="line"/>
      <point x="1115" y="950" type="line"/>
    </contour>
    <contour>
      <point x="1096" y="1611" type="line"/>
      <point x="149" y="929" type="line"/>
      <point x="1456" y="-235" type="line"/>
      <point x="746" y="-224" type="line"/>
      <point x="1952" y="941" type="line"/>
    </contour>
    <contour>
      <point x="1093" y="1575" type="line"/>
      <point x="1096" y="1575" type="line"/>
      <point x="1082" y="1343" type="line"/>
      <point x="1651" y="948" type="line"/>
      <point x="1646" y="935" type="line"/>
      <point x="1082" y="1320" type="line"/>
      <point x="1084" y="106" type="line"/>
      <point x="1071" y="106" type="line"/>
      <point x="1071" y="1329" type="line"/>
      <point x="464" y="927" type="line"/>
      <point x="464" y="946" type="line"/>
      <point x="1066" y="1354" type="line"/>
    </contour>
  </outline>
</glyph>
<glyph name="M" format="2">
  <advance width="2048"/>
  <unicode hex="004D"/>
  <outline>
    <contour>
      <point x="969" y="1399" type="line"/>
      <point x="969" y="1361" type="line"/>
      <point x="977" y="1361" type="line"/>
      <point x="977" y="1385" type="line"/>
      <point x="989" y="1361" type="line"/>
      <point x="997" y="1361" type="line"/>
      <point x="1009" y="1385" type="line"/>
      <point x="1009" y="1361" type="line"/>
      <point x="1017" y="1361" type="line"/>
      <point x="1017" y="1399" type="line"/>
      <point x="1009" y="1399" type="line"/>
      <point x="993" y="1368" type="line"/>
      <point x="977" y="1399" type="line"/>
    </contour>
    <contour>
      <point x="1020" y="1388" type="line"/>
      <point x="1020" y="1362" type="line"/>
      <point x="1028" y="1362" type="line"/>
      <point x="1028" y="1379" type="line"/>
      <point x="1029" y="1380"/>
      <point x="1031" y="1381"/>
      <point x="1032" y="1381" type="curve"/>
      <point x="1034" y="1381"/>
      <point x="1035" y="1380"/>
      <point x="1036" y="1379" type="curve"/>
      <point x="1036" y="1378" type="line"/>
      <point x="1036" y="1362" type="line"/>
      <point x="1036" y="1362" type="line"/>
      <point x="1045" y="1362" type="line"/>
      <point x="1045" y="1362" type="line"/>
      <point x="1045" y="1368" type="line"/>
      <point x="1045" y="1379" type="line"/>
      <point x="1046" y="1380"/>
      <point x="1047" y="1381"/>
      <point x="1049" y="1381" type="curve"/>
      <point x="1050" y="1381"/>
      <point x="1052" y="1380"/>
      <point x="1053" y="1379" type="curve"/>
      <point x="1053" y="1362" type="line"/>
      <point x="1061" y="1362" type="line"/>
      <point x="1061" y="1379" type="line"/>
      <point x="1060" y="1382"/>
      <point x="1059" y="1384"/>
      <point x="1056" y="1386" type="curve" smooth="yes"/>
      <point x="1054" y="1387"/>
      <point x="1051" y="1388"/>
      <point x="1049" y="1388" type="curve"/>
      <point x="1047" y="1388"/>
      <point x="1046" y="1388"/>
      <point x="1045" y="1388" type="curve"/>
      <point x="1040" y="1386" type="line"/>
      <point x="1038" y="1387"/>
      <point x="1035" y="1388"/>
      <point x="1032" y="1388" type="curve"/>
      <point x="1031" y="1388"/>
      <point x="1030" y="1388"/>
      <point x="1028" y="1388" type="curve"/>
      <point x="1028" y="1388" type="line"/>
    </contour>
    <contour>
      <point x="925" y="959" type="curve" smooth="yes"/>
      <point x="925" y="995"/>
      <point x="885" y="1025"/>
      <point x="836" y="1025" type="curve" smooth="yes"/>
      <point x="787" y="1025"/>
      <point x="746" y="995"/>
      <point x="746" y="959" type="curve" smooth="yes"/>
      <point x="746" y="923"/>
      <point x="790" y="866"/>
      <point x="839" y="866" type="curve" smooth="yes"/>
      <point x="886" y="866"/>
      <point x="925" y="923"/>
    </contour>
    <contour>
      <point x="1370" y="961" type="curve" smooth="yes"/>
      <point x="1370" y="995"/>
      <point x="1328" y="1025"/>
      <point x="1281" y="1025" type="curve" smooth="yes"/>
      <point x="1230" y="1025"/>
      <point x="1191" y="995"/>
      <point x="1191" y="961" type="curve" smooth="yes"/>
      <point x="1191" y="925"/>
      <point x="1233" y="869"/>
      <point x="1282" y="869" type="curve" smooth="yes"/>
      <point x="1330" y="869"/>
      <point x="1370" y="925"/>
    </contour>
    <contour>
      <point x="1927" y="859" type="curve" smooth="yes"/>
      <point x="1927" y="961"/>
      <point x="1858" y="1042"/>
      <point x="1772" y="1042" type="curve" smooth="yes"/>
      <point x="1752" y="1042"/>
      <point x="1733" y="1037"/>
      <point x="1715" y="1027" type="curve"/>
      <point x="1597" y="1264"/>
      <point x="1347" y="1427"/>
      <point x="1057" y="1427" type="curve" smooth="yes"/>
      <point x="748" y="1427"/>
      <point x="484" y="1242"/>
      <point x="380" y="981" type="curve"/>
      <point x="358" y="995"/>
      <point x="332" y="1003"/>
      <point x="308" y="1003" type="curve" smooth="yes"/>
      <point x="220" y="1003"/>
      <point x="152" y="920"/>
      <point x="152" y="820" type="curve" smooth="yes"/>
      <point x="152" y="718"/>
      <point x="220" y="638"/>
      <point x="308" y="638" type="curve" smooth="yes"/>
      <point x="315" y="638"/>
      <point x="327" y="638"/>
      <point x="335" y="641" type="curve"/>
      <point x="380" y="295"/>
      <point x="687" y="28"/>
      <point x="1057" y="28" type="curve" smooth="yes"/>
      <point x="1441" y="28"/>
      <point x="1754" y="313"/>
      <point x="1783" y="676" type="curve"/>
      <point x="1862" y="682"/>
      <point x="1927" y="761"/>
    </contour>
    <contour>
      <point x="1519" y="1170" type="curve"/>
      <point x="1494" y="896"/>
      <point x="1462" y="718"/>
      <point x="1465" y="676" type="curve" smooth="yes"/>
      <point x="1471" y="624"/>
      <point x="1600" y="277"/>
      <point x="1528" y="250" type="curve" smooth="yes"/>
      <point x="1494" y="239"/>
      <point x="1277" y="129"/>
      <point x="1076" y="133" type="curve" smooth="yes"/>
      <point x="852" y="141"/>
      <point x="592" y="291"/>
      <point x="585" y="313" type="curve" smooth="yes"/>
      <point x="575" y="357"/>
      <point x="667" y="588"/>
      <point x="666" y="670" type="curve" smooth="yes"/>
      <point x="663" y="758"/>
      <point x="566" y="1184"/>
      <point x="624" y="1176" type="curve" smooth="yes"/>
      <point x="684" y="1170"/>
      <point x="933" y="1099"/>
      <point x="1029" y="1098" type="curve" smooth="yes"/>
      <point x="1123" y="1097"/>
      <point x="1467" y="1208"/>
    </contour>
    <contour>
      <point x="1176" y="646" type="curve" smooth="yes"/>
      <point x="1176" y="661"/>
      <point x="1139" y="675"/>
      <point x="1094" y="675" type="curve" smooth="yes"/>
      <point x="1049" y="675"/>
      <point x="1011" y="661"/>
      <point x="1011" y="646" type="curve" smooth="yes"/>
      <point x="1011" y="632"/>
      <point x="1049" y="620"/>
      <point x="1094" y="620" type="curve" smooth="yes"/>
      <point x="1139" y="620"/>
      <point x="1176" y="632"/>
    </contour>
    <contour>
      <point x="1443" y="399" type="curve" smooth="yes"/>
      <point x="1443" y="439"/>
      <point x="1287" y="471"/>
      <point x="1094" y="471" type="curve" smooth="yes"/>
      <point x="901" y="471"/>
      <point x="743" y="439"/>
      <point x="743" y="399" type="curve" smooth="yes"/>
      <point x="743" y="360"/>
      <point x="901" y="330"/>
      <point x="1094" y="330" type="curve" smooth="yes"/>
      <point x="1287" y="330"/>
      <point x="1443" y="360"/>
    </contour>
    <contour>
      <point x="346" y="813" type="curve" smooth="yes"/>
      <point x="346" y="752"/>
      <point x="321" y="700"/>
      <point x="289" y="700" type="curve" smooth="yes"/>
      <point x="255" y="700"/>
      <point x="229" y="752"/>
      <point x="229" y="813" type="curve" smooth="yes"/>
      <point x="229" y="875"/>
      <point x="255" y="925"/>
      <point x="289" y="925" type="curve" smooth="yes"/>
      <point x="321" y="925"/>
      <point x="346" y="875"/>
    </contour>
    <contour>
      <point x="1853" y="847" type="curve" smooth="yes"/>
      <point x="1853" y="783"/>
      <point x="1822" y="730"/>
      <point x="1786" y="730" type="curve" smooth="yes"/>
      <point x="1749" y="730"/>
      <point x="1717" y="783"/>
      <point x="1717" y="847" type="curve" smooth="yes"/>
      <point x="1717" y="913"/>
      <point x="1749" y="965"/>
      <point x="1786" y="965" type="curve" smooth="yes"/>
      <point x="1822" y="965"/>
      <point x="1853" y="913"/>
    </contour>
  </outline>
</glyph>
<glyph name="O" format="2">
  <advance width="2048"/>
  <unicode hex="004F"/>
  <outline>
    <contour>
      <point x="809" y="1351" type="curve"/>
      <point x="800" y="1238"/>
      <point x="842" y="1257"/>
      <point x="807" y="1122" type="curve" smooth="yes"/>
      <point x="771" y="987"/>
      <point x="843" y="952"/>
      <point x="726" y="862" type="curve" smooth="yes"/>
      <point x="608" y="772"/>
      <point x="556" y="665"/>
      <point x="519" y="835" type="curve" smooth="yes"/>
      <point x="483" y="1005"/>
      <point x="554" y="1185"/>
      <point x="483" y="1149" type="curve" smooth="yes"/>
      <point x="411" y="1113"/>
      <point x="377" y="1093"/>
      <point x="391" y="1001" type="curve" smooth="yes"/>
      <point x="400" y="941"/>
      <point x="396" y="929"/>
      <point x="429" y="825" type="curve" smooth="yes"/>
      <point x="460" y="728"/>
      <point x="439" y="565"/>
      <point x="555" y="583" type="curve" smooth="yes"/>
      <point x="672" y="601"/>
      <point x="760" y="763"/>
      <point x="788" y="772" type="curve" smooth="yes"/>
      <point x="809" y="778"/>
      <point x="852" y="835"/>
      <point x="842" y="655" type="curve" smooth="yes"/>
      <point x="833" y="475"/>
      <point x="734" y="448"/>
      <point x="672" y="403" type="curve" smooth="yes"/>
      <point x="608" y="358"/>
      <point x="672" y="394"/>
      <point x="492" y="385" type="curve" smooth="yes"/>
      <point x="312" y="376"/>
      <point x="311" y="350"/>
      <point x="320" y="277" type="curve" smooth="yes"/>
      <point x="330" y="205"/>
      <point x="392" y="17"/>
      <point x="483" y="34" type="curve" smooth="yes"/>
      <point x="573" y="53"/>
      <point x="320" y="264"/>
      <point x="464" y="281" type="curve" smooth="yes"/>
      <point x="608" y="299"/>
      <point x="762" y="241"/>
      <point x="824" y="286" type="curve" smooth="yes"/>
      <point x="887" y="331"/>
      <point x="1005" y="634"/>
      <point x="1005" y="607" type="curve"/>
      <point x="1049" y="232" type="line"/>
      <point x="1104" y="97"/>
      <point x="1067" y="53"/>
      <point x="1193" y="8" type="curve" smooth="yes"/>
      <point x="1319" y="-37"/>
      <point x="1300" y="17"/>
      <point x="1382" y="17" type="curve" smooth="yes"/>
      <point x="1463" y="17"/>
      <point x="1633" y="44"/>
      <point x="1571" y="116" type="curve" smooth="yes"/>
      <point x="1508" y="187"/>
      <point x="1429" y="145"/>
      <point x="1334" y="102" type="curve" smooth="yes"/>
      <point x="1253" y="67"/>
      <point x="1231" y="110"/>
      <point x="1176" y="237" type="curve" smooth="yes"/>
      <point x="1122" y="363"/>
      <point x="1166" y="457"/>
      <point x="1166" y="520" type="curve" smooth="yes"/>
      <point x="1166" y="583"/>
      <point x="1165" y="628"/>
      <point x="1264" y="601" type="curve" smooth="yes"/>
      <point x="1364" y="574"/>
      <point x="1274" y="593"/>
      <point x="1408" y="475" type="curve" smooth="yes"/>
      <point x="1544" y="358"/>
      <point x="1534" y="323"/>
      <point x="1633" y="286" type="curve" smooth="yes"/>
      <point x="1732" y="250"/>
      <point x="1795" y="206"/>
      <point x="1831" y="269" type="curve" smooth="yes"/>
      <point x="1868" y="331"/>
      <point x="1948" y="440"/>
      <point x="1921" y="502" type="curve"/>
      <point x="1741" y="439" type="line"/>
      <point x="1796" y="475"/>
      <point x="1750" y="350"/>
      <point x="1624" y="475" type="curve" smooth="yes"/>
      <point x="1499" y="601"/>
      <point x="1472" y="584"/>
      <point x="1436" y="691" type="curve"/>
      <point x="1517" y="789" type="line"/>
      <point x="1661" y="781"/>
      <point x="1688" y="690"/>
      <point x="1760" y="763" type="curve" smooth="yes"/>
      <point x="1831" y="835"/>
      <point x="1904" y="925"/>
      <point x="1868" y="1024" type="curve" smooth="yes"/>
      <point x="1831" y="1122"/>
      <point x="1804" y="1195"/>
      <point x="1768" y="1105" type="curve" smooth="yes"/>
      <point x="1732" y="1014"/>
      <point x="1740" y="923"/>
      <point x="1713" y="905" type="curve" smooth="yes"/>
      <point x="1687" y="888"/>
      <point x="1588" y="944"/>
      <point x="1463" y="933" type="curve" smooth="yes"/>
      <point x="1416" y="929"/>
      <point x="1382" y="871"/>
      <point x="1373" y="1051" type="curve" smooth="yes"/>
      <point x="1364" y="1230"/>
      <point x="1384" y="1313"/>
      <point x="1337" y="1383" type="curve" smooth="yes"/>
      <point x="1297" y="1441"/>
      <point x="1284" y="1468"/>
      <point x="1193" y="1482" type="curve" smooth="yes"/>
      <point x="1127" y="1493"/>
      <point x="903" y="1510"/>
    </contour>
    <contour>
      <point x="1077" y="1220" type="curve" smooth="yes"/>
      <point x="1077" y="1185"/>
      <point x="1047" y="1157"/>
      <point x="1010" y="1157" type="curve" smooth="yes"/>
      <point x="972" y="1157"/>
      <point x="942" y="1185"/>
      <point x="942" y="1220" type="curve" smooth="yes"/>
      <point x="942" y="1254"/>
      <point x="972" y="1282"/>
      <point x="1010" y="1282" type="curve" smooth="yes"/>
      <point x="1047" y="1282"/>
      <point x="1077" y="1254"/>
    </contour>
    <contour>
      <point x="1261" y="1220" type="curve" smooth="yes"/>
      <point x="1261" y="1185"/>
      <point x="1232" y="1157"/>
      <point x="1194" y="1157" type="curve" smooth="yes"/>
      <point x="1156" y="1157"/>
      <point x="1127" y="1185"/>
      <point x="1127" y="1220" type="curve" smooth="yes"/>
      <point x="1127" y="1254"/>
      <point x="1156" y="1282"/>
      <point x="1194" y="1282" type="curve" smooth="yes"/>
      <point x="1232" y="1282"/>
      <point x="1261" y="1254"/>
    </contour>
    <contour>
      <point x="1280" y="1008" type="curve" smooth="yes"/>
      <point x="1280" y="997"/>
      <point x="1212" y="958"/>
      <point x="1126" y="958" type="curve" smooth="yes"/>
      <point x="1040" y="958"/>
      <point x="967" y="997"/>
      <point x="967" y="1008" type="curve" smooth="yes"/>
      <point x="967" y="1018"/>
      <point x="1040" y="973"/>
      <point x="1126" y="973" type="curve" smooth="yes"/>
      <point x="1212" y="973"/>
      <point x="1280" y="1018"/>
    </contour>
    <contour>
      <point x="1063" y="760" type="curve"/>
      <point x="1063" y="744"/>
      <point x="1056" y="730"/>
      <point x="1045" y="718" type="curve" smooth="yes"/>
      <point x="1033" y="706"/>
      <point x="1019" y="700"/>
      <point x="1002" y="700" type="curve" smooth="yes"/>
      <point x="986" y="700"/>
      <point x="971" y="706"/>
      <point x="960" y="718" type="curve" smooth="yes"/>
      <point x="947" y="730"/>
      <point x="943" y="744"/>
      <point x="943" y="760" type="curve"/>
      <point x="943" y="779"/>
      <point x="947" y="792"/>
      <point x="960" y="805" type="curve" smooth="yes"/>
      <point x="971" y="817"/>
      <point x="986" y="823"/>
      <point x="1002" y="823" type="curve" smooth="yes"/>
      <point x="1019" y="823"/>
      <point x="1033" y="817"/>
      <point x="1045" y="805" type="curve" smooth="yes"/>
      <point x="1056" y="792"/>
      <point x="1063" y="779"/>
    </contour>
    <contour>
      <point x="1103" y="762" type="curve" smooth="yes"/>
      <point x="1103" y="791"/>
      <point x="1092" y="815"/>
      <point x="1073" y="835" type="curve" smooth="yes"/>
      <point x="1053" y="856"/>
      <point x="1030" y="865"/>
      <point x="1002" y="865" type="curve" smooth="yes"/>
      <point x="975" y="865"/>
      <point x="951" y="856"/>
      <point x="931" y="835" type="curve" smooth="yes"/>
      <point x="912" y="815"/>
      <point x="902" y="791"/>
      <point x="902" y="762" type="curve" smooth="yes"/>
      <point x="902" y="734"/>
      <point x="912" y="709"/>
      <point x="931" y="689" type="curve" smooth="yes"/>
      <point x="951" y="668"/>
      <point x="975" y="658"/>
      <point x="1002" y="658" type="curve" smooth="yes"/>
      <point x="1030" y="658"/>
      <point x="1053" y="668"/>
      <point x="1073" y="689" type="curve" smooth="yes"/>
      <point x="1092" y="709"/>
      <point x="1103" y="734"/>
    </contour>
    <contour>
      <point x="1184" y="768" type="curve"/>
      <point x="1186" y="768"/>
      <point x="1187" y="768"/>
      <point x="1191" y="768" type="curve"/>
      <point x="1191" y="768" type="line"/>
      <point x="1197" y="767"/>
      <point x="1202" y="764"/>
      <point x="1207" y="758" type="curve" smooth="yes"/>
      <point x="1210" y="753"/>
      <point x="1212" y="747"/>
      <point x="1212" y="740" type="curve"/>
      <point x="1212" y="734"/>
      <point x="1210" y="728"/>
      <point x="1207" y="722" type="curve" smooth="yes"/>
      <point x="1202" y="718"/>
      <point x="1197" y="714"/>
      <point x="1191" y="712" type="curve"/>
      <point x="1191" y="713" type="line"/>
      <point x="1187" y="712"/>
      <point x="1186" y="712"/>
      <point x="1184" y="712" type="curve"/>
      <point x="1181" y="712"/>
      <point x="1179" y="712"/>
      <point x="1178" y="713" type="curve"/>
      <point x="1178" y="712" type="line"/>
      <point x="1171" y="714"/>
      <point x="1165" y="718"/>
      <point x="1162" y="722" type="curve" smooth="yes"/>
      <point x="1158" y="728"/>
      <point x="1155" y="734"/>
      <point x="1155" y="740" type="curve"/>
      <point x="1155" y="747"/>
      <point x="1158" y="753"/>
      <point x="1162" y="758" type="curve" smooth="yes"/>
      <point x="1165" y="764"/>
      <point x="1171" y="767"/>
      <point x="1178" y="768" type="curve"/>
      <point x="1178" y="768" type="line"/>
      <point x="1179" y="768"/>
      <point x="1181" y="768"/>
    </contour>
    <contour>
      <point x="1183" y="673" type="line"/>
      <point x="1184" y="673" type="line" smooth="yes"/>
      <point x="1184" y="673"/>
      <point x="1184" y="673"/>
      <point x="1184" y="673" type="curve"/>
      <point x="1203" y="673"/>
      <point x="1219" y="679"/>
      <point x="1232" y="692" type="curve" smooth="yes"/>
      <point x="1245" y="706"/>
      <point x="1252" y="722"/>
      <point x="1252" y="740" type="curve" smooth="yes"/>
      <point x="1252" y="759"/>
      <point x="1245" y="775"/>
      <point x="1232" y="788" type="curve" smooth="yes"/>
      <point x="1219" y="802"/>
      <point x="1203" y="808"/>
      <point x="1184" y="808" type="curve"/>
      <point x="1184" y="808"/>
      <point x="1184" y="808"/>
      <point x="1183" y="808" type="curve"/>
      <point x="1183" y="808" type="line"/>
      <point x="1183" y="808"/>
      <point x="1183" y="808"/>
      <point x="1183" y="808" type="curve"/>
      <point x="1181" y="808"/>
      <point x="1179" y="808"/>
      <point x="1178" y="808" type="curve"/>
      <point x="1161" y="807"/>
      <point x="1146" y="799"/>
      <point x="1134" y="786" type="curve" smooth="yes"/>
      <point x="1122" y="773"/>
      <point x="1115" y="758"/>
      <point x="1115" y="740" type="curve"/>
      <point x="1115" y="722"/>
      <point x="1122" y="707"/>
      <point x="1134" y="694" type="curve" smooth="yes"/>
      <point x="1146" y="681"/>
      <point x="1161" y="674"/>
      <point x="1178" y="673" type="curve"/>
      <point x="1179" y="673"/>
      <point x="1181" y="673"/>
      <point x="1183" y="673" type="curve"/>
      <point x="1183" y="673"/>
      <point x="1183" y="673"/>
      <point x="1183" y="673" type="curve"/>
    </contour>
    <contour>
      <point x="1020" y="1215.5" type="curve" smooth="yes"/>
      <point x="1020" y="1224.6126983717"/>
      <point x="1012.6126983717" y="1232"/>
      <point x="1003.5" y="1232" type="curve" smooth="yes"/>
      <point x="994.3873016283" y="1232"/>
      <point x="987" y="1224.6126983717"/>
      <point x="987" y="1215.5" type="curve" smooth="yes"/>
      <point x="987" y="1206.3873016283"/>
      <point x="994.3873016283" y="1199"/>
      <point x="1003.5" y="1199" type="curve" smooth="yes"/>
      <point x="1012.6126983717" y="1199"/>
      <point x="1020" y="1206.3873016283"/>
    </contour>
    <contour>
      <point x="1204" y="1219.5" type="curve" smooth="yes"/>
      <point x="1204" y="1228.0604136219"/>
      <point x="1198.1797017474" y="1235"/>
      <point x="1191" y="1235" type="curve" smooth="yes"/>
      <point x="1183.8202982526" y="1235"/>
      <point x="1178" y="1228.0604136219"/>
      <point x="1178" y="1219.5" type="curve" smooth="yes"/>
      <point x="1178" y="1210.9395863781"/>
      <point x="1183.8202982526" y="1204"/>
      <point x="1191" y="1204" type="curve" smooth="yes"/>
      <point x="1198.1797017474" y="1204"/>
      <point x="1204" y="1210.9395863781"/>
    </contour>
  </outline>
</glyph>
<glyph name="P" format="2">
  <advance width="2048"/>
  <unicode hex="0050"/>
  <outline>
    <contour>
      <point x="965" y="813" type="curve" smooth="yes"/>
      <point x="965" y="771.0263590152"/>
      <point x="931.8690714852" y="737"/>
      <point x="891" y="737" type="curve" smooth="yes"/>
      <point x="850.1309285148" y="737"/>
      <point x="817" y="771.0263590152"/>
      <point x="817" y="813" type="curve" smooth="yes"/>
      <point x="817" y="854.9736409848"/>
      <point x="850.1309285148" y="889"/>
      <point x="891" y="889" type="curve" smooth="yes"/>
      <point x="931.8690714852" y="889"/>
      <point x="965" y="854.9736409848"/>
    </contour>
    <contour>
      <point x="927" y="812.5" type="curve" smooth="yes"/>
      <point x="927" y="828.7924001191"/>
      <point x="913.7924001191" y="842"/>
      <point x="897.5" y="842" type="curve" smooth="yes"/>
      <point x="881.2075998809" y="842"/>
      <point x="868" y="828.7924001191"/>
      <point x="868" y="812.5" type="curve" smooth="yes"/>
      <point x="868" y="796.2075998809"/>
      <point x="881.2075998809" y="783"/>
      <point x="897.5" y="783" type="curve" smooth="yes"/>
      <point x="913.7924001191" y="783"/>
      <point x="927" y="796.2075998809"/>
    </contour>
    <contour>
      <point x="1372" y="813" type="curve" smooth="yes"/>
      <point x="1372" y="771"/>
      <point x="1339" y="737"/>
      <point x="1298" y="737" type="curve" smooth="yes"/>
      <point x="1257" y="737"/>
      <point x="1224" y="771"/>
      <point x="1224" y="813" type="curve" smooth="yes"/>
      <point x="1224" y="855"/>
      <point x="1257" y="889"/>
      <point x="1298" y="889" type="curve" smooth="yes"/>
      <point x="1339" y="889"/>
      <point x="1372" y="855"/>
    </contour>
    <contour>
      <point x="1334" y="813" type="curve" smooth="yes"/>
      <point x="1334" y="829"/>
      <point x="1321" y="842"/>
      <point x="1305" y="842" type="curve" smooth="yes"/>
      <point x="1288" y="842"/>
      <point x="1275" y="829"/>
      <point x="1275" y="813" type="curve" smooth="yes"/>
      <point x="1275" y="796"/>
      <point x="1288" y="783"/>
      <point x="1305" y="783" type="curve" smooth="yes"/>
      <point x="1321" y="783"/>
      <point x="1334" y="796"/>
    </contour>
    <contour>
      <point x="1464" y="441" type="curve" smooth="yes"/>
      <point x="1464" y="334"/>
      <point x="1301" y="247"/>
      <point x="1099" y="247" type="curve" smooth="yes"/>
      <point x="898" y="247"/>
      <point x="735" y="334"/>
      <point x="735" y="441" type="curve" smooth="yes"/>
      <point x="735" y="548"/>
      <point x="898" y="635"/>
      <point x="1099" y="635" type="curve" smooth="yes"/>
      <point x="1301" y="635"/>
      <point x="1464" y="548"/>
    </contour>
    <contour>
      <point x="1027" y="424.5" type="curve" smooth="yes"/>
      <point x="1027" y="459.0177968625"/>
      <point x="995.4360748609" y="487"/>
      <point x="956.5" y="487" type="curve" smooth="yes"/>
      <point x="917.5639251391" y="487"/>
      <point x="886" y="459.0177968625"/>
      <point x="886" y="424.5" type="curve" smooth="yes"/>
      <point x="886" y="389.9822031375"/>
      <point x="917.5639251391" y="362"/>
      <point x="956.5" y="362" type="curve" smooth="yes"/>
      <point x="995.4360748609" y="362"/>
      <point x="1027" y="389.9822031375"/>
    </contour>
    <contour>
      <point x="1298" y="425" type="curve" smooth="yes"/>
      <point x="1298" y="459"/>
      <point x="1266" y="487"/>
      <point x="1228" y="487" type="curve" smooth="yes"/>
      <point x="1189" y="487"/>
      <point x="1157" y="459"/>
      <point x="1157" y="425" type="curve" smooth="yes"/>
      <point x="1157" y="390"/>
      <point x="1189" y="362"/>
      <point x="1228" y="362" type="curve" smooth="yes"/>
      <point x="1266" y="362"/>
      <point x="1298" y="390"/>
    </contour>
    <contour>
      <point x="1325" y="137" type="curve" smooth="yes"/>
      <point x="1325" y="129"/>
      <point x="1225" y="64"/>
      <point x="1104" y="64" type="curve" smooth="yes"/>
      <point x="984" y="64"/>
      <point x="889" y="129"/>
      <point x="889" y="137" type="curve" smooth="yes"/>
      <point x="889" y="145"/>
      <point x="984" y="96"/>
      <point x="1104" y="96" type="curve" smooth="yes"/>
      <point x="1225" y="96"/>
      <point x="1325" y="145"/>
    </contour>
    <contour>
      <point x="369" y="1441" type="curve"/>
      <point x="506" y="1421"/>
      <point x="780" y="1182"/>
      <point x="714" y="1166" type="curve" smooth="yes"/>
      <point x="611" y="1141"/>
      <point x="466" y="956"/>
      <point x="402" y="878" type="curve" smooth="yes"/>
      <point x="370" y="839"/>
      <point x="330" y="1212"/>
    </contour>
    <contour>
      <point x="1711" y="1498" type="curve"/>
      <point x="1750" y="1269"/>
      <point x="1706" y="915"/>
      <point x="1672" y="952" type="curve" smooth="yes"/>
      <point x="1597" y="1033"/>
      <point x="1402" y="1186"/>
      <point x="1333" y="1204" type="curve" smooth="yes"/>
      <point x="1268" y="1222"/>
      <point x="1574" y="1478"/>
    </contour>
    <contour>
      <point x="1793" y="612" type="curve" smooth="yes"/>
      <point x="1793" y="718.0590209960938"/>
      <point x="1762.5718994140625" y="817.9675903320312"/>
      <point x="1708.8585205078125" y="905.544189453125" type="curve"/>
      <point x="1754.5123291015625" y="952.8211059570312"/>
      <point x="1790.0635986328125" y="1308.4761962890625"/>
      <point x="1745" y="1572" type="curve"/>
      <point x="1584" y="1549"/>
      <point x="1287" y="1294"/>
      <point x="1277" y="1215" type="curve" smooth="yes"/>
      <point x="1276.905029296875" y="1214.2510986328125"/>
      <point x="1276.85498046875" y="1213.479736328125"/>
      <point x="1276.84912109375" y="1212.6864013671875" type="curve"/>
      <point x="1210.8641357421875" y="1229.8035888671875"/>
      <point x="1140.923095703125" y="1239"/>
      <point x="1068.5" y="1239" type="curve" smooth="yes"/>
      <point x="954.9072265625" y="1239"/>
      <point x="847.4202880859375" y="1216.3760986328125"/>
      <point x="751.7271728515625" y="1176.0509033203125" type="curve"/>
      <point x="720.4644775390625" y="1264.3126220703125"/>
      <point x="491.867919921875" y="1469.1617431640625"/>
      <point x="339" y="1491" type="curve"/>
      <point x="293" y="1222"/>
      <point x="331" y="857"/>
      <point x="378" y="822" type="curve" smooth="yes"/>
      <point x="379.75115966796875" y="820.6968383789062"/>
      <point x="381.9998779296875" y="819.9475708007812"/>
      <point x="384.70208740234375" y="819.714111328125" type="curve"/>
      <point x="358.33746337890625" y="754.70703125"/>
      <point x="344" y="684.8025512695312"/>
      <point x="344" y="612" type="curve" smooth="yes"/>
      <point x="344" y="265.71746826171875"/>
      <point x="668.3696899414062" y="-15"/>
      <point x="1068.5" y="-15" type="curve" smooth="yes"/>
      <point x="1468.6302490234375" y="-15"/>
      <point x="1793" y="265.71746826171875"/>
    </contour>
    <contour>
      <point x="1027" y="1063" type="line"/>
      <point x="1028" y="1063"/>
      <point x="1029" y="1063"/>
      <point x="1030" y="1063" type="curve"/>
      <point x="1033" y="1063"/>
      <point x="1037" y="1062"/>
      <point x="1039" y="1060" type="curve" smooth="yes"/>
      <point x="1042" y="1057"/>
      <point x="1043" y="1054"/>
      <point x="1043" y="1050" type="curve"/>
      <point x="1043" y="1046"/>
      <point x="1042" y="1043"/>
      <point x="1039" y="1041" type="curve" smooth="yes"/>
      <point x="1037" y="1038"/>
      <point x="1033" y="1037"/>
      <point x="1030" y="1037" type="curve"/>
      <point x="1029" y="1037"/>
      <point x="1028" y="1037"/>
      <point x="1027" y="1037" type="curve"/>
    </contour>
    <contour>
      <point x="1027" y="985" type="line"/>
      <point x="1027" y="1018" type="line"/>
      <point x="1027" y="1018"/>
      <point x="1028" y="1018"/>
      <point x="1030" y="1018" type="curve"/>
      <point x="1039" y="1018"/>
      <point x="1046" y="1021"/>
      <point x="1052" y="1027" type="curve" smooth="yes"/>
      <point x="1059" y="1034"/>
      <point x="1062" y="1041"/>
      <point x="1062" y="1050" type="curve" smooth="yes"/>
      <point x="1062" y="1059"/>
      <point x="1059" y="1067"/>
      <point x="1052" y="1073" type="curve" smooth="yes"/>
      <point x="1046" y="1079"/>
      <point x="1039" y="1082"/>
      <point x="1030" y="1082" type="curve"/>
      <point x="1028" y="1082"/>
      <point x="1027" y="1082"/>
      <point x="1027" y="1082" type="curve"/>
      <point x="1008" y="1082" type="line"/>
      <point x="1008" y="985" type="line"/>
    </contour>
    <contour>
      <point x="1090" y="1028" type="line"/>
      <point x="1091" y="1029"/>
      <point x="1092" y="1029"/>
      <point x="1093" y="1029" type="curve"/>
      <point x="1097" y="1029"/>
      <point x="1100" y="1027"/>
      <point x="1103" y="1025" type="curve" smooth="yes"/>
      <point x="1105" y="1022"/>
      <point x="1106" y="1019"/>
      <point x="1106" y="1015" type="curve"/>
      <point x="1106" y="1012"/>
      <point x="1105" y="1009"/>
      <point x="1103" y="1006" type="curve" smooth="yes"/>
      <point x="1100" y="1003"/>
      <point x="1097" y="1002"/>
      <point x="1093" y="1002" type="curve"/>
      <point x="1092" y="1002"/>
      <point x="1091" y="1002"/>
      <point x="1090" y="1002" type="curve"/>
    </contour>
    <contour>
      <point x="1090" y="959" type="line"/>
      <point x="1090" y="983" type="line"/>
      <point x="1091" y="983"/>
      <point x="1092" y="983"/>
      <point x="1093" y="983" type="curve"/>
      <point x="1102" y="983"/>
      <point x="1110" y="986"/>
      <point x="1116" y="993" type="curve" smooth="yes"/>
      <point x="1122" y="999"/>
      <point x="1125" y="1007"/>
      <point x="1125" y="1015" type="curve" smooth="yes"/>
      <point x="1125" y="1024"/>
      <point x="1122" y="1032"/>
      <point x="1116" y="1038" type="curve" smooth="yes"/>
      <point x="1110" y="1044"/>
      <point x="1102" y="1048"/>
      <point x="1093" y="1048" type="curve"/>
      <point x="1092" y="1048"/>
      <point x="1091" y="1048"/>
      <point x="1090" y="1047" type="curve"/>
      <point x="1071" y="1047" type="line"/>
      <point x="1071" y="959" type="line"/>
    </contour>
  </outline>
</glyph>
<glyph name="A.0" format="2">
  <advance width="2048"/>
  <outline>
    <contour>
      <point x="454" y="1003" type="line"/>
      <point x="448" y="1024" type="line"/>
      <point x="441" y="1003" type="line"/>
    </contour>
    <contour>
      <point x="472" y="957" type="line"/>
      <point x="461" y="986" type="line"/>
      <point x="461" y="986" type="line"/>
      <point x="436" y="986" type="line"/>
      <point x="429" y="957" type="line"/>
      <point x="410" y="957" type="line"/>
      <point x="437" y="1054" type="line"/>
      <point x="456" y="1054" type="line"/>
      <point x="491" y="957" type="line"/>
    </contour>
    <contour>
      <point x="540" y="997" type="line"/>
      <point x="539" y="998"/>
      <point x="538" y="998"/>
      <point x="537" y="998" type="curve"/>
      <point x="534" y="998"/>
      <point x="530" y="996"/>
      <point x="528" y="994" type="curve" smooth="yes"/>
      <point x="525" y="991"/>
      <point x="524" y="988"/>
      <point x="524" y="984" type="curve"/>
      <point x="524" y="981"/>
      <point x="525" y="977"/>
      <point x="528" y="975" type="curve" smooth="yes"/>
      <point x="530" y="972"/>
      <point x="534" y="971"/>
      <point x="537" y="971" type="curve"/>
      <point x="538" y="971"/>
      <point x="539" y="971"/>
      <point x="540" y="971" type="curve"/>
    </contour>
    <contour>
      <point x="540" y="951" type="line"/>
      <point x="540" y="952" type="line"/>
      <point x="540" y="952"/>
      <point x="539" y="952"/>
      <point x="537" y="952" type="curve"/>
      <point x="528" y="952"/>
      <point x="521" y="955"/>
      <point x="514" y="962" type="curve" smooth="yes"/>
      <point x="508" y="968"/>
      <point x="505" y="975"/>
      <point x="505" y="984" type="curve"/>
      <point x="505" y="993"/>
      <point x="508" y="1001"/>
      <point x="514" y="1007" type="curve" smooth="yes"/>
      <point x="521" y="1013"/>
      <point x="528" y="1016"/>
      <point x="537" y="1016" type="curve"/>
      <point x="539" y="1016"/>
      <point x="540" y="1015"/>
      <point x="540" y="1015" type="curve"/>
      <point x="559" y="1015" type="line"/>
      <point x="559" y="951" type="line"/>
    </contour>
  </outline>
</glyph>
<glyph name="A.1" format="2">
  <advance width="2048"/>
  <outline>
    <contour>
      <point x="1827" y="811" type="curve" smooth="yes"/>
      <point x="1827" y="1153"/>
      <point x="1597" y="1433"/>
      <point x="1315" y="1433" type="curve" smooth="yes"/>
      <point x="1225" y="1433"/>
      <point x="1141" y="1405"/>
      <point x="1068" y="1356" type="curve"/>
      <point x="1193" y="1607" type="line"/>
      <point x="1125" y="1645" type="line"/>
      <point x="973" y="1351" type="line"/>
      <point x="895" y="1394"/>
      <point x="807" y="1419"/>
      <point x="713" y="1419" type="curve" smooth="yes"/>
      <point x="398" y="1419"/>
      <point x="143" y="1143"/>
      <point x="143" y="803" type="curve" smooth="yes"/>
      <point x="143" y="462"/>
      <point x="535" y="187"/>
      <point x="849" y="187" type="curve" smooth="yes"/>
      <point x="909" y="187"/>
      <point x="967" y="197"/>
      <point x="1023" y="215" type="curve"/>
      <point x="1057" y="187"/>
      <point x="1105" y="171"/>
      <point x="1171" y="171" type="curve" smooth="yes"/>
      <point x="1453" y="171"/>
      <point x="1827" y="467"/>
    </contour>
  </outline>
</glyph>
<glyph name="B.1" format="2">
  <advance width="2048"/>
  <outline>
    <contour>
      <point x="1733" y="863" type="curve" smooth="yes"/>
      <point x="1733" y="1259"/>
      <point x="1408" y="1580"/>
      <point x="1008" y="1580" type="curve" smooth="yes"/>
      <point x="607" y="1580"/>
      <point x="283" y="1259"/>
      <point x="283" y="863" type="curve" smooth="yes"/>
      <point x="283" y="467"/>
      <point x="607" y="146"/>
      <point x="1008" y="146" type="curve" smooth="yes"/>
      <point x="1408" y="146"/>
      <point x="1733" y="467"/>
    </contour>
    <contour>
      <point x="1009" y="1582" type="curve"/>
      <point x="1257" y="1426"/>
      <point x="1347" y="1102"/>
      <point x="1347" y="862" type="curve" smooth="yes"/>
      <point x="1347" y="528"/>
      <point x="1341" y="324"/>
      <point x="999" y="142" type="curve"/>
      <point x="649" y="300"/>
      <point x="517" y="556"/>
      <point x="517" y="914" type="curve" smooth="yes"/>
      <point x="517" y="1218"/>
      <point x="741" y="1478"/>
    </contour>
    <contour>
      <point x="1009" y="1576" type="curve"/>
      <point x="1245" y="1428"/>
      <point x="1327" y="1090"/>
      <point x="1327" y="862" type="curve" smooth="yes"/>
      <point x="1327" y="544"/>
      <point x="1327" y="318"/>
      <point x="1001" y="146" type="curve"/>
      <point x="669" y="296"/>
      <point x="537" y="570"/>
      <point x="537" y="912" type="curve" smooth="yes"/>
      <point x="537" y="1200"/>
      <point x="755" y="1478"/>
    </contour>
  </outline>
</glyph>
<glyph name="C.0" format="2">
  <advance width="2048"/>
  <outline>
    <contour>
      <point x="505" y="1313" type="curve"/>
      <point x="507" y="1313"/>
      <point x="510" y="1312"/>
      <point x="512" y="1312" type="curve"/>
      <point x="512" y="1328" type="line"/>
      <point x="509" y="1329"/>
      <point x="507" y="1329"/>
      <point x="505" y="1329" type="curve"/>
      <point x="494" y="1329"/>
      <point x="485" y="1325"/>
      <point x="478" y="1317" type="curve" smooth="yes"/>
      <point x="470" y="1310"/>
      <point x="466" y="1300"/>
      <point x="466" y="1290" type="curve" smooth="yes"/>
      <point x="466" y="1279"/>
      <point x="470" y="1269"/>
      <point x="478" y="1262" type="curve" smooth="yes"/>
      <point x="485" y="1254"/>
      <point x="494" y="1250"/>
      <point x="505" y="1250" type="curve"/>
      <point x="507" y="1250"/>
      <point x="509" y="1250"/>
      <point x="512" y="1251" type="curve"/>
      <point x="512" y="1267" type="line"/>
      <point x="510" y="1266"/>
      <point x="507" y="1266"/>
      <point x="505" y="1266" type="curve"/>
      <point x="498" y="1266"/>
      <point x="493" y="1268"/>
      <point x="488" y="1273" type="curve" smooth="yes"/>
      <point x="484" y="1277"/>
      <point x="482" y="1283"/>
      <point x="482" y="1289" type="curve"/>
      <point x="482" y="1296"/>
      <point x="484" y="1301"/>
      <point x="488" y="1306" type="curve" smooth="yes"/>
      <point x="493" y="1311"/>
      <point x="498" y="1313"/>
    </contour>
    <contour>
      <point x="545" y="1252" type="line"/>
      <point x="544" y="1252"/>
      <point x="543" y="1252"/>
      <point x="542" y="1252" type="curve"/>
      <point x="535" y="1252"/>
      <point x="529" y="1254"/>
      <point x="524" y="1259" type="curve" smooth="yes"/>
      <point x="519" y="1264"/>
      <point x="516" y="1270"/>
      <point x="516" y="1278" type="curve" smooth="yes"/>
      <point x="516" y="1285"/>
      <point x="519" y="1291"/>
      <point x="524" y="1296" type="curve" smooth="yes"/>
      <point x="529" y="1301"/>
      <point x="535" y="1303"/>
      <point x="542" y="1303" type="curve"/>
      <point x="543" y="1303"/>
      <point x="544" y="1303"/>
      <point x="545" y="1303" type="curve"/>
      <point x="545" y="1288" type="line"/>
      <point x="544" y="1288"/>
      <point x="543" y="1288"/>
      <point x="542" y="1288" type="curve"/>
      <point x="539" y="1288"/>
      <point x="537" y="1287"/>
      <point x="534" y="1285" type="curve" smooth="yes"/>
      <point x="532" y="1283"/>
      <point x="531" y="1281"/>
      <point x="531" y="1278" type="curve"/>
      <point x="531" y="1275"/>
      <point x="532" y="1272"/>
      <point x="534" y="1270" type="curve" smooth="yes"/>
      <point x="537" y="1268"/>
      <point x="539" y="1267"/>
      <point x="542" y="1267" type="curve"/>
      <point x="543" y="1267"/>
      <point x="544" y="1267"/>
      <point x="545" y="1267" type="curve"/>
    </contour>
  </outline>
</glyph>
<glyph name="C.1" format="2">
  <advance width="2048"/>
  <outline>
    <contour>
      <point x="979" y="409" type="curve" smooth="yes"/>
      <point x="1021" y="436"/>
      <point x="1080" y="441"/>
      <point x="1134" y="414" type="curve" smooth="yes"/>
      <point x="1156" y="400"/>
      <point x="1159" y="397"/>
      <point x="1155" y="373" type="curve" smooth="yes"/>
      <point x="1143" y="330"/>
      <point x="1114" y="294"/>
      <point x="1078" y="274" type="curve" smooth="yes"/>
      <point x="1065" y="265"/>
      <point x="1057" y="265"/>
      <point x="1047" y="271" type="curve" smooth="yes"/>
      <point x="1008" y="292"/>
      <point x="979" y="333"/>
      <point x="970" y="373" type="curve" smooth="yes"/>
      <point x="963" y="396"/>
      <point x="966" y="400"/>
    </contour>
    <contour>
      <point x="1107" y="387" type="curve" smooth="yes"/>
      <point x="1089" y="393"/>
      <point x="1062" y="400"/>
      <point x="1038" y="393" type="curve" smooth="yes"/>
      <point x="1024" y="391"/>
      <point x="1003" y="384"/>
      <point x="1003" y="382" type="curve" smooth="yes"/>
      <point x="1003" y="361"/>
      <point x="1047" y="294"/>
      <point x="1066" y="307" type="curve" smooth="yes"/>
      <point x="1078" y="316"/>
      <point x="1138" y="373"/>
    </contour>
    <contour>
      <point x="1273" y="672" type="curve" smooth="yes"/>
      <point x="1318" y="703"/>
      <point x="1381" y="729"/>
      <point x="1458" y="711" type="curve" smooth="yes"/>
      <point x="1479" y="706"/>
      <point x="1507" y="693"/>
      <point x="1524" y="684" type="curve" smooth="yes"/>
      <point x="1557" y="663"/>
      <point x="1596" y="625"/>
      <point x="1596" y="612" type="curve" smooth="yes"/>
      <point x="1596" y="604"/>
      <point x="1591" y="595"/>
      <point x="1584" y="594" type="curve" smooth="yes"/>
      <point x="1575" y="591"/>
      <point x="1569" y="594"/>
      <point x="1552" y="612" type="curve" smooth="yes"/>
      <point x="1498" y="676"/>
      <point x="1386" y="708"/>
      <point x="1296" y="645" type="curve" smooth="yes"/>
      <point x="1281" y="634"/>
      <point x="1254" y="607"/>
      <point x="1245" y="594" type="curve" smooth="yes"/>
      <point x="1236" y="577"/>
      <point x="1209" y="571"/>
      <point x="1209" y="595" type="curve" smooth="yes"/>
      <point x="1209" y="609"/>
      <point x="1242" y="649"/>
    </contour>
    <contour>
      <point x="598" y="684" type="curve" smooth="yes"/>
      <point x="670" y="729"/>
      <point x="781" y="721"/>
      <point x="849" y="672" type="curve" smooth="yes"/>
      <point x="880" y="649"/>
      <point x="913" y="609"/>
      <point x="913" y="595" type="curve" smooth="yes"/>
      <point x="913" y="567"/>
      <point x="886" y="580"/>
      <point x="876" y="595" type="curve" smooth="yes"/>
      <point x="841" y="648"/>
      <point x="763" y="690"/>
      <point x="687" y="679" type="curve" smooth="yes"/>
      <point x="639" y="670"/>
      <point x="601" y="648"/>
      <point x="570" y="612" type="curve" smooth="yes"/>
      <point x="553" y="594"/>
      <point x="549" y="591"/>
      <point x="538" y="594" type="curve" smooth="yes"/>
      <point x="534" y="595"/>
      <point x="526" y="604"/>
      <point x="526" y="612" type="curve" smooth="yes"/>
      <point x="526" y="625"/>
      <point x="565" y="663"/>
    </contour>
    <contour>
      <point x="288" y="900" type="curve"/>
      <point x="255" y="823"/>
      <point x="228" y="729"/>
      <point x="228" y="621" type="curve" smooth="yes"/>
      <point x="228" y="519"/>
      <point x="387" y="-12"/>
      <point x="862" y="-113" type="curve" smooth="yes"/>
      <point x="912" y="-125"/>
      <point x="993" y="-138"/>
      <point x="1062" y="-138" type="curve" smooth="yes"/>
      <point x="1732" y="-138"/>
      <point x="1945" y="585"/>
      <point x="1870" y="816" type="curve" smooth="yes"/>
      <point x="1866" y="829"/>
      <point x="1861" y="846"/>
      <point x="1861" y="846" type="curve" smooth="yes"/>
      <point x="1857" y="846"/>
      <point x="1840" y="892"/>
      <point x="1839" y="900" type="curve"/>
      <point x="1848" y="931" type="line" smooth="yes"/>
      <point x="1899" y="1108"/>
      <point x="1854" y="1291"/>
      <point x="1771" y="1419" type="curve" smooth="yes"/>
      <point x="1750" y="1450"/>
      <point x="1759" y="1441"/>
      <point x="1728" y="1440" type="curve" smooth="yes"/>
      <point x="1551" y="1419"/>
      <point x="1420" y="1314"/>
      <point x="1348" y="1171" type="curve" smooth="yes"/>
      <point x="1336" y="1149"/>
      <point x="1335" y="1161"/>
      <point x="1305" y="1171" type="curve" smooth="yes"/>
      <point x="1147" y="1234"/>
      <point x="979" y="1234"/>
      <point x="819" y="1171" type="curve" smooth="yes"/>
      <point x="786" y="1158"/>
      <point x="790" y="1149"/>
      <point x="774" y="1176" type="curve" smooth="yes"/>
      <point x="705" y="1309"/>
      <point x="567" y="1419"/>
      <point x="399" y="1440" type="curve" smooth="yes"/>
      <point x="367" y="1441"/>
      <point x="376" y="1450"/>
      <point x="355" y="1419" type="curve" smooth="yes"/>
      <point x="250" y="1261"/>
      <point x="240" y="1096"/>
      <point x="282" y="918" type="curve"/>
      <point x="282" y="918"/>
      <point x="286" y="901"/>
    </contour>
    <contour>
      <point x="408" y="351" type="line"/>
      <point x="808" y="351" type="line"/>
      <point x="808" y="333" type="line"/>
      <point x="409" y="325" type="line"/>
    </contour>
    <contour>
      <point x="459" y="150" type="line"/>
      <point x="813" y="256" type="line"/>
      <point x="813" y="238" type="line"/>
      <point x="466" y="130" type="line"/>
    </contour>
    <contour>
      <point x="279" y="517" type="line"/>
      <point x="813" y="445" type="line"/>
      <point x="813" y="427" type="line"/>
      <point x="279" y="499" type="line"/>
    </contour>
    <contour>
      <point x="1681" y="351" type="line"/>
      <point x="1678" y="325" type="line"/>
      <point x="1281" y="333" type="line"/>
      <point x="1281" y="351" type="line"/>
    </contour>
    <contour>
      <point x="1629" y="150" type="line"/>
      <point x="1623" y="130" type="line"/>
      <point x="1276" y="238" type="line"/>
      <point x="1276" y="256" type="line"/>
    </contour>
    <contour>
      <point x="1809" y="517" type="line"/>
      <point x="1809" y="499" type="line"/>
      <point x="1276" y="427" type="line"/>
      <point x="1276" y="445" type="line"/>
    </contour>
  </outline>
</glyph>
<glyph name="D.0" format="2">
  <advance width="2048"/>
  <outline>
    <contour>
      <point x="611" y="839" type="curve"/>
      <point x="611" y="872" type="line"/>
      <point x="610" y="873"/>
      <point x="609" y="873"/>
      <point x="607" y="873" type="curve"/>
      <point x="602" y="873"/>
      <point x="598" y="871"/>
      <point x="595" y="868" type="curve" smooth="yes"/>
      <point x="592" y="865"/>
      <point x="590" y="860"/>
      <point x="590" y="855" type="curve"/>
      <point x="590" y="851"/>
      <point x="592" y="847"/>
      <point x="595" y="843" type="curve" smooth="yes"/>
      <point x="598" y="840"/>
      <point x="602" y="839"/>
      <point x="607" y="839" type="curve"/>
      <point x="609" y="839"/>
      <point x="610" y="839"/>
    </contour>
    <contour>
      <point x="611" y="939" type="line"/>
      <point x="636" y="939" type="line"/>
      <point x="636" y="815" type="line"/>
      <point x="611" y="815" type="line"/>
      <point x="610" y="815"/>
      <point x="609" y="815"/>
      <point x="607" y="815" type="curve"/>
      <point x="596" y="815"/>
      <point x="586" y="819"/>
      <point x="578" y="827" type="curve" smooth="yes"/>
      <point x="570" y="835"/>
      <point x="566" y="844"/>
      <point x="566" y="855" type="curve" smooth="yes"/>
      <point x="566" y="867"/>
      <point x="570" y="877"/>
      <point x="578" y="885" type="curve" smooth="yes"/>
      <point x="586" y="893"/>
      <point x="596" y="897"/>
      <point x="607" y="897" type="curve"/>
      <point x="609" y="897"/>
      <point x="610" y="897"/>
      <point x="611" y="897" type="curve"/>
    </contour>
    <contour>
      <point x="611" y="839" type="curve"/>
      <point x="611" y="872" type="line"/>
      <point x="610" y="873"/>
      <point x="609" y="873"/>
      <point x="607" y="873" type="curve"/>
      <point x="602" y="873"/>
      <point x="598" y="871"/>
      <point x="595" y="868" type="curve" smooth="yes"/>
      <point x="592" y="865"/>
      <point x="590" y="860"/>
      <point x="590" y="855" type="curve"/>
      <point x="590" y="851"/>
      <point x="592" y="847"/>
      <point x="595" y="843" type="curve" smooth="yes"/>
      <point x="598" y="840"/>
      <point x="602" y="839"/>
      <point x="607" y="839" type="curve"/>
      <point x="609" y="839"/>
      <point x="610" y="839"/>
    </contour>
    <contour>
      <point x="611" y="939" type="line"/>
      <point x="636" y="939" type="line"/>
      <point x="636" y="815" type="line"/>
      <point x="611" y="815" type="line"/>
      <point x="610" y="815"/>
      <point x="609" y="815"/>
      <point x="607" y="815" type="curve"/>
      <point x="596" y="815"/>
      <point x="586" y="819"/>
      <point x="578" y="827" type="curve" smooth="yes"/>
      <point x="570" y="835"/>
      <point x="566" y="844"/>
      <point x="566" y="855" type="curve" smooth="yes"/>
      <point x="566" y="867"/>
      <point x="570" y="877"/>
      <point x="578" y="885" type="curve" smooth="yes"/>
      <point x="586" y="893"/>
      <point x="596" y="897"/>
      <point x="607" y="897" type="curve"/>
      <point x="609" y="897"/>
      <point x="610" y="897"/>
      <point x="611" y="897" type="curve"/>
    </contour>
    <contour>
      <point x="611" y="839" type="curve"/>
      <point x="611" y="872" type="line"/>
      <point x="610" y="873"/>
      <point x="609" y="873"/>
      <point x="607" y="873" type="curve"/>
      <point x="602" y="873"/>
      <point x="598" y="871"/>
      <point x="595" y="868" type="curve" smooth="yes"/>
      <point x="592" y="865"/>
      <point x="590" y="860"/>
      <point x="590" y="855" type="curve"/>
      <point x="590" y="851"/>
      <point x="592" y="847"/>
      <point x="595" y="843" type="curve" smooth="yes"/>
      <point x="598" y="840"/>
      <point x="602" y="839"/>
      <point x="607" y="839" type="curve"/>
      <point x="609" y="839"/>
      <point x="610" y="839"/>
    </contour>
    <contour>
      <point x="611" y="939" type="line"/>
      <point x="636" y="939" type="line"/>
      <point x="636" y="815" type="line"/>
      <point x="611" y="815" type="line"/>
      <point x="610" y="815"/>
      <point x="609" y="815"/>
      <point x="607" y="815" type="curve"/>
      <point x="596" y="815"/>
      <point x="586" y="819"/>
      <point x="578" y="827" type="curve" smooth="yes"/>
      <point x="570" y="835"/>
      <point x="566" y="844"/>
      <point x="566" y="855" type="curve" smooth="yes"/>
      <point x="566" y="867"/>
      <point x="570" y="877"/>
      <point x="578" y="885" type="curve" smooth="yes"/>
      <point x="586" y="893"/>
      <point x="596" y="897"/>
      <point x="607" y="897" type="curve"/>
      <point x="609" y="897"/>
      <point x="610" y="897"/>
      <point x="611" y="897" type="curve"/>
    </contour>
    <contour>
      <point x="493" y="832" type="line"/>
      <point x="502" y="833"/>
      <point x="511" y="836"/>
      <point x="518" y="844" type="curve" smooth="yes"/>
      <point x="525" y="851"/>
      <point x="529" y="860"/>
      <point x="529" y="870" type="curve"/>
      <point x="529" y="880"/>
      <point x="525" y="889"/>
      <point x="518" y="896" type="curve" smooth="yes"/>
      <point x="511" y="903"/>
      <point x="502" y="907"/>
      <point x="493" y="907" type="curve"/>
    </contour>
    <contour>
      <point x="468" y="932" type="line"/>
      <point x="470" y="932"/>
      <point x="474" y="932"/>
      <point x="480" y="932" type="curve" smooth="yes"/>
      <point x="486" y="933"/>
      <point x="490" y="933"/>
      <point x="492" y="933" type="curve"/>
      <point x="509" y="933"/>
      <point x="523" y="927"/>
      <point x="535" y="915" type="curve" smooth="yes"/>
      <point x="547" y="903"/>
      <point x="553" y="888"/>
      <point x="553" y="871" type="curve"/>
      <point x="553" y="859"/>
      <point x="550" y="848"/>
      <point x="545" y="839" type="curve" smooth="yes"/>
      <point x="539" y="829"/>
      <point x="532" y="822"/>
      <point x="523" y="816" type="curve" smooth="yes"/>
      <point x="514" y="811"/>
      <point x="503" y="807"/>
      <point x="493" y="807" type="curve"/>
      <point x="468" y="807" type="line"/>
    </contour>
  </outline>
</glyph>
<glyph name="D.1" format="2">
  <advance width="2048"/>
  <outline>
    <contour>
      <point x="497" y="1362" type="curve" smooth="yes"/>
      <point x="497" y="1378"/>
      <point x="483" y="1390"/>
      <point x="467" y="1390" type="curve" smooth="yes"/>
      <point x="451" y="1390"/>
      <point x="437" y="1378"/>
      <point x="437" y="1362" type="curve" smooth="yes"/>
      <point x="437" y="1346"/>
      <point x="451" y="1334"/>
      <point x="467" y="1334" type="curve" smooth="yes"/>
      <point x="483" y="1334"/>
      <point x="497" y="1346"/>
    </contour>
    <contour>
      <point x="474" y="1470" type="curve" smooth="yes"/>
      <point x="486" y="1472"/>
      <point x="549" y="1472"/>
      <point x="563" y="1471" type="curve" smooth="yes"/>
      <point x="577" y="1470"/>
      <point x="595" y="1467"/>
      <point x="606" y="1465" type="curve" smooth="yes"/>
      <point x="614" y="1463"/>
      <point x="632" y="1458"/>
      <point x="632" y="1457" type="curve"/>
      <point x="632" y="1457"/>
      <point x="626" y="1457"/>
      <point x="618" y="1457" type="curve" smooth="yes"/>
      <point x="606" y="1457"/>
      <point x="603" y="1457"/>
      <point x="596" y="1454" type="curve" smooth="yes"/>
      <point x="575" y="1447"/>
      <point x="559" y="1432"/>
      <point x="558" y="1417" type="curve" smooth="yes"/>
      <point x="557" y="1410"/>
      <point x="559" y="1406"/>
      <point x="564" y="1399" type="curve" smooth="yes"/>
      <point x="572" y="1389"/>
      <point x="573" y="1384"/>
      <point x="573" y="1365" type="curve" smooth="yes"/>
      <point x="573" y="1352"/>
      <point x="572" y="1347"/>
      <point x="570" y="1339" type="curve" smooth="yes"/>
      <point x="565" y="1319"/>
      <point x="559" y="1301"/>
      <point x="543" y="1264" type="curve" smooth="yes"/>
      <point x="537" y="1251"/>
      <point x="532" y="1239"/>
      <point x="532" y="1235" type="curve" smooth="yes"/>
      <point x="530" y="1225"/>
      <point x="530" y="1193"/>
      <point x="532" y="1175" type="curve" smooth="yes"/>
      <point x="538" y="1126"/>
      <point x="549" y="1086"/>
      <point x="560" y="1078" type="curve" smooth="yes"/>
      <point x="565" y="1075"/>
      <point x="569" y="1076"/>
      <point x="573" y="1081" type="curve" smooth="yes"/>
      <point x="584" y="1095"/>
      <point x="593" y="1101"/>
      <point x="621" y="1111" type="curve" smooth="yes"/>
      <point x="652" y="1122"/>
      <point x="661" y="1128"/>
      <point x="671" y="1143" type="curve" smooth="yes"/>
      <point x="677" y="1152"/>
      <point x="689" y="1164"/>
      <point x="726" y="1200" type="curve" smooth="yes"/>
      <point x="736" y="1210"/>
      <point x="746" y="1220"/>
      <point x="748" y="1223" type="curve" smooth="yes"/>
      <point x="751" y="1226"/>
      <point x="753" y="1229"/>
      <point x="754" y="1229" type="curve" smooth="yes"/>
      <point x="754" y="1229"/>
      <point x="756" y="1224"/>
      <point x="758" y="1216" type="curve" smooth="yes"/>
      <point x="764" y="1196"/>
      <point x="774" y="1167"/>
      <point x="779" y="1156" type="curve" smooth="yes"/>
      <point x="789" y="1130"/>
      <point x="794" y="1120"/>
      <point x="817" y="1090" type="curve" smooth="yes"/>
      <point x="842" y="1056"/>
      <point x="854" y="1042"/>
      <point x="891" y="1004" type="curve" smooth="yes"/>
      <point x="947" y="946"/>
      <point x="962" y="926"/>
      <point x="1019" y="832" type="curve" smooth="yes"/>
      <point x="1054" y="773"/>
      <point x="1070" y="749"/>
      <point x="1105" y="702" type="curve" smooth="yes"/>
      <point x="1136" y="659"/>
      <point x="1177" y="608"/>
      <point x="1244" y="526" type="curve" smooth="yes"/>
      <point x="1267" y="498"/>
      <point x="1291" y="469"/>
      <point x="1296" y="461" type="curve" smooth="yes"/>
      <point x="1326" y="422"/>
      <point x="1347" y="383"/>
      <point x="1361" y="345" type="curve" smooth="yes"/>
      <point x="1384" y="281"/>
      <point x="1389" y="220"/>
      <point x="1375" y="151" type="curve" smooth="yes"/>
      <point x="1372" y="137" type="line"/>
      <point x="1375" y="131" type="line" smooth="yes"/>
      <point x="1387" y="112"/>
      <point x="1407" y="88"/>
      <point x="1425" y="69" type="curve" smooth="yes"/>
      <point x="1450" y="45"/>
      <point x="1471" y="31"/>
      <point x="1493" y="26" type="curve" smooth="yes"/>
      <point x="1501" y="25"/>
      <point x="1521" y="23"/>
      <point x="1562" y="22" type="curve" smooth="yes"/>
      <point x="1584" y="21"/>
      <point x="1609" y="20"/>
      <point x="1619" y="19" type="curve" smooth="yes"/>
      <point x="1734" y="12"/>
      <point x="1808" y="31"/>
      <point x="1849" y="3" type="curve" smooth="yes"/>
      <point x="1857" y="-2"/>
      <point x="1866" y="-10"/>
      <point x="1866" y="-11" type="curve" smooth="yes"/>
      <point x="1866" y="-12"/>
      <point x="1861" y="-13"/>
      <point x="1855" y="-14" type="curve" smooth="yes"/>
      <point x="1821" y="-18"/>
      <point x="1786" y="-59"/>
      <point x="1732" y="-70" type="curve" smooth="yes"/>
      <point x="1719" y="-73" type="line"/>
      <point x="1717" y="-71" type="line" smooth="yes"/>
      <point x="1712" y="-67"/>
      <point x="1708" y="-66"/>
      <point x="1683" y="-67" type="curve" smooth="yes"/>
      <point x="1648" y="-68"/>
      <point x="1627" y="-71"/>
      <point x="1604" y="-80" type="curve" smooth="yes"/>
      <point x="1583" y="-88"/>
      <point x="1578" y="-89"/>
      <point x="1549" y="-89" type="curve" smooth="yes"/>
      <point x="1523" y="-89"/>
      <point x="1500" y="-87"/>
      <point x="1461" y="-81" type="curve" smooth="yes"/>
      <point x="1419" y="-75"/>
      <point x="1399" y="-70"/>
      <point x="1358" y="-55" type="curve" smooth="yes"/>
      <point x="1347" y="-51"/>
      <point x="1328" y="-44"/>
      <point x="1316" y="-40" type="curve" smooth="yes"/>
      <point x="1279" y="-27"/>
      <point x="1271" y="-22"/>
      <point x="1262" y="-6" type="curve" smooth="yes"/>
      <point x="1257" y="3"/>
      <point x="1255" y="5"/>
      <point x="1248" y="4" type="curve" smooth="yes"/>
      <point x="1244" y="2"/>
      <point x="1242" y="1"/>
      <point x="1226" y="-9" type="curve" smooth="yes"/>
      <point x="1180" y="-40"/>
      <point x="1146" y="-52"/>
      <point x="1098" y="-56" type="curve" smooth="yes"/>
      <point x="1081" y="-57"/>
      <point x="1066" y="-57"/>
      <point x="1041" y="-54" type="curve" smooth="yes"/>
      <point x="981" y="-48"/>
      <point x="936" y="-39"/>
      <point x="914" y="-28" type="curve" smooth="yes"/>
      <point x="908" y="-25"/>
      <point x="897" y="-17"/>
      <point x="897" y="-16" type="curve" smooth="yes"/>
      <point x="897" y="-15"/>
      <point x="899" y="-14"/>
      <point x="901" y="-13" type="curve" smooth="yes"/>
      <point x="906" y="-12"/>
      <point x="913" y="-4"/>
      <point x="913" y="1" type="curve" smooth="yes"/>
      <point x="914" y="6"/>
      <point x="912" y="12"/>
      <point x="909" y="16" type="curve" smooth="yes"/>
      <point x="902" y="24"/>
      <point x="893" y="23"/>
      <point x="888" y="13" type="curve" smooth="yes"/>
      <point x="886" y="9"/>
      <point x="885" y="7"/>
      <point x="885" y="-1" type="curve" smooth="yes"/>
      <point x="885" y="-10" type="line"/>
      <point x="870" y="-10" type="line" smooth="yes"/>
      <point x="847" y="-10"/>
      <point x="835" y="-8"/>
      <point x="829" y="-3" type="curve" smooth="yes"/>
      <point x="827" y="0"/>
      <point x="826" y="1"/>
      <point x="827" y="4" type="curve" smooth="yes"/>
      <point x="828" y="10"/>
      <point x="834" y="19"/>
      <point x="849" y="39" type="curve" smooth="yes"/>
      <point x="865" y="61"/>
      <point x="871" y="67"/>
      <point x="876" y="70" type="curve" smooth="yes"/>
      <point x="879" y="72"/>
      <point x="879" y="72"/>
      <point x="886" y="68" type="curve" smooth="yes"/>
      <point x="897" y="62"/>
      <point x="919" y="56"/>
      <point x="967" y="47" type="curve" smooth="yes"/>
      <point x="983" y="44"/>
      <point x="998" y="41"/>
      <point x="1001" y="40" type="curve" smooth="yes"/>
      <point x="1003" y="40"/>
      <point x="1013" y="37"/>
      <point x="1022" y="34" type="curve" smooth="yes"/>
      <point x="1050" y="24"/>
      <point x="1077" y="17"/>
      <point x="1087" y="17" type="curve" smooth="yes"/>
      <point x="1094" y="17"/>
      <point x="1098" y="24"/>
      <point x="1093" y="30" type="curve" smooth="yes"/>
      <point x="1091" y="32"/>
      <point x="1087" y="33"/>
      <point x="1051" y="39" type="curve" smooth="yes"/>
      <point x="1010" y="46" type="line"/>
      <point x="989" y="55" type="line" smooth="yes"/>
      <point x="935" y="76"/>
      <point x="912" y="82"/>
      <point x="891" y="81" type="curve" smooth="yes"/>
      <point x="881" y="81" type="line"/>
      <point x="877" y="85" type="line" smooth="yes"/>
      <point x="871" y="92"/>
      <point x="863" y="108"/>
      <point x="847" y="141" type="curve" smooth="yes"/>
      <point x="821" y="195"/>
      <point x="811" y="216"/>
      <point x="797" y="236" type="curve" smooth="yes"/>
      <point x="777" y="266"/>
      <point x="755" y="287"/>
      <point x="733" y="296" type="curve" smooth="yes"/>
      <point x="728" y="298"/>
      <point x="724" y="299"/>
      <point x="718" y="299" type="curve" smooth="yes"/>
      <point x="711" y="299"/>
      <point x="710" y="298"/>
      <point x="707" y="296" type="curve" smooth="yes"/>
      <point x="704" y="294"/>
      <point x="702" y="291"/>
      <point x="700" y="287" type="curve" smooth="yes"/>
      <point x="698" y="281"/>
      <point x="698" y="279"/>
      <point x="697" y="241" type="curve" smooth="yes"/>
      <point x="696" y="196"/>
      <point x="696" y="188"/>
      <point x="689" y="169" type="curve" smooth="yes"/>
      <point x="683" y="150"/>
      <point x="673" y="133"/>
      <point x="657" y="117" type="curve" smooth="yes"/>
      <point x="649" y="110"/>
      <point x="646" y="107"/>
      <point x="637" y="103" type="curve" smooth="yes"/>
      <point x="619" y="93"/>
      <point x="618" y="90"/>
      <point x="616" y="58" type="curve" smooth="yes"/>
      <point x="615" y="46"/>
      <point x="614" y="35"/>
      <point x="613" y="31" type="curve" smooth="yes"/>
      <point x="607" y="6"/>
      <point x="587" y="-4"/>
      <point x="543" y="-4" type="curve" smooth="yes"/>
      <point x="532" y="-4"/>
      <point x="518" y="-5"/>
      <point x="500" y="-7" type="curve" smooth="yes"/>
      <point x="492" y="-7" type="line"/>
      <point x="496" y="-2" type="line" smooth="yes"/>
      <point x="505" y="10"/>
      <point x="505" y="19"/>
      <point x="497" y="23" type="curve" smooth="yes"/>
      <point x="492" y="25"/>
      <point x="489" y="25"/>
      <point x="483" y="23" type="curve" smooth="yes"/>
      <point x="472" y="19"/>
      <point x="465" y="9"/>
      <point x="467" y="1" type="curve" smooth="yes"/>
      <point x="467" y="-1"/>
      <point x="469" y="-4"/>
      <point x="470" y="-6" type="curve" smooth="yes"/>
      <point x="473" y="-10"/>
      <point x="474" y="-10"/>
      <point x="471" y="-11" type="curve" smooth="yes"/>
      <point x="468" y="-13"/>
      <point x="461" y="-13"/>
      <point x="458" y="-11" type="curve" smooth="yes"/>
      <point x="448" y="-5"/>
      <point x="448" y="18"/>
      <point x="458" y="37" type="curve" smooth="yes"/>
      <point x="462" y="46"/>
      <point x="473" y="58"/>
      <point x="481" y="62" type="curve" smooth="yes"/>
      <point x="484" y="64"/>
      <point x="495" y="67"/>
      <point x="505" y="69" type="curve" smooth="yes"/>
      <point x="527" y="75"/>
      <point x="538" y="79"/>
      <point x="548" y="86" type="curve" smooth="yes"/>
      <point x="559" y="93"/>
      <point x="565" y="102"/>
      <point x="569" y="115" type="curve" smooth="yes"/>
      <point x="571" y="123"/>
      <point x="573" y="137"/>
      <point x="578" y="195" type="curve" smooth="yes"/>
      <point x="583" y="249"/>
      <point x="583" y="261"/>
      <point x="583" y="318" type="curve" smooth="yes"/>
      <point x="583" y="372"/>
      <point x="583" y="381"/>
      <point x="579" y="410" type="curve" smooth="yes"/>
      <point x="573" y="454"/>
      <point x="562" y="486"/>
      <point x="545" y="505" type="curve" smooth="yes"/>
      <point x="540" y="511"/>
      <point x="536" y="514"/>
      <point x="526" y="522" type="curve" smooth="yes"/>
      <point x="518" y="528"/>
      <point x="502" y="544"/>
      <point x="496" y="553" type="curve" smooth="yes"/>
      <point x="485" y="568"/>
      <point x="475" y="589"/>
      <point x="469" y="610" type="curve" smooth="yes"/>
      <point x="451" y="667"/>
      <point x="449" y="755"/>
      <point x="463" y="824" type="curve" smooth="yes"/>
      <point x="471" y="862"/>
      <point x="486" y="901"/>
      <point x="502" y="927" type="curve" smooth="yes"/>
      <point x="507" y="934" type="line"/>
      <point x="518" y="934" type="line" smooth="yes"/>
      <point x="532" y="934"/>
      <point x="542" y="936"/>
      <point x="559" y="942" type="curve" smooth="yes"/>
      <point x="588" y="952"/>
      <point x="615" y="970"/>
      <point x="622" y="985" type="curve" smooth="yes"/>
      <point x="625" y="990"/>
      <point x="626" y="1000"/>
      <point x="625" y="1005" type="curve" smooth="yes"/>
      <point x="621" y="1017"/>
      <point x="604" y="1024"/>
      <point x="589" y="1020" type="curve" smooth="yes"/>
      <point x="581" y="1017"/>
      <point x="572" y="1012"/>
      <point x="560" y="1003" type="curve" smooth="yes"/>
      <point x="541" y="988"/>
      <point x="524" y="970"/>
      <point x="510" y="952" type="curve" smooth="yes"/>
      <point x="504" y="944"/>
      <point x="503" y="943"/>
      <point x="501" y="944" type="curve" smooth="yes"/>
      <point x="489" y="946"/>
      <point x="477" y="958"/>
      <point x="471" y="971" type="curve" smooth="yes"/>
      <point x="465" y="983"/>
      <point x="462" y="993"/>
      <point x="459" y="1018" type="curve" smooth="yes"/>
      <point x="450" y="1088"/>
      <point x="437" y="1128"/>
      <point x="414" y="1150" type="curve" smooth="yes"/>
      <point x="402" y="1160"/>
      <point x="394" y="1164"/>
      <point x="372" y="1165" type="curve" smooth="yes"/>
      <point x="344" y="1168"/>
      <point x="332" y="1173"/>
      <point x="304" y="1192" type="curve" smooth="yes"/>
      <point x="282" y="1208"/>
      <point x="274" y="1212"/>
      <point x="255" y="1217" type="curve" smooth="yes"/>
      <point x="243" y="1220"/>
      <point x="235" y="1225"/>
      <point x="227" y="1232" type="curve" smooth="yes"/>
      <point x="212" y="1246"/>
      <point x="203" y="1267"/>
      <point x="201" y="1297" type="curve" smooth="yes"/>
      <point x="200" y="1306" type="line"/>
      <point x="203" y="1305" type="line" smooth="yes"/>
      <point x="210" y="1304"/>
      <point x="216" y="1309"/>
      <point x="221" y="1319" type="curve" smooth="yes"/>
      <point x="224" y="1326"/>
      <point x="225" y="1333"/>
      <point x="224" y="1339" type="curve" smooth="yes"/>
      <point x="223" y="1342"/>
      <point x="222" y="1344"/>
      <point x="223" y="1345" type="curve" smooth="yes"/>
      <point x="223" y="1345"/>
      <point x="228" y="1344"/>
      <point x="235" y="1342" type="curve" smooth="yes"/>
      <point x="241" y="1340"/>
      <point x="249" y="1339"/>
      <point x="252" y="1339" type="curve" smooth="yes"/>
      <point x="268" y="1339"/>
      <point x="273" y="1353"/>
      <point x="264" y="1372" type="curve" smooth="yes"/>
      <point x="261" y="1378"/>
      <point x="257" y="1382"/>
      <point x="251" y="1388" type="curve" smooth="yes"/>
      <point x="247" y="1393"/>
      <point x="244" y="1397"/>
      <point x="244" y="1397" type="curve"/>
      <point x="244" y="1397"/>
      <point x="255" y="1397"/>
      <point x="268" y="1396" type="curve" smooth="yes"/>
      <point x="313" y="1394"/>
      <point x="334" y="1395"/>
      <point x="353" y="1401" type="curve" smooth="yes"/>
      <point x="372" y="1407"/>
      <point x="384" y="1415"/>
      <point x="404" y="1433" type="curve" smooth="yes"/>
      <point x="433" y="1460"/>
      <point x="444" y="1467"/>
    </contour>
    <contour>
      <point x="601" y="1448" type="curve" smooth="yes"/>
      <point x="636" y="1457"/>
      <point x="673" y="1437"/>
      <point x="699" y="1393" type="curve" smooth="yes"/>
      <point x="705" y="1384"/>
      <point x="714" y="1363"/>
      <point x="719" y="1350" type="curve" smooth="yes"/>
      <point x="723" y="1339"/>
      <point x="751" y="1244"/>
      <point x="751" y="1241" type="curve" smooth="yes"/>
      <point x="751" y="1239"/>
      <point x="743" y="1228"/>
      <point x="735" y="1220" type="curve" smooth="yes"/>
      <point x="731" y="1215"/>
      <point x="720" y="1205"/>
      <point x="711" y="1197" type="curve" smooth="yes"/>
      <point x="687" y="1174"/>
      <point x="673" y="1160"/>
      <point x="666" y="1150" type="curve" smooth="yes"/>
      <point x="655" y="1134"/>
      <point x="648" y="1129"/>
      <point x="618" y="1118" type="curve" smooth="yes"/>
      <point x="591" y="1108"/>
      <point x="577" y="1100"/>
      <point x="569" y="1088" type="curve" smooth="yes"/>
      <point x="566" y="1083" type="line"/>
      <point x="563" y="1086" type="line" smooth="yes"/>
      <point x="551" y="1100"/>
      <point x="538" y="1165"/>
      <point x="538" y="1210" type="curve" smooth="yes"/>
      <point x="538" y="1235"/>
      <point x="538" y="1233"/>
      <point x="556" y="1275" type="curve" smooth="yes"/>
      <point x="576" y="1320"/>
      <point x="584" y="1354"/>
      <point x="581" y="1376" type="curve" smooth="yes"/>
      <point x="579" y="1388"/>
      <point x="577" y="1393"/>
      <point x="571" y="1402" type="curve" smooth="yes"/>
      <point x="566" y="1409"/>
      <point x="566" y="1411"/>
      <point x="566" y="1415" type="curve" smooth="yes"/>
      <point x="566" y="1421"/>
      <point x="569" y="1427"/>
      <point x="576" y="1434" type="curve" smooth="yes"/>
      <point x="582" y="1440"/>
      <point x="592" y="1445"/>
    </contour>
    <contour>
      <point x="224" y="1388" type="curve" smooth="yes"/>
      <point x="227" y="1391"/>
      <point x="231" y="1393"/>
      <point x="232" y="1393" type="curve" smooth="yes"/>
      <point x="235" y="1393"/>
      <point x="243" y="1387"/>
      <point x="248" y="1381" type="curve" smooth="yes"/>
      <point x="258" y="1370"/>
      <point x="263" y="1356"/>
      <point x="260" y="1350" type="curve" smooth="yes"/>
      <point x="257" y="1346"/>
      <point x="252" y="1346"/>
      <point x="237" y="1349" type="curve" smooth="yes"/>
      <point x="230" y="1351"/>
      <point x="222" y="1352"/>
      <point x="220" y="1352" type="curve" smooth="yes"/>
      <point x="214" y="1352"/>
      <point x="213" y="1350"/>
      <point x="216" y="1337" type="curve" smooth="yes"/>
      <point x="217" y="1332"/>
      <point x="217" y="1331"/>
      <point x="215" y="1325" type="curve" smooth="yes"/>
      <point x="213" y="1318"/>
      <point x="207" y="1312"/>
      <point x="206" y="1314" type="curve" smooth="yes"/>
      <point x="204" y="1316"/>
      <point x="204" y="1328"/>
      <point x="206" y="1341" type="curve" smooth="yes"/>
      <point x="208" y="1363"/>
      <point x="214" y="1379"/>
    </contour>
    <contour>
      <point x="587" y="1011" type="curve" smooth="yes"/>
      <point x="595" y="1014"/>
      <point x="604" y="1014"/>
      <point x="609" y="1011" type="curve" smooth="yes"/>
      <point x="614" y="1009"/>
      <point x="617" y="1004"/>
      <point x="618" y="999" type="curve" smooth="yes"/>
      <point x="619" y="993"/>
      <point x="614" y="983"/>
      <point x="607" y="977" type="curve" smooth="yes"/>
      <point x="590" y="962"/>
      <point x="563" y="949"/>
      <point x="538" y="944" type="curve" smooth="yes"/>
      <point x="528" y="942"/>
      <point x="513" y="941"/>
      <point x="513" y="943" type="curve" smooth="yes"/>
      <point x="513" y="944"/>
      <point x="527" y="962"/>
      <point x="537" y="972" type="curve" smooth="yes"/>
      <point x="554" y="989"/>
      <point x="576" y="1007"/>
    </contour>
    <contour>
      <point x="896" y="72" type="curve" smooth="yes"/>
      <point x="892" y="74" type="line"/>
      <point x="896" y="74" type="line" smooth="yes"/>
      <point x="903" y="74"/>
      <point x="914" y="72"/>
      <point x="928" y="68" type="curve" smooth="yes"/>
      <point x="942" y="64"/>
      <point x="965" y="56"/>
      <point x="963" y="56" type="curve" smooth="yes"/>
      <point x="960" y="55"/>
      <point x="904" y="68"/>
    </contour>
    <contour>
      <point x="1069" y="28" type="curve"/>
      <point x="1068" y="28"/>
      <point x="1069" y="28"/>
      <point x="1070" y="28" type="curve" smooth="yes"/>
      <point x="1071" y="28"/>
      <point x="1071" y="28"/>
      <point x="1071" y="28" type="curve"/>
      <point x="1070" y="27"/>
      <point x="1069" y="27"/>
    </contour>
    <contour>
      <point x="1074" y="26" type="curve" smooth="yes"/>
      <point x="1072" y="27" type="line"/>
      <point x="1074" y="27" type="line" smooth="yes"/>
      <point x="1078" y="27"/>
      <point x="1086" y="26"/>
      <point x="1087" y="25" type="curve" smooth="yes"/>
      <point x="1088" y="24"/>
      <point x="1078" y="25"/>
    </contour>
    <contour>
      <point x="483" y="14" type="curve" smooth="yes"/>
      <point x="488" y="16"/>
      <point x="494" y="16"/>
      <point x="495" y="14" type="curve" smooth="yes"/>
      <point x="496" y="12"/>
      <point x="492" y="4"/>
      <point x="487" y="-1" type="curve" smooth="yes"/>
      <point x="482" y="-5"/>
      <point x="482" y="-5"/>
      <point x="479" y="-3" type="curve" smooth="yes"/>
      <point x="471" y="0"/>
      <point x="474" y="10"/>
    </contour>
    <contour>
      <point x="895" y="10" type="curve" smooth="yes"/>
      <point x="897" y="15"/>
      <point x="899" y="15"/>
      <point x="903" y="11" type="curve" smooth="yes"/>
      <point x="906" y="8"/>
      <point x="907" y="2"/>
      <point x="904" y="-2" type="curve" smooth="yes"/>
      <point x="902" y="-4"/>
      <point x="894" y="-9"/>
      <point x="893" y="-8" type="curve" smooth="yes"/>
      <point x="892" y="-6"/>
      <point x="893" y="6"/>
    </contour>
    <contour>
      <point x="477" y="1362" type="curve" smooth="yes"/>
      <point x="477" y="1366"/>
      <point x="474" y="1370"/>
      <point x="470" y="1370" type="curve" smooth="yes"/>
      <point x="465" y="1370"/>
      <point x="462" y="1366"/>
      <point x="462" y="1362" type="curve" smooth="yes"/>
      <point x="462" y="1358"/>
      <point x="465" y="1354"/>
      <point x="470" y="1354" type="curve" smooth="yes"/>
      <point x="474" y="1354"/>
      <point x="477" y="1358"/>
    </contour>
  </outline>
</glyph>
<glyph name="E.0" format="2">
  <advance width="2048"/>
  <outline>
    <contour>
      <point x="1119" y="891" type="line"/>
      <point x="1119" y="862" type="line"/>
      <point x="1061" y="862" type="line"/>
      <point x="1061" y="828" type="line"/>
      <point x="1139" y="828" type="line"/>
      <point x="1139" y="799" type="line"/>
      <point x="1033" y="799" type="line"/>
      <point x="1033" y="800" type="line"/>
      <point x="1032" y="800" type="line"/>
      <point x="1032" y="945" type="line"/>
      <point x="1032" y="946" type="line"/>
      <point x="1139" y="946" type="line"/>
      <point x="1139" y="917" type="line"/>
      <point x="1061" y="917" type="line"/>
      <point x="1061" y="891" type="line"/>
    </contour>
    <contour>
      <point x="1174" y="850" type="curve"/>
      <point x="1211" y="850" type="line"/>
      <point x="1210" y="850"/>
      <point x="1209" y="852"/>
      <point x="1207" y="854" type="curve" smooth="yes"/>
      <point x="1205" y="856"/>
      <point x="1203" y="858"/>
      <point x="1202" y="859" type="curve" smooth="yes"/>
      <point x="1201" y="861"/>
      <point x="1200" y="862"/>
      <point x="1198" y="863" type="curve" smooth="yes"/>
      <point x="1196" y="864"/>
      <point x="1194" y="865"/>
      <point x="1192" y="865" type="curve"/>
      <point x="1190" y="865"/>
      <point x="1189" y="864"/>
      <point x="1187" y="863" type="curve" smooth="yes"/>
      <point x="1185" y="862"/>
      <point x="1183" y="861"/>
      <point x="1182" y="860" type="curve" smooth="yes"/>
      <point x="1181" y="858"/>
      <point x="1179" y="857"/>
      <point x="1178" y="854" type="curve" smooth="yes"/>
      <point x="1176" y="852"/>
      <point x="1174" y="851"/>
    </contour>
    <contour>
      <point x="1241" y="843" type="curve"/>
      <point x="1241" y="842"/>
      <point x="1241" y="840"/>
      <point x="1241" y="838" type="curve" smooth="yes"/>
      <point x="1241" y="836"/>
      <point x="1241" y="835"/>
      <point x="1241" y="834" type="curve"/>
      <point x="1175" y="833" type="line"/>
      <point x="1177" y="830"/>
      <point x="1179" y="828"/>
      <point x="1182" y="826" type="curve" smooth="yes"/>
      <point x="1185" y="824"/>
      <point x="1189" y="824"/>
      <point x="1192" y="824" type="curve"/>
      <point x="1196" y="824"/>
      <point x="1205" y="824"/>
      <point x="1218" y="824" type="curve" smooth="yes"/>
      <point x="1231" y="824"/>
      <point x="1238" y="825"/>
      <point x="1239" y="825" type="curve"/>
      <point x="1239" y="796" type="line"/>
      <point x="1236" y="795"/>
      <point x="1221" y="795"/>
      <point x="1192" y="795" type="curve"/>
      <point x="1179" y="795"/>
      <point x="1167" y="800"/>
      <point x="1158" y="809" type="curve" smooth="yes"/>
      <point x="1149" y="819"/>
      <point x="1144" y="830"/>
      <point x="1144" y="843" type="curve" smooth="yes"/>
      <point x="1144" y="857"/>
      <point x="1149" y="868"/>
      <point x="1158" y="878" type="curve" smooth="yes"/>
      <point x="1167" y="887"/>
      <point x="1179" y="892"/>
      <point x="1192" y="892" type="curve" smooth="yes"/>
      <point x="1206" y="892"/>
      <point x="1217" y="887"/>
      <point x="1226" y="878" type="curve" smooth="yes"/>
      <point x="1236" y="868"/>
      <point x="1241" y="857"/>
    </contour>
    <contour>
      <point x="1119" y="891" type="line"/>
      <point x="1119" y="862" type="line"/>
      <point x="1061" y="862" type="line"/>
      <point x="1061" y="828" type="line"/>
      <point x="1139" y="828" type="line"/>
      <point x="1139" y="799" type="line"/>
      <point x="1033" y="799" type="line"/>
      <point x="1033" y="800" type="line"/>
      <point x="1032" y="800" type="line"/>
      <point x="1032" y="945" type="line"/>
      <point x="1032" y="946" type="line"/>
      <point x="1139" y="946" type="line"/>
      <point x="1139" y="917" type="line"/>
      <point x="1061" y="917" type="line"/>
      <point x="1061" y="891" type="line"/>
    </contour>
    <contour>
      <point x="1174" y="850" type="curve"/>
      <point x="1211" y="850" type="line"/>
      <point x="1210" y="850"/>
      <point x="1209" y="852"/>
      <point x="1207" y="854" type="curve" smooth="yes"/>
      <point x="1205" y="856"/>
      <point x="1203" y="858"/>
      <point x="1202" y="859" type="curve" smooth="yes"/>
      <point x="1201" y="861"/>
      <point x="1200" y="862"/>
      <point x="1198" y="863" type="curve" smooth="yes"/>
      <point x="1196" y="864"/>
      <point x="1194" y="865"/>
      <point x="1192" y="865" type="curve"/>
      <point x="1190" y="865"/>
      <point x="1189" y="864"/>
      <point x="1187" y="863" type="curve" smooth="yes"/>
      <point x="1185" y="862"/>
      <point x="1183" y="861"/>
      <point x="1182" y="860" type="curve" smooth="yes"/>
      <point x="1181" y="858"/>
      <point x="1179" y="857"/>
      <point x="1178" y="854" type="curve" smooth="yes"/>
      <point x="1176" y="852"/>
      <point x="1174" y="851"/>
    </contour>
    <contour>
      <point x="1241" y="843" type="curve"/>
      <point x="1241" y="842"/>
      <point x="1241" y="840"/>
      <point x="1241" y="838" type="curve" smooth="yes"/>
      <point x="1241" y="836"/>
      <point x="1241" y="835"/>
      <point x="1241" y="834" type="curve"/>
      <point x="1175" y="833" type="line"/>
      <point x="1177" y="830"/>
      <point x="1179" y="828"/>
      <point x="1182" y="826" type="curve" smooth="yes"/>
      <point x="1185" y="824"/>
      <point x="1189" y="824"/>
      <point x="1192" y="824" type="curve"/>
      <point x="1196" y="824"/>
      <point x="1205" y="824"/>
      <point x="1218" y="824" type="curve" smooth="yes"/>
      <point x="1231" y="824"/>
      <point x="1238" y="825"/>
      <point x="1239" y="825" type="curve"/>
      <point x="1239" y="796" type="line"/>
      <point x="1236" y="795"/>
      <point x="1221" y="795"/>
      <point x="1192" y="795" type="curve"/>
      <point x="1179" y="795"/>
      <point x="1167" y="800"/>
      <point x="1158" y="809" type="curve" smooth="yes"/>
      <point x="1149" y="819"/>
      <point x="1144" y="830"/>
      <point x="1144" y="843" type="curve" smooth="yes"/>
      <point x="1144" y="857"/>
      <point x="1149" y="868"/>
      <point x="1158" y="878" type="curve" smooth="yes"/>
      <point x="1167" y="887"/>
      <point x="1179" y="892"/>
      <point x="1192" y="892" type="curve" smooth="yes"/>
      <point x="1206" y="892"/>
      <point x="1217" y="887"/>
      <point x="1226" y="878" type="curve" smooth="yes"/>
      <point x="1236" y="868"/>
      <point x="1241" y="857"/>
    </contour>
  </outline>
</glyph>
<glyph name="E.1" format="2">
  <advance width="2048"/>
  <outline>
    <contour>
      <point x="1063" y="1467" type="curve" smooth="yes"/>
      <point x="1078" y="1467"/>
      <point x="1116" y="1467"/>
      <point x="1133" y="1464" type="curve" smooth="yes"/>
      <point x="1216" y="1452"/>
      <point x="1296" y="1407"/>
      <point x="1376" y="1329" type="curve" smooth="yes"/>
      <point x="1431" y="1272"/>
      <point x="1483" y="1204"/>
      <point x="1528" y="1127" type="curve" smooth="yes"/>
      <point x="1536" y="1117"/>
      <point x="1541" y="1104"/>
      <point x="1543" y="1099" type="curve" smooth="yes"/>
      <point x="1546" y="1097"/>
      <point x="1551" y="1087"/>
      <point x="1556" y="1079" type="curve" smooth="yes"/>
      <point x="1633" y="934"/>
      <point x="1696" y="764"/>
      <point x="1728" y="609" type="curve" smooth="yes"/>
      <point x="1756" y="472"/>
      <point x="1758" y="369"/>
      <point x="1733" y="267" type="curve" smooth="yes"/>
      <point x="1711" y="162"/>
      <point x="1663" y="64"/>
      <point x="1593" y="-18" type="curve" smooth="yes"/>
      <point x="1576" y="-38"/>
      <point x="1533" y="-78"/>
      <point x="1516" y="-96" type="curve" smooth="yes"/>
      <point x="1428" y="-166"/>
      <point x="1331" y="-213"/>
      <point x="1226" y="-236" type="curve" smooth="yes"/>
      <point x="1051" y="-271"/>
      <point x="873" y="-238"/>
      <point x="728" y="-141" type="curve" smooth="yes"/>
      <point x="651" y="-91"/>
      <point x="581" y="-18"/>
      <point x="533" y="57" type="curve" smooth="yes"/>
      <point x="478" y="144"/>
      <point x="448" y="234"/>
      <point x="436" y="344" type="curve" smooth="yes"/>
      <point x="431" y="374"/>
      <point x="431" y="452"/>
      <point x="436" y="489" type="curve" smooth="yes"/>
      <point x="443" y="559"/>
      <point x="456" y="634"/>
      <point x="476" y="704" type="curve" smooth="yes"/>
      <point x="531" y="907"/>
      <point x="623" y="1102"/>
      <point x="731" y="1242" type="curve" smooth="yes"/>
      <point x="801" y="1332"/>
      <point x="873" y="1397"/>
      <point x="951" y="1434" type="curve" smooth="yes"/>
      <point x="988" y="1452"/>
      <point x="1021" y="1462"/>
    </contour>
    <contour>
      <point x="1063" y="1467" type="curve" smooth="yes"/>
      <point x="1078" y="1467"/>
      <point x="1116" y="1467"/>
      <point x="1133" y="1464" type="curve" smooth="yes"/>
      <point x="1216" y="1452"/>
      <point x="1296" y="1407"/>
      <point x="1376" y="1329" type="curve" smooth="yes"/>
      <point x="1431" y="1272"/>
      <point x="1483" y="1204"/>
      <point x="1528" y="1127" type="curve" smooth="yes"/>
      <point x="1536" y="1117"/>
      <point x="1541" y="1104"/>
      <point x="1543" y="1099" type="curve" smooth="yes"/>
      <point x="1546" y="1097"/>
      <point x="1551" y="1087"/>
      <point x="1556" y="1079" type="curve" smooth="yes"/>
      <point x="1633" y="934"/>
      <point x="1696" y="764"/>
      <point x="1728" y="609" type="curve" smooth="yes"/>
      <point x="1756" y="472"/>
      <point x="1758" y="369"/>
      <point x="1733" y="267" type="curve" smooth="yes"/>
      <point x="1711" y="162"/>
      <point x="1663" y="64"/>
      <point x="1593" y="-18" type="curve" smooth="yes"/>
      <point x="1576" y="-38"/>
      <point x="1533" y="-78"/>
      <point x="1516" y="-96" type="curve" smooth="yes"/>
      <point x="1428" y="-166"/>
      <point x="1331" y="-213"/>
      <point x="1226" y="-236" type="curve" smooth="yes"/>
      <point x="1051" y="-271"/>
      <point x="873" y="-238"/>
      <point x="728" y="-141" type="curve" smooth="yes"/>
      <point x="651" y="-91"/>
      <point x="581" y="-18"/>
      <point x="533" y="57" type="curve" smooth="yes"/>
      <point x="478" y="144"/>
      <point x="448" y="234"/>
      <point x="436" y="344" type="curve" smooth="yes"/>
      <point x="431" y="374"/>
      <point x="431" y="452"/>
      <point x="436" y="489" type="curve" smooth="yes"/>
      <point x="443" y="559"/>
      <point x="456" y="634"/>
      <point x="476" y="704" type="curve" smooth="yes"/>
      <point x="531" y="907"/>
      <point x="623" y="1102"/>
      <point x="731" y="1242" type="curve" smooth="yes"/>
      <point x="801" y="1332"/>
      <point x="873" y="1397"/>
      <point x="951" y="1434" type="curve" smooth="yes"/>
      <point x="988" y="1452"/>
      <point x="1021" y="1462"/>
    </contour>
  </outline>
</glyph>
<glyph name="F.0" format="2">
  <advance width="2048"/>
  <outline>
    <contour>
      <point x="546" y="819" type="line"/>
      <point x="547" y="800" type="line"/>
      <point x="508" y="800" type="line"/>
      <point x="508" y="758" type="line"/>
      <point x="489" y="758" type="line"/>
      <point x="489" y="855" type="line"/>
      <point x="489" y="855" type="line"/>
      <point x="560" y="855" type="line"/>
      <point x="560" y="836" type="line"/>
      <point x="508" y="836" type="line"/>
      <point x="508" y="819" type="line"/>
    </contour>
    <contour>
      <point x="616" y="852" type="curve"/>
      <point x="616" y="831" type="line"/>
      <point x="613" y="833"/>
      <point x="610" y="834"/>
      <point x="607" y="834" type="curve"/>
      <point x="603" y="834"/>
      <point x="599" y="833"/>
      <point x="597" y="830" type="curve"/>
      <point x="597" y="822" type="line"/>
      <point x="609" y="822" type="line"/>
      <point x="609" y="803" type="line"/>
      <point x="597" y="803" type="line"/>
      <point x="597" y="758" type="line"/>
      <point x="576" y="758" type="line"/>
      <point x="576" y="803" type="line"/>
      <point x="564" y="803" type="line"/>
      <point x="564" y="822" type="line"/>
      <point x="576" y="822" type="line"/>
      <point x="576" y="830" type="line"/>
      <point x="578" y="837"/>
      <point x="582" y="842"/>
      <point x="588" y="847" type="curve" smooth="yes"/>
      <point x="593" y="851"/>
      <point x="600" y="853"/>
      <point x="607" y="853" type="curve"/>
      <point x="610" y="853"/>
      <point x="613" y="853"/>
    </contour>
  </outline>
</glyph>
<glyph name="F.1" format="2">
  <advance width="2048"/>
  <outline>
    <contour>
      <point x="1061" y="-8" type="curve" smooth="yes"/>
      <point x="1051" y="-10"/>
      <point x="1044" y="-15"/>
      <point x="1041" y="-23" type="curve" smooth="yes"/>
      <point x="1036" y="-28"/>
      <point x="1036" y="-40"/>
      <point x="1041" y="-45" type="curve" smooth="yes"/>
      <point x="1046" y="-55"/>
      <point x="1054" y="-58"/>
      <point x="1065" y="-60" type="curve" smooth="yes"/>
      <point x="1073" y="-60"/>
      <point x="1075" y="-60"/>
      <point x="1078" y="-58" type="curve" smooth="yes"/>
      <point x="1086" y="-55"/>
      <point x="1091" y="-49"/>
      <point x="1096" y="-44" type="curve" smooth="yes"/>
      <point x="1100" y="-33"/>
      <point x="1096" y="-19"/>
      <point x="1088" y="-15" type="curve" smooth="yes"/>
      <point x="1081" y="-8"/>
      <point x="1069" y="-7"/>
    </contour>
    <contour>
      <point x="1019" y="1429" type="curve" smooth="yes"/>
      <point x="1008" y="1429"/>
      <point x="985" y="1426"/>
      <point x="975" y="1423" type="curve" smooth="yes"/>
      <point x="907" y="1409"/>
      <point x="863" y="1378"/>
      <point x="841" y="1335" type="curve" smooth="yes"/>
      <point x="823" y="1294"/>
      <point x="825" y="1240"/>
      <point x="846" y="1187" type="curve" smooth="yes"/>
      <point x="866" y="1136"/>
      <point x="903" y="1083"/>
      <point x="960" y="1022" type="curve"/>
      <point x="972" y="1011" type="line"/>
      <point x="964" y="1006" type="line" smooth="yes"/>
      <point x="960" y="1001"/>
      <point x="958" y="1000"/>
      <point x="957" y="1000" type="curve" smooth="yes"/>
      <point x="955" y="1000"/>
      <point x="950" y="1000"/>
      <point x="945" y="1000" type="curve" smooth="yes"/>
      <point x="932" y="997"/>
      <point x="905" y="996"/>
      <point x="892" y="997" type="curve" smooth="yes"/>
      <point x="846" y="1001"/>
      <point x="806" y="1018"/>
      <point x="760" y="1048" type="curve" smooth="yes"/>
      <point x="754" y="1051"/>
      <point x="739" y="1062"/>
      <point x="727" y="1070" type="curve" smooth="yes"/>
      <point x="682" y="1100"/>
      <point x="660" y="1111"/>
      <point x="638" y="1111" type="curve" smooth="yes"/>
      <point x="623" y="1111"/>
      <point x="611" y="1109"/>
      <point x="598" y="1100" type="curve" smooth="yes"/>
      <point x="584" y="1092"/>
      <point x="559" y="1074"/>
      <point x="546" y="1059" type="curve" smooth="yes"/>
      <point x="516" y="1026"/>
      <point x="497" y="986"/>
      <point x="489" y="937" type="curve" smooth="yes"/>
      <point x="485" y="922"/>
      <point x="485" y="879"/>
      <point x="489" y="864" type="curve" smooth="yes"/>
      <point x="495" y="819"/>
      <point x="514" y="781"/>
      <point x="539" y="757" type="curve" smooth="yes"/>
      <point x="584" y="711"/>
      <point x="670" y="698"/>
      <point x="762" y="724" type="curve" smooth="yes"/>
      <point x="817" y="741"/>
      <point x="875" y="772"/>
      <point x="943" y="819" type="curve"/>
      <point x="962" y="834" type="line"/>
      <point x="970" y="829" type="line" smooth="yes"/>
      <point x="972" y="826"/>
      <point x="975" y="824"/>
      <point x="975" y="823" type="curve" smooth="yes"/>
      <point x="975" y="823"/>
      <point x="975" y="816"/>
      <point x="977" y="811" type="curve" smooth="yes"/>
      <point x="979" y="798"/>
      <point x="979" y="765"/>
      <point x="977" y="753" type="curve" smooth="yes"/>
      <point x="970" y="720"/>
      <point x="957" y="692"/>
      <point x="932" y="661" type="curve" smooth="yes"/>
      <point x="924" y="650"/>
      <point x="918" y="646"/>
      <point x="890" y="613" type="curve" smooth="yes"/>
      <point x="861" y="580"/>
      <point x="850" y="562"/>
      <point x="850" y="541" type="curve" smooth="yes"/>
      <point x="850" y="521"/>
      <point x="861" y="501"/>
      <point x="892" y="476" type="curve" smooth="yes"/>
      <point x="925" y="444"/>
      <point x="970" y="425"/>
      <point x="1023" y="414" type="curve" smooth="yes"/>
      <point x="1046" y="410"/>
      <point x="1056" y="410"/>
      <point x="1088" y="410" type="curve" smooth="yes"/>
      <point x="1123" y="410"/>
      <point x="1133" y="410"/>
      <point x="1160" y="416" type="curve" smooth="yes"/>
      <point x="1222" y="430"/>
      <point x="1266" y="455"/>
      <point x="1286" y="493" type="curve" smooth="yes"/>
      <point x="1315" y="541"/>
      <point x="1311" y="609"/>
      <point x="1279" y="675" type="curve" smooth="yes"/>
      <point x="1256" y="720"/>
      <point x="1224" y="765"/>
      <point x="1170" y="819" type="curve"/>
      <point x="1165" y="827" type="line"/>
      <point x="1170" y="834" type="line" smooth="yes"/>
      <point x="1174" y="837"/>
      <point x="1175" y="839"/>
      <point x="1178" y="839" type="curve" smooth="yes"/>
      <point x="1180" y="839"/>
      <point x="1185" y="839"/>
      <point x="1189" y="839" type="curve" smooth="yes"/>
      <point x="1207" y="842"/>
      <point x="1234" y="842"/>
      <point x="1249" y="840" type="curve" smooth="yes"/>
      <point x="1288" y="835"/>
      <point x="1325" y="823"/>
      <point x="1365" y="798" type="curve" smooth="yes"/>
      <point x="1370" y="794"/>
      <point x="1388" y="782"/>
      <point x="1399" y="773" type="curve" smooth="yes"/>
      <point x="1439" y="746"/>
      <point x="1454" y="737"/>
      <point x="1474" y="731" type="curve" smooth="yes"/>
      <point x="1494" y="724"/>
      <point x="1514" y="727"/>
      <point x="1533" y="736" type="curve" smooth="yes"/>
      <point x="1548" y="743"/>
      <point x="1571" y="761"/>
      <point x="1586" y="777" type="curve" smooth="yes"/>
      <point x="1615" y="805"/>
      <point x="1633" y="844"/>
      <point x="1643" y="882" type="curve" smooth="yes"/>
      <point x="1649" y="907"/>
      <point x="1650" y="942"/>
      <point x="1647" y="966" type="curve" smooth="yes"/>
      <point x="1641" y="1017"/>
      <point x="1620" y="1062"/>
      <point x="1590" y="1088" type="curve" smooth="yes"/>
      <point x="1571" y="1105"/>
      <point x="1548" y="1117"/>
      <point x="1519" y="1121" type="curve" smooth="yes"/>
      <point x="1457" y="1137"/>
      <point x="1382" y="1124"/>
      <point x="1304" y="1087" type="curve" smooth="yes"/>
      <point x="1266" y="1068"/>
      <point x="1229" y="1046"/>
      <point x="1183" y="1013" type="curve"/>
      <point x="1172" y="1003" type="line"/>
      <point x="1167" y="1009" type="line" smooth="yes"/>
      <point x="1162" y="1013"/>
      <point x="1158" y="1014"/>
      <point x="1160" y="1017" type="curve" smooth="yes"/>
      <point x="1160" y="1017"/>
      <point x="1160" y="1021"/>
      <point x="1158" y="1023" type="curve" smooth="yes"/>
      <point x="1153" y="1050"/>
      <point x="1155" y="1078"/>
      <point x="1162" y="1105" type="curve" smooth="yes"/>
      <point x="1174" y="1139"/>
      <point x="1192" y="1164"/>
      <point x="1231" y="1208" type="curve" smooth="yes"/>
      <point x="1267" y="1250"/>
      <point x="1277" y="1262"/>
      <point x="1283" y="1280" type="curve" smooth="yes"/>
      <point x="1286" y="1290"/>
      <point x="1286" y="1303"/>
      <point x="1283" y="1311" type="curve" smooth="yes"/>
      <point x="1279" y="1327"/>
      <point x="1267" y="1342"/>
      <point x="1249" y="1358" type="curve" smooth="yes"/>
      <point x="1207" y="1398"/>
      <point x="1147" y="1422"/>
      <point x="1081" y="1429" type="curve" smooth="yes"/>
      <point x="1069" y="1430"/>
      <point x="1029" y="1430"/>
    </contour>
    <contour>
      <point x="1083" y="1008" type="curve" smooth="yes"/>
      <point x="1031" y="1014"/>
      <point x="981" y="986"/>
      <point x="967" y="942" type="curve" smooth="yes"/>
      <point x="966" y="934"/>
      <point x="966" y="930"/>
      <point x="966" y="919" type="curve" smooth="yes"/>
      <point x="966" y="907"/>
      <point x="966" y="905"/>
      <point x="967" y="897" type="curve" smooth="yes"/>
      <point x="979" y="862"/>
      <point x="1012" y="837"/>
      <point x="1049" y="831" type="curve" smooth="yes"/>
      <point x="1086" y="826"/>
      <point x="1118" y="835"/>
      <point x="1143" y="859" type="curve" smooth="yes"/>
      <point x="1175" y="889"/>
      <point x="1178" y="937"/>
      <point x="1150" y="972" type="curve" smooth="yes"/>
      <point x="1133" y="992"/>
      <point x="1109" y="1004"/>
    </contour>
    <contour>
      <point x="1034" y="1547" type="curve" smooth="yes"/>
      <point x="1048" y="1549"/>
      <point x="1111" y="1547"/>
      <point x="1126" y="1546" type="curve" smooth="yes"/>
      <point x="1252" y="1537"/>
      <point x="1365" y="1502"/>
      <point x="1466" y="1443" type="curve" smooth="yes"/>
      <point x="1569" y="1382"/>
      <point x="1653" y="1298"/>
      <point x="1708" y="1200" type="curve" smooth="yes"/>
      <point x="1744" y="1137"/>
      <point x="1769" y="1067"/>
      <point x="1779" y="996" type="curve" smooth="yes"/>
      <point x="1784" y="960"/>
      <point x="1784" y="910"/>
      <point x="1783" y="876" type="curve" smooth="yes"/>
      <point x="1773" y="770"/>
      <point x="1739" y="675"/>
      <point x="1675" y="587" type="curve" smooth="yes"/>
      <point x="1622" y="513"/>
      <point x="1549" y="447"/>
      <point x="1466" y="397" type="curve" smooth="yes"/>
      <point x="1403" y="360"/>
      <point x="1336" y="332"/>
      <point x="1259" y="312" type="curve" smooth="yes"/>
      <point x="1244" y="309"/>
      <point x="1210" y="302"/>
      <point x="1197" y="300" type="curve" smooth="yes"/>
      <point x="1192" y="299" type="line"/>
      <point x="1192" y="180" type="line"/>
      <point x="1192" y="60" type="line"/>
      <point x="1299" y="60" type="line" smooth="yes"/>
      <point x="1391" y="60"/>
      <point x="1410" y="59"/>
      <point x="1417" y="59" type="curve" smooth="yes"/>
      <point x="1460" y="52"/>
      <point x="1494" y="22"/>
      <point x="1504" y="-16" type="curve" smooth="yes"/>
      <point x="1506" y="-24"/>
      <point x="1506" y="-29"/>
      <point x="1506" y="-70" type="curve" smooth="yes"/>
      <point x="1506" y="-111"/>
      <point x="1506" y="-114"/>
      <point x="1504" y="-118" type="curve" smooth="yes"/>
      <point x="1502" y="-122"/>
      <point x="1499" y="-126"/>
      <point x="1492" y="-127" type="curve" smooth="yes"/>
      <point x="1491" y="-127"/>
      <point x="1447" y="-127"/>
      <point x="1067" y="-127" type="curve" smooth="yes"/>
      <point x="643" y="-127" type="line"/>
      <point x="640" y="-126" type="line" smooth="yes"/>
      <point x="638" y="-126"/>
      <point x="633" y="-122"/>
      <point x="632" y="-120" type="curve" smooth="yes"/>
      <point x="630" y="-118" type="line"/>
      <point x="630" y="-68" type="line" smooth="yes"/>
      <point x="630" y="-16"/>
      <point x="630" y="-16"/>
      <point x="636" y="0" type="curve" smooth="yes"/>
      <point x="642" y="11"/>
      <point x="647" y="21"/>
      <point x="658" y="30" type="curve" smooth="yes"/>
      <point x="672" y="42"/>
      <point x="683" y="50"/>
      <point x="700" y="56" type="curve" smooth="yes"/>
      <point x="718" y="60"/>
      <point x="716" y="60"/>
      <point x="834" y="60" type="curve" smooth="yes"/>
      <point x="945" y="60" type="line"/>
      <point x="945" y="180" type="line"/>
      <point x="945" y="299" type="line"/>
      <point x="930" y="302" type="line" smooth="yes"/>
      <point x="883" y="309"/>
      <point x="836" y="323"/>
      <point x="792" y="337" type="curve" smooth="yes"/>
      <point x="632" y="397"/>
      <point x="500" y="505"/>
      <point x="424" y="641" type="curve" smooth="yes"/>
      <point x="388" y="704"/>
      <point x="366" y="770"/>
      <point x="356" y="842" type="curve" smooth="yes"/>
      <point x="351" y="870"/>
      <point x="351" y="884"/>
      <point x="351" y="921" type="curve" smooth="yes"/>
      <point x="351" y="956"/>
      <point x="351" y="971"/>
      <point x="358" y="1001" type="curve" smooth="yes"/>
      <point x="384" y="1179"/>
      <point x="495" y="1339"/>
      <point x="667" y="1439" type="curve"/>
      <point x="767" y="1502"/>
      <point x="892" y="1539"/>
      <point x="1016" y="1547" type="curve" smooth="yes"/>
      <point x="1023" y="1547"/>
      <point x="1033" y="1547"/>
    </contour>
  </outline>
</glyph>
<glyph name="G.0" format="2">
  <advance width="2048"/>
  <outline>
    <contour>
      <point x="673" y="1007" type="curve"/>
      <point x="665" y="1007"/>
      <point x="658" y="1004"/>
      <point x="653" y="999" type="curve" smooth="yes"/>
      <point x="647" y="993"/>
      <point x="644" y="986"/>
      <point x="644" y="978" type="curve"/>
      <point x="644" y="970"/>
      <point x="647" y="963"/>
      <point x="653" y="957" type="curve" smooth="yes"/>
      <point x="658" y="952"/>
      <point x="665" y="949"/>
      <point x="673" y="949" type="curve"/>
      <point x="674" y="949"/>
      <point x="674" y="949"/>
      <point x="675" y="949" type="curve"/>
      <point x="675" y="970" type="line"/>
      <point x="694" y="970" type="line"/>
      <point x="694" y="929" type="line"/>
      <point x="675" y="929" type="line"/>
      <point x="674" y="929"/>
      <point x="674" y="929"/>
      <point x="673" y="929" type="curve"/>
      <point x="660" y="929"/>
      <point x="648" y="934"/>
      <point x="639" y="944" type="curve" smooth="yes"/>
      <point x="630" y="953"/>
      <point x="625" y="965"/>
      <point x="625" y="978" type="curve" smooth="yes"/>
      <point x="625" y="992"/>
      <point x="630" y="1003"/>
      <point x="639" y="1013" type="curve" smooth="yes"/>
      <point x="648" y="1023"/>
      <point x="660" y="1027"/>
      <point x="673" y="1027" type="curve"/>
      <point x="676" y="1027"/>
      <point x="679" y="1027"/>
      <point x="682" y="1027" type="curve"/>
      <point x="682" y="1006" type="line"/>
      <point x="679" y="1007"/>
      <point x="676" y="1007"/>
    </contour>
    <contour>
      <point x="735" y="914" type="line"/>
      <point x="735" y="914" type="line"/>
      <point x="735" y="914"/>
      <point x="735" y="914"/>
      <point x="735" y="914" type="curve"/>
      <point x="734" y="914" type="line"/>
      <point x="731" y="914"/>
      <point x="729" y="914"/>
      <point x="729" y="914" type="curve"/>
      <point x="721" y="914"/>
      <point x="714" y="918"/>
      <point x="710" y="924" type="curve" smooth="yes"/>
      <point x="705" y="929"/>
      <point x="703" y="937"/>
      <point x="703" y="946" type="curve"/>
      <point x="703" y="954"/>
      <point x="706" y="962"/>
      <point x="712" y="968" type="curve" smooth="yes"/>
      <point x="717" y="974"/>
      <point x="724" y="977"/>
      <point x="733" y="978" type="curve"/>
      <point x="733" y="978"/>
      <point x="734" y="978"/>
      <point x="735" y="978" type="curve"/>
      <point x="735" y="978"/>
      <point x="735" y="978"/>
      <point x="735" y="978" type="curve"/>
      <point x="735" y="978" type="line"/>
      <point x="735" y="978"/>
      <point x="735" y="978"/>
      <point x="736" y="978" type="curve"/>
      <point x="745" y="978"/>
      <point x="752" y="975"/>
      <point x="758" y="969" type="curve" smooth="yes"/>
      <point x="765" y="962"/>
      <point x="768" y="955"/>
      <point x="768" y="946" type="curve"/>
      <point x="768" y="946" type="line"/>
      <point x="768" y="945"/>
      <point x="768" y="945"/>
      <point x="768" y="945" type="curve"/>
      <point x="768" y="911" type="line"/>
      <point x="766" y="904"/>
      <point x="762" y="898"/>
      <point x="756" y="894" type="curve" smooth="yes"/>
      <point x="751" y="890"/>
      <point x="745" y="888"/>
      <point x="737" y="888" type="curve"/>
      <point x="723" y="888"/>
      <point x="714" y="888"/>
      <point x="712" y="889" type="curve"/>
      <point x="712" y="910" type="line"/>
      <point x="713" y="909"/>
      <point x="716" y="908"/>
      <point x="723" y="907" type="curve" smooth="yes"/>
      <point x="730" y="907"/>
      <point x="734" y="906"/>
      <point x="737" y="906" type="curve"/>
      <point x="739" y="906"/>
      <point x="742" y="907"/>
      <point x="744" y="908" type="curve" smooth="yes"/>
      <point x="746" y="909"/>
      <point x="748" y="910"/>
      <point x="749" y="911" type="curve"/>
      <point x="749" y="916" type="line"/>
      <point x="745" y="915"/>
      <point x="740" y="914"/>
      <point x="736" y="914" type="curve"/>
      <point x="736" y="914"/>
      <point x="736" y="914"/>
      <point x="735" y="914" type="curve"/>
    </contour>
    <contour>
      <point x="735" y="959" type="curve"/>
      <point x="734" y="959"/>
      <point x="733" y="959"/>
      <point x="732" y="959" type="curve"/>
      <point x="732" y="959" type="line"/>
      <point x="729" y="958"/>
      <point x="727" y="957"/>
      <point x="725" y="954" type="curve" smooth="yes"/>
      <point x="723" y="952"/>
      <point x="722" y="949"/>
      <point x="722" y="946" type="curve"/>
      <point x="722" y="943"/>
      <point x="723" y="940"/>
      <point x="725" y="937" type="curve" smooth="yes"/>
      <point x="727" y="935"/>
      <point x="729" y="933"/>
      <point x="732" y="933" type="curve"/>
      <point x="732" y="933" type="line"/>
      <point x="733" y="933"/>
      <point x="734" y="932"/>
      <point x="735" y="932" type="curve"/>
      <point x="736" y="932"/>
      <point x="737" y="933"/>
      <point x="738" y="933" type="curve"/>
      <point x="738" y="933" type="line"/>
      <point x="741" y="933"/>
      <point x="744" y="935"/>
      <point x="746" y="937" type="curve" smooth="yes"/>
      <point x="748" y="940"/>
      <point x="749" y="943"/>
      <point x="749" y="946" type="curve"/>
      <point x="749" y="949"/>
      <point x="748" y="952"/>
      <point x="746" y="954" type="curve" smooth="yes"/>
      <point x="744" y="957"/>
      <point x="741" y="958"/>
      <point x="738" y="959" type="curve"/>
      <point x="738" y="959" type="line"/>
      <point x="737" y="959"/>
      <point x="736" y="959"/>
    </contour>
  </outline>
</glyph>
<glyph name="G.1" format="2">
  <advance width="2048"/>
  <outline>
    <contour>
      <point x="1014" y="210" type="curve" smooth="yes"/>
      <point x="994" y="215"/>
      <point x="994" y="215"/>
      <point x="979" y="210" type="curve" smooth="yes"/>
      <point x="946" y="207"/>
      <point x="912" y="185"/>
      <point x="897" y="155" type="curve" smooth="yes"/>
      <point x="889" y="135"/>
      <point x="886" y="125"/>
      <point x="886" y="105" type="curve" smooth="yes"/>
      <point x="886" y="75"/>
      <point x="897" y="50"/>
      <point x="924" y="27" type="curve" smooth="yes"/>
      <point x="946" y="5"/>
      <point x="979" y="-7"/>
      <point x="1017" y="0" type="curve" smooth="yes"/>
      <point x="1059" y="12"/>
      <point x="1089" y="38"/>
      <point x="1099" y="80" type="curve" smooth="yes"/>
      <point x="1107" y="117"/>
      <point x="1096" y="155"/>
      <point x="1069" y="180" type="curve" smooth="yes"/>
      <point x="1051" y="200"/>
      <point x="1036" y="207"/>
    </contour>
    <contour>
      <point x="939" y="495" type="curve" smooth="yes"/>
      <point x="931" y="495"/>
      <point x="927" y="500"/>
      <point x="912" y="500" type="curve" smooth="yes"/>
      <point x="897" y="500"/>
      <point x="897" y="500"/>
      <point x="882" y="492" type="curve" smooth="yes"/>
      <point x="867" y="485"/>
      <point x="859" y="477"/>
      <point x="852" y="462" type="curve" smooth="yes"/>
      <point x="841" y="435"/>
      <point x="849" y="405"/>
      <point x="867" y="387" type="curve" smooth="yes"/>
      <point x="894" y="365"/>
      <point x="934" y="365"/>
      <point x="957" y="390" type="curve" smooth="yes"/>
      <point x="972" y="405"/>
      <point x="976" y="413"/>
      <point x="976" y="435" type="curve" smooth="yes"/>
      <point x="976" y="450"/>
      <point x="976" y="455"/>
      <point x="969" y="465" type="curve" smooth="yes"/>
      <point x="961" y="477"/>
      <point x="954" y="488"/>
    </contour>
    <contour>
      <point x="574" y="897" type="curve" smooth="yes"/>
      <point x="567" y="897"/>
      <point x="567" y="893"/>
      <point x="574" y="870" type="curve" smooth="yes"/>
      <point x="589" y="833"/>
      <point x="612" y="807"/>
      <point x="642" y="795" type="curve" smooth="yes"/>
      <point x="657" y="792"/>
      <point x="691" y="788"/>
      <point x="706" y="795" type="curve" smooth="yes"/>
      <point x="724" y="800"/>
      <point x="744" y="815"/>
      <point x="754" y="833" type="curve" smooth="yes"/>
      <point x="759" y="848"/>
      <point x="766" y="870"/>
      <point x="766" y="882" type="curve" smooth="yes"/>
      <point x="766" y="885"/>
      <point x="766" y="885"/>
      <point x="759" y="890" type="curve"/>
      <point x="751" y="890"/>
      <point x="747" y="890"/>
      <point x="747" y="890" type="curve"/>
      <point x="747" y="890"/>
      <point x="747" y="882"/>
      <point x="744" y="878" type="curve" smooth="yes"/>
      <point x="744" y="848"/>
      <point x="724" y="822"/>
      <point x="702" y="815" type="curve" smooth="yes"/>
      <point x="699" y="815"/>
      <point x="687" y="810"/>
      <point x="676" y="810" type="curve" smooth="yes"/>
      <point x="657" y="810"/>
      <point x="657" y="810"/>
      <point x="642" y="818" type="curve" smooth="yes"/>
      <point x="624" y="830"/>
      <point x="604" y="852"/>
      <point x="594" y="885" type="curve" smooth="yes"/>
      <point x="586" y="900"/>
      <point x="586" y="900"/>
    </contour>
    <contour>
      <point x="969" y="1193" type="curve" smooth="yes"/>
      <point x="964" y="1193"/>
      <point x="961" y="1197"/>
      <point x="957" y="1197" type="curve" smooth="yes"/>
      <point x="927" y="1197"/>
      <point x="919" y="1155"/>
      <point x="946" y="1145" type="curve" smooth="yes"/>
      <point x="949" y="1140"/>
      <point x="957" y="1140"/>
      <point x="961" y="1140" type="curve" smooth="yes"/>
      <point x="987" y="1148"/>
      <point x="991" y="1178"/>
    </contour>
    <contour>
      <point x="1224" y="1355" type="curve" smooth="yes"/>
      <point x="1204" y="1365"/>
      <point x="1179" y="1362"/>
      <point x="1152" y="1350" type="curve" smooth="yes"/>
      <point x="1141" y="1343"/>
      <point x="1122" y="1332"/>
      <point x="1122" y="1328" type="curve" smooth="yes"/>
      <point x="1122" y="1325"/>
      <point x="1164" y="1305"/>
      <point x="1179" y="1302" type="curve" smooth="yes"/>
      <point x="1201" y="1298"/>
      <point x="1216" y="1298"/>
      <point x="1231" y="1305" type="curve" smooth="yes"/>
      <point x="1246" y="1313"/>
      <point x="1254" y="1320"/>
      <point x="1249" y="1328" type="curve"/>
      <point x="1249" y="1340"/>
      <point x="1239" y="1350"/>
    </contour>
    <contour>
      <point x="609" y="1400" type="curve" smooth="yes"/>
      <point x="579" y="1385"/>
      <point x="571" y="1350"/>
      <point x="594" y="1325" type="curve" smooth="yes"/>
      <point x="601" y="1313"/>
      <point x="612" y="1310"/>
      <point x="627" y="1310" type="curve" smooth="yes"/>
      <point x="642" y="1310"/>
      <point x="654" y="1313"/>
      <point x="661" y="1325" type="curve" smooth="yes"/>
      <point x="679" y="1343"/>
      <point x="679" y="1373"/>
      <point x="657" y="1392" type="curve" smooth="yes"/>
      <point x="646" y="1403"/>
      <point x="624" y="1407"/>
    </contour>
    <contour>
      <point x="642" y="1377" type="curve" smooth="yes"/>
      <point x="649" y="1373"/>
      <point x="654" y="1365"/>
      <point x="654" y="1355" type="curve" smooth="yes"/>
      <point x="654" y="1340"/>
      <point x="642" y="1328"/>
      <point x="627" y="1328" type="curve" smooth="yes"/>
      <point x="612" y="1328"/>
      <point x="601" y="1340"/>
      <point x="601" y="1355" type="curve" smooth="yes"/>
      <point x="601" y="1377"/>
      <point x="624" y="1388"/>
    </contour>
    <contour>
      <point x="777" y="1662" type="curve" smooth="yes"/>
      <point x="762" y="1670"/>
      <point x="751" y="1670"/>
      <point x="747" y="1662" type="curve" smooth="yes"/>
      <point x="739" y="1655"/>
      <point x="744" y="1628"/>
      <point x="754" y="1610" type="curve" smooth="yes"/>
      <point x="762" y="1590"/>
      <point x="777" y="1583"/>
      <point x="796" y="1580" type="curve" smooth="yes"/>
      <point x="804" y="1580"/>
      <point x="804" y="1580"/>
      <point x="807" y="1583" type="curve" smooth="yes"/>
      <point x="807" y="1590"/>
      <point x="807" y="1617"/>
      <point x="804" y="1628" type="curve" smooth="yes"/>
      <point x="796" y="1643"/>
      <point x="789" y="1655"/>
    </contour>
    <contour>
      <point x="736" y="1775" type="curve" smooth="yes"/>
      <point x="751" y="1778"/>
      <point x="781" y="1778"/>
      <point x="796" y="1775" type="curve" smooth="yes"/>
      <point x="849" y="1763"/>
      <point x="879" y="1730"/>
      <point x="894" y="1680" type="curve" smooth="yes"/>
      <point x="897" y="1662"/>
      <point x="897" y="1658"/>
      <point x="897" y="1625" type="curve" smooth="yes"/>
      <point x="897" y="1590"/>
      <point x="897" y="1583"/>
      <point x="894" y="1557" type="curve"/>
      <point x="889" y="1553"/>
      <point x="894" y="1553"/>
      <point x="904" y="1550" type="curve" smooth="yes"/>
      <point x="927" y="1545"/>
      <point x="924" y="1545"/>
      <point x="934" y="1575" type="curve" smooth="yes"/>
      <point x="939" y="1590"/>
      <point x="942" y="1602"/>
      <point x="942" y="1602" type="curve" smooth="yes"/>
      <point x="942" y="1605"/>
      <point x="939" y="1610"/>
      <point x="934" y="1617" type="curve" smooth="yes"/>
      <point x="909" y="1658"/>
      <point x="931" y="1715"/>
      <point x="976" y="1725" type="curve"/>
      <point x="1009" y="1737"/>
      <point x="1047" y="1718"/>
      <point x="1062" y="1688" type="curve" smooth="yes"/>
      <point x="1066" y="1677"/>
      <point x="1066" y="1673"/>
      <point x="1066" y="1658" type="curve" smooth="yes"/>
      <point x="1066" y="1640"/>
      <point x="1066" y="1635"/>
      <point x="1062" y="1625" type="curve" smooth="yes"/>
      <point x="1054" y="1613"/>
      <point x="1044" y="1598"/>
      <point x="1029" y="1590" type="curve" smooth="yes"/>
      <point x="1024" y="1590"/>
      <point x="1021" y="1587"/>
      <point x="1021" y="1587" type="curve"/>
      <point x="1021" y="1587"/>
      <point x="1014" y="1572"/>
      <point x="1006" y="1553" type="curve" smooth="yes"/>
      <point x="994" y="1515"/>
      <point x="991" y="1520"/>
      <point x="1014" y="1497" type="curve" smooth="yes"/>
      <point x="1029" y="1482" type="line"/>
      <point x="1054" y="1508" type="line"/>
      <point x="1081" y="1530" type="line"/>
      <point x="1081" y="1553" type="line" smooth="yes"/>
      <point x="1081" y="1572"/>
      <point x="1081" y="1572"/>
      <point x="1084" y="1587" type="curve"/>
      <point x="1111" y="1640"/>
      <point x="1189" y="1640"/>
      <point x="1216" y="1587" type="curve" smooth="yes"/>
      <point x="1224" y="1575"/>
      <point x="1224" y="1572"/>
      <point x="1224" y="1557" type="curve" smooth="yes"/>
      <point x="1224" y="1538"/>
      <point x="1224" y="1535"/>
      <point x="1216" y="1523" type="curve" smooth="yes"/>
      <point x="1209" y="1508"/>
      <point x="1197" y="1497"/>
      <point x="1182" y="1490" type="curve" smooth="yes"/>
      <point x="1171" y="1485"/>
      <point x="1167" y="1485"/>
      <point x="1152" y="1485" type="curve" smooth="yes"/>
      <point x="1137" y="1482" type="line"/>
      <point x="1107" y="1455" type="line"/>
      <point x="1081" y="1425"/>
      <point x="1077" y="1425"/>
      <point x="1077" y="1418" type="curve"/>
      <point x="1077" y="1418"/>
      <point x="1081" y="1415"/>
      <point x="1081" y="1415" type="curve"/>
      <point x="1081" y="1415"/>
      <point x="1084" y="1418"/>
      <point x="1089" y="1422" type="curve" smooth="yes"/>
      <point x="1111" y="1437"/>
      <point x="1149" y="1448"/>
      <point x="1182" y="1452" type="curve" smooth="yes"/>
      <point x="1216" y="1455"/>
      <point x="1269" y="1448"/>
      <point x="1291" y="1437" type="curve" smooth="yes"/>
      <point x="1332" y="1415"/>
      <point x="1354" y="1373"/>
      <point x="1347" y="1328" type="curve" smooth="yes"/>
      <point x="1344" y="1320"/>
      <point x="1339" y="1310"/>
      <point x="1336" y="1298" type="curve" smooth="yes"/>
      <point x="1317" y="1260"/>
      <point x="1287" y="1238"/>
      <point x="1249" y="1230" type="curve" smooth="yes"/>
      <point x="1212" y="1223"/>
      <point x="1167" y="1230"/>
      <point x="1122" y="1253" type="curve"/>
      <point x="1104" y="1260" type="line"/>
      <point x="1104" y="1253" type="line"/>
      <point x="1089" y="1140"/>
      <point x="1044" y="1025"/>
      <point x="987" y="945" type="curve" smooth="yes"/>
      <point x="979" y="938"/>
      <point x="979" y="935"/>
      <point x="979" y="927" type="curve" smooth="yes"/>
      <point x="979" y="905"/>
      <point x="999" y="747"/>
      <point x="1014" y="675" type="curve"/>
      <point x="1032" y="545"/>
      <point x="1054" y="480"/>
      <point x="1092" y="402" type="curve" smooth="yes"/>
      <point x="1134" y="315"/>
      <point x="1182" y="260"/>
      <point x="1234" y="237" type="curve" smooth="yes"/>
      <point x="1264" y="222"/>
      <point x="1294" y="192"/>
      <point x="1314" y="158" type="curve"/>
      <point x="1321" y="150" type="line"/>
      <point x="1332" y="150" type="line" smooth="yes"/>
      <point x="1362" y="150"/>
      <point x="1396" y="155"/>
      <point x="1419" y="165" type="curve" smooth="yes"/>
      <point x="1434" y="173"/>
      <point x="1449" y="185"/>
      <point x="1452" y="188" type="curve" smooth="yes"/>
      <point x="1452" y="192"/>
      <point x="1449" y="200"/>
      <point x="1437" y="218" type="curve" smooth="yes"/>
      <point x="1422" y="245"/>
      <point x="1422" y="248"/>
      <point x="1422" y="260" type="curve" smooth="yes"/>
      <point x="1419" y="278"/>
      <point x="1429" y="290"/>
      <point x="1444" y="290" type="curve" smooth="yes"/>
      <point x="1459" y="290"/>
      <point x="1471" y="282"/>
      <point x="1479" y="267" type="curve"/>
      <point x="1479" y="263" type="line"/>
      <point x="1486" y="275" type="line" smooth="yes"/>
      <point x="1489" y="282"/>
      <point x="1494" y="290"/>
      <point x="1497" y="290" type="curve" smooth="yes"/>
      <point x="1504" y="297"/>
      <point x="1516" y="297"/>
      <point x="1524" y="297" type="curve"/>
      <point x="1534" y="290"/>
      <point x="1539" y="267"/>
      <point x="1531" y="248" type="curve" smooth="yes"/>
      <point x="1527" y="245"/>
      <point x="1527" y="237"/>
      <point x="1527" y="237" type="curve"/>
      <point x="1527" y="237"/>
      <point x="1531" y="237"/>
      <point x="1534" y="237" type="curve" smooth="yes"/>
      <point x="1546" y="240"/>
      <point x="1554" y="237"/>
      <point x="1561" y="230" type="curve" smooth="yes"/>
      <point x="1564" y="225"/>
      <point x="1569" y="222"/>
      <point x="1569" y="215" type="curve" smooth="yes"/>
      <point x="1569" y="207"/>
      <point x="1564" y="207"/>
      <point x="1557" y="200" type="curve" smooth="yes"/>
      <point x="1549" y="188"/>
      <point x="1549" y="188"/>
      <point x="1527" y="185" type="curve"/>
      <point x="1504" y="177" type="line"/>
      <point x="1501" y="170" type="line" smooth="yes"/>
      <point x="1497" y="155"/>
      <point x="1486" y="135"/>
      <point x="1471" y="120" type="curve" smooth="yes"/>
      <point x="1459" y="110"/>
      <point x="1456" y="105"/>
      <point x="1437" y="98" type="curve"/>
      <point x="1414" y="83"/>
      <point x="1389" y="80"/>
      <point x="1362" y="75" type="curve"/>
      <point x="1344" y="75" type="line"/>
      <point x="1347" y="65" type="line"/>
      <point x="1351" y="35"/>
      <point x="1351" y="8"/>
      <point x="1351" y="-63" type="curve" smooth="yes"/>
      <point x="1347" y="-138"/>
      <point x="1347" y="-150"/>
      <point x="1344" y="-195" type="curve" smooth="yes"/>
      <point x="1336" y="-300"/>
      <point x="1317" y="-375"/>
      <point x="1291" y="-420" type="curve"/>
      <point x="1284" y="-427" type="line"/>
      <point x="1212" y="-427" type="line" smooth="yes"/>
      <point x="1152" y="-427"/>
      <point x="1144" y="-427"/>
      <point x="1144" y="-423" type="curve" smooth="yes"/>
      <point x="1144" y="-423"/>
      <point x="1144" y="-367"/>
      <point x="1149" y="-300" type="curve" smooth="yes"/>
      <point x="1156" y="-165"/>
      <point x="1156" y="-160"/>
      <point x="1149" y="-142" type="curve" smooth="yes"/>
      <point x="1137" y="-120"/>
      <point x="1129" y="-115"/>
      <point x="1114" y="-130" type="curve" smooth="yes"/>
      <point x="1104" y="-142"/>
      <point x="1096" y="-157"/>
      <point x="1089" y="-195" type="curve"/>
      <point x="1069" y="-255"/>
      <point x="1062" y="-322"/>
      <point x="1051" y="-415" type="curve"/>
      <point x="1047" y="-427" type="line"/>
      <point x="976" y="-427" type="line"/>
      <point x="904" y="-427" type="line"/>
      <point x="904" y="-295" type="line"/>
      <point x="904" y="-160" type="line"/>
      <point x="897" y="-153" type="line"/>
      <point x="894" y="-138"/>
      <point x="882" y="-130"/>
      <point x="879" y="-130" type="curve" smooth="yes"/>
      <point x="867" y="-130"/>
      <point x="852" y="-150"/>
      <point x="852" y="-165" type="curve" smooth="yes"/>
      <point x="852" y="-168"/>
      <point x="852" y="-228"/>
      <point x="859" y="-300" type="curve" smooth="yes"/>
      <point x="864" y="-367"/>
      <point x="867" y="-423"/>
      <point x="867" y="-427" type="curve"/>
      <point x="867" y="-427"/>
      <point x="837" y="-427"/>
      <point x="804" y="-427" type="curve" smooth="yes"/>
      <point x="739" y="-427" type="line"/>
      <point x="732" y="-415" type="line"/>
      <point x="729" y="-400"/>
      <point x="714" y="-367"/>
      <point x="706" y="-340" type="curve" smooth="yes"/>
      <point x="676" y="-243"/>
      <point x="654" y="-127"/>
      <point x="642" y="-10" type="curve" smooth="yes"/>
      <point x="639" y="27"/>
      <point x="639" y="35"/>
      <point x="642" y="80" type="curve" smooth="yes"/>
      <point x="646" y="102"/>
      <point x="654" y="170"/>
      <point x="661" y="230" type="curve" smooth="yes"/>
      <point x="679" y="383"/>
      <point x="679" y="383"/>
      <point x="684" y="417" type="curve" smooth="yes"/>
      <point x="691" y="447"/>
      <point x="699" y="510"/>
      <point x="699" y="545" type="curve"/>
      <point x="706" y="605"/>
      <point x="706" y="657"/>
      <point x="702" y="713" type="curve"/>
      <point x="702" y="732" type="line"/>
      <point x="669" y="732" type="line" smooth="yes"/>
      <point x="631" y="732"/>
      <point x="601" y="735"/>
      <point x="567" y="743" type="curve" smooth="yes"/>
      <point x="519" y="758"/>
      <point x="481" y="773"/>
      <point x="454" y="795" type="curve" smooth="yes"/>
      <point x="394" y="845"/>
      <point x="354" y="908"/>
      <point x="342" y="983" type="curve" smooth="yes"/>
      <point x="324" y="1077"/>
      <point x="342" y="1178"/>
      <point x="399" y="1265" type="curve" smooth="yes"/>
      <point x="451" y="1347"/>
      <point x="579" y="1448"/>
      <point x="714" y="1520" type="curve"/>
      <point x="739" y="1530" type="line"/>
      <point x="732" y="1538" type="line"/>
      <point x="717" y="1545"/>
      <point x="694" y="1568"/>
      <point x="684" y="1587" type="curve" smooth="yes"/>
      <point x="654" y="1628"/>
      <point x="646" y="1658"/>
      <point x="654" y="1692" type="curve" smooth="yes"/>
      <point x="664" y="1733"/>
      <point x="694" y="1763"/>
    </contour>
    <contour>
      <point x="987" y="690" type="curve" smooth="yes"/>
      <point x="984" y="717"/>
      <point x="979" y="735"/>
      <point x="979" y="740" type="curve"/>
      <point x="979" y="740"/>
      <point x="976" y="740"/>
      <point x="969" y="732" type="curve" smooth="yes"/>
      <point x="927" y="702"/>
      <point x="912" y="653"/>
      <point x="927" y="615" type="curve" smooth="yes"/>
      <point x="934" y="600"/>
      <point x="954" y="582"/>
      <point x="969" y="578" type="curve"/>
      <point x="979" y="570"/>
      <point x="999" y="567"/>
      <point x="1006" y="567" type="curve" smooth="yes"/>
      <point x="1014" y="567"/>
      <point x="1014" y="567"/>
      <point x="1009" y="570" type="curve"/>
      <point x="1002" y="600"/>
      <point x="994" y="657"/>
    </contour>
    <contour>
      <point x="736" y="545" type="curve" smooth="yes"/>
      <point x="729" y="545"/>
      <point x="721" y="548"/>
      <point x="721" y="548" type="curve"/>
      <point x="721" y="548"/>
      <point x="721" y="540"/>
      <point x="721" y="533" type="curve" smooth="yes"/>
      <point x="721" y="525"/>
      <point x="717" y="507"/>
      <point x="714" y="488" type="curve" smooth="yes"/>
      <point x="714" y="473"/>
      <point x="714" y="455"/>
      <point x="714" y="455" type="curve" smooth="yes"/>
      <point x="714" y="450"/>
      <point x="721" y="447"/>
      <point x="739" y="447" type="curve" smooth="yes"/>
      <point x="754" y="447"/>
      <point x="766" y="450"/>
      <point x="774" y="458" type="curve" smooth="yes"/>
      <point x="784" y="465"/>
      <point x="789" y="477"/>
      <point x="789" y="488" type="curve" smooth="yes"/>
      <point x="789" y="515"/>
      <point x="769" y="533"/>
    </contour>
    <contour>
      <point x="706" y="-22" type="curve" smooth="yes"/>
      <point x="699" y="-22"/>
      <point x="687" y="-18"/>
      <point x="679" y="-18" type="curve" smooth="yes"/>
      <point x="664" y="-18"/>
      <point x="664" y="-22"/>
      <point x="664" y="-25" type="curve" smooth="yes"/>
      <point x="664" y="-40"/>
      <point x="676" y="-123"/>
      <point x="684" y="-175" type="curve" smooth="yes"/>
      <point x="687" y="-198"/>
      <point x="691" y="-198"/>
      <point x="694" y="-198" type="curve" smooth="yes"/>
      <point x="699" y="-198"/>
      <point x="724" y="-190"/>
      <point x="732" y="-187" type="curve" smooth="yes"/>
      <point x="744" y="-180"/>
      <point x="759" y="-160"/>
      <point x="766" y="-150" type="curve"/>
      <point x="769" y="-135"/>
      <point x="769" y="-108"/>
      <point x="766" y="-90" type="curve" smooth="yes"/>
      <point x="759" y="-55"/>
      <point x="739" y="-33"/>
    </contour>
    <contour>
      <point x="934" y="1212" type="curve" smooth="yes"/>
      <point x="904" y="1197"/>
      <point x="897" y="1163"/>
      <point x="919" y="1137" type="curve" smooth="yes"/>
      <point x="927" y="1125"/>
      <point x="939" y="1122"/>
      <point x="954" y="1122" type="curve" smooth="yes"/>
      <point x="969" y="1122"/>
      <point x="979" y="1125"/>
      <point x="987" y="1137" type="curve" smooth="yes"/>
      <point x="1006" y="1155"/>
      <point x="1006" y="1185"/>
      <point x="984" y="1205" type="curve" smooth="yes"/>
      <point x="972" y="1215"/>
      <point x="949" y="1220"/>
    </contour>
  </outline>
</glyph>
<glyph name="H.0" format="2">
  <advance width="1024"/>
  <outline>
    <contour>
      <point x="570" y="464" type="line"/>
      <point x="570" y="406" type="line"/>
      <point x="520" y="406" type="line"/>
      <point x="520" y="464" type="line"/>
      <point x="490" y="464" type="line"/>
      <point x="490" y="308" type="line"/>
      <point x="520" y="308" type="line"/>
      <point x="520" y="376" type="line"/>
      <point x="570" y="376" type="line"/>
      <point x="570" y="308" type="line"/>
      <point x="600" y="308" type="line"/>
      <point x="600" y="464" type="line"/>
    </contour>
    <contour>
      <point x="610" y="462" type="line"/>
      <point x="610" y="310" type="line"/>
      <point x="644" y="310" type="line"/>
      <point x="644" y="376" type="line"/>
      <point x="648" y="382"/>
      <point x="652" y="384"/>
      <point x="660" y="384" type="curve"/>
      <point x="666" y="384"/>
      <point x="672" y="382"/>
      <point x="676" y="376" type="curve"/>
      <point x="676" y="310" type="line"/>
      <point x="708" y="310" type="line"/>
      <point x="708" y="376" type="line"/>
      <point x="704" y="388"/>
      <point x="698" y="396"/>
      <point x="690" y="404" type="curve" smooth="yes"/>
      <point x="680" y="410"/>
      <point x="670" y="414"/>
      <point x="660" y="414" type="curve"/>
      <point x="654" y="414"/>
      <point x="648" y="412"/>
      <point x="644" y="412" type="curve"/>
      <point x="644" y="462" type="line"/>
    </contour>
  </outline>
</glyph>
<glyph name="H.1" format="2">
  <advance width="2048"/>
  <outline>
    <contour>
      <point x="1755" y="335" type="curve" smooth="yes"/>
      <point x="1755" y="394"/>
      <point x="1657" y="447"/>
      <point x="1501" y="484" type="curve"/>
      <point x="1501" y="1250" type="line"/>
      <point x="1459" y="1265"/>
      <point x="1248" y="1346"/>
      <point x="982" y="1346" type="curve" smooth="yes"/>
      <point x="737" y="1346"/>
      <point x="491" y="1256"/>
      <point x="481" y="1250" type="curve"/>
      <point x="481" y="493" type="line"/>
      <point x="301" y="456"/>
      <point x="186" y="399"/>
      <point x="186" y="335" type="curve" smooth="yes"/>
      <point x="186" y="223"/>
      <point x="537" y="133"/>
      <point x="971" y="133" type="curve" smooth="yes"/>
      <point x="1404" y="133"/>
      <point x="1755" y="223"/>
    </contour>
  </outline>
</glyph>
<glyph name="I.0" format="2">
  <advance width="2048"/>
  <outline>
    <contour>
      <point x="1135" y="429" type="line"/>
      <point x="1135" y="322" type="line"/>
      <point x="1158" y="322" type="line"/>
      <point x="1158" y="429" type="line"/>
    </contour>
    <contour>
      <point x="1217" y="431" type="line"/>
      <point x="1217" y="411" type="line"/>
      <point x="1239" y="411" type="line"/>
      <point x="1239" y="431" type="line"/>
    </contour>
    <contour>
      <point x="1217" y="393" type="line"/>
      <point x="1217" y="322" type="line"/>
      <point x="1240" y="322" type="line"/>
      <point x="1240" y="393" type="line"/>
    </contour>
    <contour>
      <point x="1110" y="435" type="line"/>
      <point x="1110" y="409" type="line"/>
      <point x="1187" y="409" type="line"/>
      <point x="1187" y="435" type="line"/>
    </contour>
    <contour>
      <point x="1109" y="347" type="line"/>
      <point x="1109" y="322" type="line"/>
      <point x="1186" y="322" type="line"/>
      <point x="1186" y="347" type="line"/>
    </contour>
  </outline>
</glyph>
